<svg xmlns="http://www.w3.org/2000/svg" xmlns:xlink="http://www.w3.org/1999/xlink" width="100" zoomAndPan="magnify" viewBox="0 0 75 74.999997" height="100" preserveAspectRatio="xMidYMid meet" version="1.0"><defs><g/></defs><path stroke-linecap="butt" transform="matrix(0, -0.75, 0.75, 0, 56.7754, 55.28908)" fill="none" stroke-linejoin="miter" d="M 0.0000234463 4.502592 L 32.526068 4.502592 " stroke="#176b87" stroke-width="9" stroke-opacity="1" stroke-miterlimit="4"/><path stroke-linecap="butt" transform="matrix(0.75, 0, 0, 0.75, 8.418126, 48.543053)" fill="none" stroke-linejoin="miter" d="M -0.00021011 4.499889 L 68.859171 4.499889 " stroke="#176b87" stroke-width="9" stroke-opacity="1" stroke-miterlimit="4"/><path stroke-linecap="butt" transform="matrix(0, -0.75, 0.75, 0, 5.039149, 55.28908)" fill="none" stroke-linejoin="miter" d="M 0.0000234463 4.499885 L 32.526068 4.499885 " stroke="#176b87" stroke-width="9" stroke-opacity="1" stroke-miterlimit="4"/><path stroke-linecap="butt" transform="matrix(0.75, 0, 0, 0.75, 5.019844, 58.830481)" fill="none" stroke-linejoin="miter" d="M -0.00041696 4.502067 L 46.463129 4.502067 " stroke="#176b87" stroke-width="9" stroke-opacity="1" stroke-miterlimit="4"/><path stroke-linecap="butt" transform="matrix(0.75, -0.000000000000000837, 0.000000000000000837, 0.75, 43.502576, 58.830481)" fill="none" stroke-linejoin="miter" d="M 0.00177427 4.502067 L 26.704901 4.502067 " stroke="#176b87" stroke-width="9" stroke-opacity="1" stroke-miterlimit="4"/><path stroke-linecap="butt" transform="matrix(0, -0.75, 0.75, 0, 17.965049, 43.032907)" fill="none" stroke-linejoin="miter" d="M 0.00220998 4.499727 L 44.82513 4.499727 " stroke="#176b87" stroke-width="9" stroke-opacity="1" stroke-miterlimit="4"/><path stroke-linecap="butt" transform="matrix(0, -0.75, 0.75, 0, 43.21704, 43.032907)" fill="none" stroke-linejoin="miter" d="M 0.00220998 4.50228 L 44.82513 4.50228 " stroke="#176b87" stroke-width="9" stroke-opacity="1" stroke-miterlimit="4"/><path stroke-linecap="butt" transform="matrix(0.75, 0, 0, 0.75, 12.009339, 15.634376)" fill="none" stroke-linejoin="miter" d="M -0.00203523 4.497916 L 77.294846 4.497916 " stroke="#176b87" stroke-width="9" stroke-opacity="1" stroke-miterlimit="4"/><path stroke-linecap="butt" transform="matrix(0, -0.75, 0.75, 0, 56.773722, 34.249405)" fill="none" stroke-linejoin="miter" d="M -0.000792689 4.49962 L 20.327334 4.49962 " stroke="#176b87" stroke-width="9" stroke-opacity="1" stroke-miterlimit="4"/><g fill="#e7f0ff" fill-opacity="1"><g transform="translate(13.521243, 19.909377)"><g><path d="M 0.4375 -0.6875 C 0.445312 -0.6875 0.453125 -0.679688 0.453125 -0.671875 C 0.453125 -0.671875 0.457031 -0.671875 0.46875 -0.671875 L 0.59375 -0.328125 C 0.601562 -0.316406 0.609375 -0.304688 0.609375 -0.296875 L 0.609375 -0.015625 C 0.609375 -0.00390625 0.601562 0 0.59375 0 L 0.546875 0 C 0.535156 0 0.53125 -0.00390625 0.53125 -0.015625 L 0.53125 -0.203125 L 0.171875 -0.203125 L 0.171875 -0.015625 C 0.171875 -0.00390625 0.164062 0 0.15625 0 L 0.109375 0 C 0.0976562 0 0.09375 -0.00390625 0.09375 -0.015625 L 0.09375 -0.296875 C 0.09375 -0.304688 0.09375 -0.316406 0.09375 -0.328125 L 0.234375 -0.671875 C 0.242188 -0.679688 0.25 -0.6875 0.25 -0.6875 Z M 0.53125 -0.28125 L 0.53125 -0.296875 L 0.40625 -0.609375 L 0.296875 -0.609375 L 0.171875 -0.296875 L 0.171875 -0.28125 Z M 0.53125 -0.28125 "/></g></g></g><g fill="#e7f0ff" fill-opacity="1"><g transform="translate(14.218249, 19.909377)"><g><path d="M 0.53125 -0.015625 L 0.53125 -0.296875 L 0.171875 -0.59375 L 0.171875 -0.015625 C 0.171875 -0.00390625 0.164062 0 0.15625 0 L 0.109375 0 C 0.0976562 0 0.09375 0 0.09375 0 C 0.09375 -0.0078125 0.09375 -0.015625 0.09375 -0.015625 L 0.09375 -0.671875 C 0.09375 -0.679688 0.0976562 -0.6875 0.109375 -0.6875 L 0.171875 -0.6875 C 0.179688 -0.6875 0.191406 -0.679688 0.203125 -0.671875 L 0.53125 -0.40625 L 0.53125 -0.671875 C 0.53125 -0.679688 0.535156 -0.6875 0.546875 -0.6875 L 0.59375 -0.6875 C 0.601562 -0.6875 0.609375 -0.679688 0.609375 -0.671875 L 0.609375 -0.015625 C 0.609375 -0.00390625 0.601562 0 0.59375 0 L 0.546875 0 C 0.535156 0 0.53125 -0.00390625 0.53125 -0.015625 Z M 0.53125 -0.015625 "/></g></g></g><g fill="#e7f0ff" fill-opacity="1"><g transform="translate(14.915254, 19.909377)"><g><path d="M 0.09375 -0.015625 L 0.09375 -0.671875 C 0.09375 -0.679688 0.0976562 -0.6875 0.109375 -0.6875 L 0.453125 -0.6875 C 0.472656 -0.6875 0.492188 -0.679688 0.515625 -0.671875 C 0.535156 -0.660156 0.550781 -0.648438 0.5625 -0.640625 C 0.570312 -0.628906 0.582031 -0.613281 0.59375 -0.59375 C 0.601562 -0.570312 0.609375 -0.554688 0.609375 -0.546875 L 0.609375 -0.140625 C 0.609375 -0.117188 0.601562 -0.0976562 0.59375 -0.078125 C 0.582031 -0.0664062 0.570312 -0.0507812 0.5625 -0.03125 C 0.550781 -0.0195312 0.535156 -0.0078125 0.515625 0 C 0.492188 0 0.472656 0 0.453125 0 L 0.109375 0 C 0.0976562 0 0.09375 0 0.09375 0 C 0.09375 -0.0078125 0.09375 -0.015625 0.09375 -0.015625 Z M 0.171875 -0.078125 L 0.453125 -0.078125 C 0.472656 -0.078125 0.488281 -0.0820312 0.5 -0.09375 C 0.519531 -0.101562 0.53125 -0.117188 0.53125 -0.140625 L 0.53125 -0.546875 C 0.53125 -0.554688 0.519531 -0.566406 0.5 -0.578125 C 0.488281 -0.597656 0.472656 -0.609375 0.453125 -0.609375 L 0.171875 -0.609375 Z M 0.171875 -0.078125 "/></g></g></g><g fill="#e7f0ff" fill-opacity="1"><g transform="translate(15.612259, 19.909377)"><g/></g></g><g fill="#e7f0ff" fill-opacity="1"><g transform="translate(16.308265, 19.909377)"><g><path d="M 0.3125 -0.015625 L 0.3125 -0.609375 L 0.109375 -0.609375 C 0.0976562 -0.609375 0.09375 -0.613281 0.09375 -0.625 L 0.09375 -0.671875 C 0.09375 -0.679688 0.0976562 -0.6875 0.109375 -0.6875 L 0.59375 -0.6875 C 0.601562 -0.6875 0.609375 -0.679688 0.609375 -0.671875 L 0.609375 -0.625 C 0.609375 -0.613281 0.601562 -0.609375 0.59375 -0.609375 L 0.390625 -0.609375 L 0.390625 -0.015625 C 0.390625 -0.015625 0.382812 -0.0078125 0.375 0 L 0.328125 0 C 0.316406 0 0.3125 -0.00390625 0.3125 -0.015625 Z M 0.3125 -0.015625 "/></g></g></g><g fill="#e7f0ff" fill-opacity="1"><g transform="translate(17.005271, 19.909377)"><g><path d="M 0.53125 -0.015625 L 0.53125 -0.3125 L 0.171875 -0.3125 L 0.171875 -0.015625 C 0.171875 -0.00390625 0.164062 0 0.15625 0 L 0.109375 0 C 0.0976562 0 0.09375 -0.00390625 0.09375 -0.015625 L 0.09375 -0.671875 C 0.09375 -0.679688 0.0976562 -0.6875 0.109375 -0.6875 L 0.15625 -0.6875 C 0.164062 -0.6875 0.171875 -0.679688 0.171875 -0.671875 L 0.171875 -0.375 L 0.53125 -0.375 L 0.53125 -0.671875 C 0.53125 -0.679688 0.535156 -0.6875 0.546875 -0.6875 L 0.59375 -0.6875 C 0.601562 -0.6875 0.609375 -0.679688 0.609375 -0.671875 L 0.609375 -0.015625 C 0.609375 -0.00390625 0.601562 0 0.59375 0 L 0.546875 0 C 0.535156 0 0.53125 -0.00390625 0.53125 -0.015625 Z M 0.53125 -0.015625 "/></g></g></g><g fill="#e7f0ff" fill-opacity="1"><g transform="translate(17.701276, 19.909377)"><g><path d="M 0.4375 -0.6875 C 0.445312 -0.6875 0.453125 -0.679688 0.453125 -0.671875 C 0.453125 -0.671875 0.457031 -0.671875 0.46875 -0.671875 L 0.59375 -0.328125 C 0.601562 -0.316406 0.609375 -0.304688 0.609375 -0.296875 L 0.609375 -0.015625 C 0.609375 -0.00390625 0.601562 0 0.59375 0 L 0.546875 0 C 0.535156 0 0.53125 -0.00390625 0.53125 -0.015625 L 0.53125 -0.203125 L 0.171875 -0.203125 L 0.171875 -0.015625 C 0.171875 -0.00390625 0.164062 0 0.15625 0 L 0.109375 0 C 0.0976562 0 0.09375 -0.00390625 0.09375 -0.015625 L 0.09375 -0.296875 C 0.09375 -0.304688 0.09375 -0.316406 0.09375 -0.328125 L 0.234375 -0.671875 C 0.242188 -0.679688 0.25 -0.6875 0.25 -0.6875 Z M 0.53125 -0.28125 L 0.53125 -0.296875 L 0.40625 -0.609375 L 0.296875 -0.609375 L 0.171875 -0.296875 L 0.171875 -0.28125 Z M 0.53125 -0.28125 "/></g></g></g><g fill="#e7f0ff" fill-opacity="1"><g transform="translate(18.398282, 19.909377)"><g><path d="M 0.3125 -0.015625 L 0.3125 -0.609375 L 0.109375 -0.609375 C 0.0976562 -0.609375 0.09375 -0.613281 0.09375 -0.625 L 0.09375 -0.671875 C 0.09375 -0.679688 0.0976562 -0.6875 0.109375 -0.6875 L 0.59375 -0.6875 C 0.601562 -0.6875 0.609375 -0.679688 0.609375 -0.671875 L 0.609375 -0.625 C 0.609375 -0.613281 0.601562 -0.609375 0.59375 -0.609375 L 0.390625 -0.609375 L 0.390625 -0.015625 C 0.390625 -0.015625 0.382812 -0.0078125 0.375 0 L 0.328125 0 C 0.316406 0 0.3125 -0.00390625 0.3125 -0.015625 Z M 0.3125 -0.015625 "/></g></g></g><g fill="#e7f0ff" fill-opacity="1"><g transform="translate(19.095465, 19.909377)"><g/></g></g><g fill="#e7f0ff" fill-opacity="1"><g transform="translate(30.148545, 19.909377)"><g><path d="M 0.109375 -0.015625 L 0.109375 -0.671875 C 0.109375 -0.679688 0.113281 -0.6875 0.125 -0.6875 L 0.59375 -0.6875 C 0.59375 -0.6875 0.59375 -0.679688 0.59375 -0.671875 L 0.59375 -0.625 C 0.59375 -0.613281 0.59375 -0.609375 0.59375 -0.609375 L 0.1875 -0.609375 L 0.1875 -0.375 L 0.53125 -0.375 C 0.539062 -0.375 0.546875 -0.367188 0.546875 -0.359375 L 0.546875 -0.3125 C 0.546875 -0.3125 0.539062 -0.3125 0.53125 -0.3125 L 0.1875 -0.3125 L 0.1875 -0.078125 L 0.59375 -0.078125 C 0.59375 -0.078125 0.59375 -0.0703125 0.59375 -0.0625 L 0.59375 -0.015625 C 0.59375 -0.00390625 0.59375 0 0.59375 0 L 0.125 0 C 0.113281 0 0.109375 -0.00390625 0.109375 -0.015625 Z M 0.109375 -0.015625 "/></g></g></g><g fill="#e7f0ff" fill-opacity="1"><g transform="translate(30.844551, 19.909377)"><g><path d="M 0.4375 -0.6875 C 0.445312 -0.6875 0.453125 -0.679688 0.453125 -0.671875 C 0.453125 -0.671875 0.457031 -0.671875 0.46875 -0.671875 L 0.59375 -0.328125 C 0.601562 -0.316406 0.609375 -0.304688 0.609375 -0.296875 L 0.609375 -0.015625 C 0.609375 -0.00390625 0.601562 0 0.59375 0 L 0.546875 0 C 0.535156 0 0.53125 -0.00390625 0.53125 -0.015625 L 0.53125 -0.203125 L 0.171875 -0.203125 L 0.171875 -0.015625 C 0.171875 -0.00390625 0.164062 0 0.15625 0 L 0.109375 0 C 0.0976562 0 0.09375 -0.00390625 0.09375 -0.015625 L 0.09375 -0.296875 C 0.09375 -0.304688 0.09375 -0.316406 0.09375 -0.328125 L 0.234375 -0.671875 C 0.242188 -0.679688 0.25 -0.6875 0.25 -0.6875 Z M 0.53125 -0.28125 L 0.53125 -0.296875 L 0.40625 -0.609375 L 0.296875 -0.609375 L 0.171875 -0.296875 L 0.171875 -0.28125 Z M 0.53125 -0.28125 "/></g></g></g><g fill="#e7f0ff" fill-opacity="1"><g transform="translate(31.541556, 19.909377)"><g><path d="M 0.609375 -0.5 C 0.609375 -0.488281 0.601562 -0.484375 0.59375 -0.484375 L 0.546875 -0.484375 C 0.535156 -0.484375 0.53125 -0.488281 0.53125 -0.5 L 0.53125 -0.546875 C 0.53125 -0.554688 0.519531 -0.566406 0.5 -0.578125 C 0.488281 -0.597656 0.472656 -0.609375 0.453125 -0.609375 L 0.234375 -0.609375 C 0.210938 -0.609375 0.195312 -0.597656 0.1875 -0.578125 C 0.175781 -0.566406 0.171875 -0.554688 0.171875 -0.546875 L 0.171875 -0.140625 C 0.171875 -0.117188 0.175781 -0.101562 0.1875 -0.09375 C 0.195312 -0.0820312 0.210938 -0.078125 0.234375 -0.078125 L 0.453125 -0.078125 C 0.472656 -0.078125 0.488281 -0.0820312 0.5 -0.09375 C 0.519531 -0.101562 0.53125 -0.117188 0.53125 -0.140625 L 0.53125 -0.1875 C 0.53125 -0.195312 0.53125 -0.203125 0.53125 -0.203125 C 0.53125 -0.203125 0.535156 -0.203125 0.546875 -0.203125 L 0.59375 -0.203125 C 0.601562 -0.203125 0.609375 -0.195312 0.609375 -0.1875 L 0.609375 -0.140625 C 0.609375 -0.117188 0.601562 -0.0976562 0.59375 -0.078125 C 0.582031 -0.0664062 0.570312 -0.0507812 0.5625 -0.03125 C 0.550781 -0.0195312 0.535156 -0.0078125 0.515625 0 C 0.492188 0 0.472656 0 0.453125 0 L 0.234375 0 C 0.210938 0 0.191406 0 0.171875 0 C 0.160156 -0.0078125 0.144531 -0.0195312 0.125 -0.03125 C 0.113281 -0.0507812 0.101562 -0.0664062 0.09375 -0.078125 C 0.09375 -0.0976562 0.09375 -0.117188 0.09375 -0.140625 L 0.09375 -0.546875 C 0.09375 -0.554688 0.09375 -0.570312 0.09375 -0.59375 C 0.101562 -0.613281 0.113281 -0.628906 0.125 -0.640625 C 0.144531 -0.648438 0.160156 -0.660156 0.171875 -0.671875 C 0.191406 -0.679688 0.210938 -0.6875 0.234375 -0.6875 L 0.453125 -0.6875 C 0.472656 -0.6875 0.492188 -0.679688 0.515625 -0.671875 C 0.535156 -0.660156 0.550781 -0.648438 0.5625 -0.640625 C 0.570312 -0.628906 0.582031 -0.613281 0.59375 -0.59375 C 0.601562 -0.582031 0.609375 -0.566406 0.609375 -0.546875 Z M 0.609375 -0.5 "/></g></g></g><g fill="#e7f0ff" fill-opacity="1"><g transform="translate(32.238562, 19.909377)"><g><path d="M 0.53125 -0.015625 L 0.53125 -0.3125 L 0.171875 -0.3125 L 0.171875 -0.015625 C 0.171875 -0.00390625 0.164062 0 0.15625 0 L 0.109375 0 C 0.0976562 0 0.09375 -0.00390625 0.09375 -0.015625 L 0.09375 -0.671875 C 0.09375 -0.679688 0.0976562 -0.6875 0.109375 -0.6875 L 0.15625 -0.6875 C 0.164062 -0.6875 0.171875 -0.679688 0.171875 -0.671875 L 0.171875 -0.375 L 0.53125 -0.375 L 0.53125 -0.671875 C 0.53125 -0.679688 0.535156 -0.6875 0.546875 -0.6875 L 0.59375 -0.6875 C 0.601562 -0.6875 0.609375 -0.679688 0.609375 -0.671875 L 0.609375 -0.015625 C 0.609375 -0.00390625 0.601562 0 0.59375 0 L 0.546875 0 C 0.535156 0 0.53125 -0.00390625 0.53125 -0.015625 Z M 0.53125 -0.015625 "/></g></g></g><g fill="#e7f0ff" fill-opacity="1"><g transform="translate(32.934568, 19.909377)"><g/></g></g><g fill="#e7f0ff" fill-opacity="1"><g transform="translate(33.630574, 19.909377)"><g><path d="M 0.09375 -0.015625 L 0.09375 -0.671875 C 0.09375 -0.679688 0.0976562 -0.6875 0.109375 -0.6875 L 0.453125 -0.6875 C 0.472656 -0.6875 0.492188 -0.679688 0.515625 -0.671875 C 0.535156 -0.660156 0.550781 -0.648438 0.5625 -0.640625 C 0.570312 -0.628906 0.582031 -0.613281 0.59375 -0.59375 C 0.601562 -0.570312 0.609375 -0.554688 0.609375 -0.546875 L 0.609375 -0.453125 C 0.609375 -0.429688 0.601562 -0.410156 0.59375 -0.390625 C 0.582031 -0.367188 0.570312 -0.351562 0.5625 -0.34375 C 0.550781 -0.332031 0.535156 -0.320312 0.515625 -0.3125 C 0.492188 -0.3125 0.472656 -0.3125 0.453125 -0.3125 L 0.171875 -0.3125 L 0.171875 -0.015625 C 0.171875 -0.00390625 0.164062 0 0.15625 0 L 0.109375 0 C 0.0976562 0 0.09375 0 0.09375 0 C 0.09375 -0.0078125 0.09375 -0.015625 0.09375 -0.015625 Z M 0.171875 -0.375 L 0.453125 -0.375 C 0.472656 -0.375 0.488281 -0.378906 0.5 -0.390625 C 0.519531 -0.410156 0.53125 -0.429688 0.53125 -0.453125 L 0.53125 -0.546875 C 0.53125 -0.554688 0.519531 -0.566406 0.5 -0.578125 C 0.488281 -0.597656 0.472656 -0.609375 0.453125 -0.609375 L 0.171875 -0.609375 Z M 0.171875 -0.375 "/></g></g></g><g fill="#e7f0ff" fill-opacity="1"><g transform="translate(34.327579, 19.909377)"><g><path d="M 0.109375 -0.015625 L 0.109375 -0.671875 C 0.109375 -0.679688 0.113281 -0.6875 0.125 -0.6875 L 0.59375 -0.6875 C 0.59375 -0.6875 0.59375 -0.679688 0.59375 -0.671875 L 0.59375 -0.625 C 0.59375 -0.613281 0.59375 -0.609375 0.59375 -0.609375 L 0.1875 -0.609375 L 0.1875 -0.375 L 0.53125 -0.375 C 0.539062 -0.375 0.546875 -0.367188 0.546875 -0.359375 L 0.546875 -0.3125 C 0.546875 -0.3125 0.539062 -0.3125 0.53125 -0.3125 L 0.1875 -0.3125 L 0.1875 -0.078125 L 0.59375 -0.078125 C 0.59375 -0.078125 0.59375 -0.0703125 0.59375 -0.0625 L 0.59375 -0.015625 C 0.59375 -0.00390625 0.59375 0 0.59375 0 L 0.125 0 C 0.113281 0 0.109375 -0.00390625 0.109375 -0.015625 Z M 0.109375 -0.015625 "/></g></g></g><g fill="#e7f0ff" fill-opacity="1"><g transform="translate(35.023585, 19.909377)"><g><path d="M 0.515625 -0.015625 L 0.375 -0.3125 L 0.171875 -0.3125 L 0.171875 -0.015625 C 0.171875 -0.00390625 0.164062 0 0.15625 0 L 0.109375 0 C 0.0976562 0 0.09375 -0.00390625 0.09375 -0.015625 L 0.09375 -0.671875 C 0.09375 -0.679688 0.0976562 -0.6875 0.109375 -0.6875 L 0.453125 -0.6875 C 0.472656 -0.6875 0.492188 -0.679688 0.515625 -0.671875 C 0.535156 -0.660156 0.550781 -0.648438 0.5625 -0.640625 C 0.570312 -0.628906 0.582031 -0.613281 0.59375 -0.59375 C 0.601562 -0.570312 0.609375 -0.554688 0.609375 -0.546875 L 0.609375 -0.453125 C 0.609375 -0.421875 0.597656 -0.390625 0.578125 -0.359375 C 0.554688 -0.335938 0.53125 -0.320312 0.5 -0.3125 L 0.46875 -0.296875 L 0.59375 -0.015625 C 0.59375 -0.015625 0.59375 -0.0078125 0.59375 0 L 0.53125 0 C 0.53125 0 0.523438 0 0.515625 0 C 0.515625 -0.0078125 0.515625 -0.015625 0.515625 -0.015625 Z M 0.171875 -0.375 L 0.453125 -0.375 C 0.472656 -0.375 0.488281 -0.378906 0.5 -0.390625 C 0.519531 -0.410156 0.53125 -0.429688 0.53125 -0.453125 L 0.53125 -0.546875 C 0.53125 -0.554688 0.519531 -0.566406 0.5 -0.578125 C 0.488281 -0.597656 0.472656 -0.609375 0.453125 -0.609375 L 0.171875 -0.609375 Z M 0.171875 -0.375 "/></g></g></g><g fill="#e7f0ff" fill-opacity="1"><g transform="translate(35.72059, 19.909377)"><g><path d="M 0.09375 -0.140625 L 0.09375 -0.1875 C 0.09375 -0.195312 0.09375 -0.203125 0.09375 -0.203125 C 0.09375 -0.203125 0.0976562 -0.203125 0.109375 -0.203125 L 0.15625 -0.203125 C 0.164062 -0.203125 0.171875 -0.195312 0.171875 -0.1875 L 0.171875 -0.140625 C 0.171875 -0.117188 0.175781 -0.101562 0.1875 -0.09375 C 0.195312 -0.0820312 0.210938 -0.078125 0.234375 -0.078125 L 0.453125 -0.078125 C 0.472656 -0.078125 0.488281 -0.0820312 0.5 -0.09375 C 0.519531 -0.101562 0.53125 -0.117188 0.53125 -0.140625 L 0.53125 -0.234375 C 0.53125 -0.253906 0.519531 -0.269531 0.5 -0.28125 C 0.488281 -0.300781 0.472656 -0.3125 0.453125 -0.3125 L 0.234375 -0.3125 C 0.210938 -0.3125 0.191406 -0.3125 0.171875 -0.3125 C 0.160156 -0.320312 0.144531 -0.332031 0.125 -0.34375 C 0.113281 -0.351562 0.101562 -0.367188 0.09375 -0.390625 C 0.09375 -0.410156 0.09375 -0.429688 0.09375 -0.453125 L 0.09375 -0.546875 C 0.09375 -0.554688 0.09375 -0.570312 0.09375 -0.59375 C 0.101562 -0.613281 0.113281 -0.628906 0.125 -0.640625 C 0.144531 -0.648438 0.160156 -0.660156 0.171875 -0.671875 C 0.191406 -0.679688 0.210938 -0.6875 0.234375 -0.6875 L 0.453125 -0.6875 C 0.472656 -0.6875 0.492188 -0.679688 0.515625 -0.671875 C 0.535156 -0.660156 0.550781 -0.648438 0.5625 -0.640625 C 0.570312 -0.628906 0.582031 -0.613281 0.59375 -0.59375 C 0.601562 -0.570312 0.609375 -0.554688 0.609375 -0.546875 L 0.609375 -0.5 C 0.609375 -0.488281 0.601562 -0.484375 0.59375 -0.484375 L 0.546875 -0.484375 C 0.535156 -0.484375 0.53125 -0.488281 0.53125 -0.5 L 0.53125 -0.546875 C 0.53125 -0.554688 0.519531 -0.566406 0.5 -0.578125 C 0.488281 -0.597656 0.472656 -0.609375 0.453125 -0.609375 L 0.234375 -0.609375 C 0.210938 -0.609375 0.195312 -0.597656 0.1875 -0.578125 C 0.175781 -0.566406 0.171875 -0.554688 0.171875 -0.546875 L 0.171875 -0.453125 C 0.171875 -0.429688 0.175781 -0.410156 0.1875 -0.390625 C 0.195312 -0.378906 0.210938 -0.375 0.234375 -0.375 L 0.453125 -0.375 C 0.472656 -0.375 0.492188 -0.367188 0.515625 -0.359375 C 0.535156 -0.359375 0.550781 -0.347656 0.5625 -0.328125 C 0.570312 -0.316406 0.582031 -0.300781 0.59375 -0.28125 C 0.601562 -0.269531 0.609375 -0.253906 0.609375 -0.234375 L 0.609375 -0.140625 C 0.609375 -0.117188 0.601562 -0.0976562 0.59375 -0.078125 C 0.582031 -0.0664062 0.570312 -0.0507812 0.5625 -0.03125 C 0.550781 -0.0195312 0.535156 -0.0078125 0.515625 0 C 0.492188 0 0.472656 0 0.453125 0 L 0.234375 0 C 0.210938 0 0.191406 0 0.171875 0 C 0.160156 -0.0078125 0.144531 -0.0195312 0.125 -0.03125 C 0.113281 -0.0507812 0.101562 -0.0664062 0.09375 -0.078125 C 0.09375 -0.0976562 0.09375 -0.117188 0.09375 -0.140625 Z M 0.09375 -0.140625 "/></g></g></g><g fill="#e7f0ff" fill-opacity="1"><g transform="translate(36.417596, 19.909377)"><g><path d="M 0.234375 0 C 0.210938 0 0.191406 0 0.171875 0 C 0.160156 -0.0078125 0.144531 -0.0195312 0.125 -0.03125 C 0.113281 -0.0507812 0.101562 -0.0664062 0.09375 -0.078125 C 0.09375 -0.0976562 0.09375 -0.117188 0.09375 -0.140625 L 0.09375 -0.546875 C 0.09375 -0.554688 0.09375 -0.570312 0.09375 -0.59375 C 0.101562 -0.613281 0.113281 -0.628906 0.125 -0.640625 C 0.144531 -0.648438 0.160156 -0.660156 0.171875 -0.671875 C 0.191406 -0.679688 0.210938 -0.6875 0.234375 -0.6875 L 0.453125 -0.6875 C 0.472656 -0.6875 0.492188 -0.679688 0.515625 -0.671875 C 0.535156 -0.660156 0.550781 -0.648438 0.5625 -0.640625 C 0.570312 -0.628906 0.582031 -0.613281 0.59375 -0.59375 C 0.601562 -0.570312 0.609375 -0.554688 0.609375 -0.546875 L 0.609375 -0.140625 C 0.609375 -0.117188 0.601562 -0.0976562 0.59375 -0.078125 C 0.582031 -0.0664062 0.570312 -0.0507812 0.5625 -0.03125 C 0.550781 -0.0195312 0.535156 -0.0078125 0.515625 0 C 0.492188 0 0.472656 0 0.453125 0 Z M 0.234375 -0.609375 C 0.210938 -0.609375 0.195312 -0.597656 0.1875 -0.578125 C 0.175781 -0.566406 0.171875 -0.554688 0.171875 -0.546875 L 0.171875 -0.140625 C 0.171875 -0.117188 0.175781 -0.101562 0.1875 -0.09375 C 0.195312 -0.0820312 0.210938 -0.078125 0.234375 -0.078125 L 0.453125 -0.078125 C 0.472656 -0.078125 0.488281 -0.0820312 0.5 -0.09375 C 0.519531 -0.101562 0.53125 -0.117188 0.53125 -0.140625 L 0.53125 -0.546875 C 0.53125 -0.554688 0.519531 -0.566406 0.5 -0.578125 C 0.488281 -0.597656 0.472656 -0.609375 0.453125 -0.609375 Z M 0.234375 -0.609375 "/></g></g></g><g fill="#e7f0ff" fill-opacity="1"><g transform="translate(37.114601, 19.909377)"><g><path d="M 0.53125 -0.015625 L 0.53125 -0.296875 L 0.171875 -0.59375 L 0.171875 -0.015625 C 0.171875 -0.00390625 0.164062 0 0.15625 0 L 0.109375 0 C 0.0976562 0 0.09375 0 0.09375 0 C 0.09375 -0.0078125 0.09375 -0.015625 0.09375 -0.015625 L 0.09375 -0.671875 C 0.09375 -0.679688 0.0976562 -0.6875 0.109375 -0.6875 L 0.171875 -0.6875 C 0.179688 -0.6875 0.191406 -0.679688 0.203125 -0.671875 L 0.53125 -0.40625 L 0.53125 -0.671875 C 0.53125 -0.679688 0.535156 -0.6875 0.546875 -0.6875 L 0.59375 -0.6875 C 0.601562 -0.6875 0.609375 -0.679688 0.609375 -0.671875 L 0.609375 -0.015625 C 0.609375 -0.00390625 0.601562 0 0.59375 0 L 0.546875 0 C 0.535156 0 0.53125 -0.00390625 0.53125 -0.015625 Z M 0.53125 -0.015625 "/></g></g></g><g fill="#e7f0ff" fill-opacity="1"><g transform="translate(48.61209, 19.909377)"><g><path d="M 0.546875 -0.671875 C 0.554688 -0.679688 0.5625 -0.6875 0.5625 -0.6875 L 0.609375 -0.6875 C 0.617188 -0.6875 0.625 -0.679688 0.625 -0.671875 L 0.578125 -0.015625 C 0.578125 -0.015625 0.570312 -0.0078125 0.5625 0 L 0.5 0 C 0.488281 0 0.484375 -0.00390625 0.484375 -0.015625 L 0.34375 -0.234375 L 0.21875 -0.015625 C 0.21875 -0.00390625 0.210938 0 0.203125 0 L 0.140625 0 C 0.128906 0 0.125 0 0.125 0 C 0.125 -0.0078125 0.125 -0.015625 0.125 -0.015625 L 0.0625 -0.671875 C 0.0703125 -0.679688 0.078125 -0.6875 0.078125 -0.6875 L 0.125 -0.6875 C 0.132812 -0.6875 0.140625 -0.679688 0.140625 -0.671875 L 0.1875 -0.09375 L 0.3125 -0.3125 C 0.3125 -0.320312 0.316406 -0.328125 0.328125 -0.328125 L 0.375 -0.328125 C 0.382812 -0.328125 0.390625 -0.320312 0.390625 -0.3125 L 0.515625 -0.09375 Z M 0.546875 -0.671875 "/></g></g></g><g fill="#e7f0ff" fill-opacity="1"><g transform="translate(49.309095, 19.909377)"><g><path d="M 0.109375 -0.015625 L 0.109375 -0.0625 C 0.109375 -0.0703125 0.113281 -0.078125 0.125 -0.078125 L 0.3125 -0.078125 L 0.3125 -0.609375 L 0.125 -0.609375 C 0.113281 -0.609375 0.109375 -0.613281 0.109375 -0.625 L 0.109375 -0.671875 C 0.109375 -0.679688 0.113281 -0.6875 0.125 -0.6875 L 0.578125 -0.6875 C 0.585938 -0.6875 0.59375 -0.679688 0.59375 -0.671875 L 0.59375 -0.625 C 0.59375 -0.613281 0.585938 -0.609375 0.578125 -0.609375 L 0.390625 -0.609375 L 0.390625 -0.078125 L 0.578125 -0.078125 C 0.578125 -0.078125 0.578125 -0.0703125 0.578125 -0.0625 C 0.585938 -0.0625 0.59375 -0.0625 0.59375 -0.0625 L 0.59375 -0.015625 C 0.59375 -0.00390625 0.585938 0 0.578125 0 L 0.125 0 C 0.113281 0 0.109375 -0.00390625 0.109375 -0.015625 Z M 0.109375 -0.015625 "/></g></g></g><g fill="#e7f0ff" fill-opacity="1"><g transform="translate(50.006101, 19.909377)"><g><path d="M 0.125 -0.6875 L 0.1875 -0.6875 C 0.1875 -0.6875 0.1875 -0.679688 0.1875 -0.671875 L 0.1875 -0.078125 L 0.578125 -0.078125 C 0.585938 -0.078125 0.59375 -0.0703125 0.59375 -0.0625 L 0.59375 -0.015625 C 0.59375 -0.00390625 0.585938 0 0.578125 0 L 0.125 0 C 0.125 -0.0078125 0.125 -0.015625 0.125 -0.015625 L 0.125 -0.671875 C 0.125 -0.679688 0.125 -0.6875 0.125 -0.6875 Z M 0.125 -0.6875 "/></g></g></g><g fill="#e7f0ff" fill-opacity="1"><g transform="translate(50.703106, 19.909377)"><g><path d="M 0.125 -0.6875 L 0.1875 -0.6875 C 0.1875 -0.6875 0.1875 -0.679688 0.1875 -0.671875 L 0.1875 -0.078125 L 0.578125 -0.078125 C 0.585938 -0.078125 0.59375 -0.0703125 0.59375 -0.0625 L 0.59375 -0.015625 C 0.59375 -0.00390625 0.585938 0 0.578125 0 L 0.125 0 C 0.125 -0.0078125 0.125 -0.015625 0.125 -0.015625 L 0.125 -0.671875 C 0.125 -0.679688 0.125 -0.6875 0.125 -0.6875 Z M 0.125 -0.6875 "/></g></g></g><g fill="#e7f0ff" fill-opacity="1"><g transform="translate(51.400112, 19.909377)"><g/></g></g><g fill="#e7f0ff" fill-opacity="1"><g transform="translate(52.096117, 19.909377)"><g><path d="M 0.234375 0 C 0.210938 0 0.191406 0 0.171875 0 C 0.160156 -0.0078125 0.144531 -0.0195312 0.125 -0.03125 C 0.113281 -0.0507812 0.101562 -0.0664062 0.09375 -0.078125 C 0.09375 -0.0976562 0.09375 -0.117188 0.09375 -0.140625 L 0.09375 -0.546875 C 0.09375 -0.554688 0.09375 -0.570312 0.09375 -0.59375 C 0.101562 -0.613281 0.113281 -0.628906 0.125 -0.640625 C 0.144531 -0.648438 0.160156 -0.660156 0.171875 -0.671875 C 0.191406 -0.679688 0.210938 -0.6875 0.234375 -0.6875 L 0.453125 -0.6875 C 0.472656 -0.6875 0.492188 -0.679688 0.515625 -0.671875 C 0.535156 -0.660156 0.550781 -0.648438 0.5625 -0.640625 C 0.570312 -0.628906 0.582031 -0.613281 0.59375 -0.59375 C 0.601562 -0.570312 0.609375 -0.554688 0.609375 -0.546875 L 0.609375 -0.140625 C 0.609375 -0.117188 0.601562 -0.0976562 0.59375 -0.078125 C 0.582031 -0.0664062 0.570312 -0.0507812 0.5625 -0.03125 C 0.550781 -0.0195312 0.535156 -0.0078125 0.515625 0 C 0.492188 0 0.472656 0 0.453125 0 Z M 0.234375 -0.609375 C 0.210938 -0.609375 0.195312 -0.597656 0.1875 -0.578125 C 0.175781 -0.566406 0.171875 -0.554688 0.171875 -0.546875 L 0.171875 -0.140625 C 0.171875 -0.117188 0.175781 -0.101562 0.1875 -0.09375 C 0.195312 -0.0820312 0.210938 -0.078125 0.234375 -0.078125 L 0.453125 -0.078125 C 0.472656 -0.078125 0.488281 -0.0820312 0.5 -0.09375 C 0.519531 -0.101562 0.53125 -0.117188 0.53125 -0.140625 L 0.53125 -0.546875 C 0.53125 -0.554688 0.519531 -0.566406 0.5 -0.578125 C 0.488281 -0.597656 0.472656 -0.609375 0.453125 -0.609375 Z M 0.234375 -0.609375 "/></g></g></g><g fill="#e7f0ff" fill-opacity="1"><g transform="translate(52.793123, 19.909377)"><g><path d="M 0.53125 -0.015625 L 0.53125 -0.296875 L 0.171875 -0.59375 L 0.171875 -0.015625 C 0.171875 -0.00390625 0.164062 0 0.15625 0 L 0.109375 0 C 0.0976562 0 0.09375 0 0.09375 0 C 0.09375 -0.0078125 0.09375 -0.015625 0.09375 -0.015625 L 0.09375 -0.671875 C 0.09375 -0.679688 0.0976562 -0.6875 0.109375 -0.6875 L 0.171875 -0.6875 C 0.179688 -0.6875 0.191406 -0.679688 0.203125 -0.671875 L 0.53125 -0.40625 L 0.53125 -0.671875 C 0.53125 -0.679688 0.535156 -0.6875 0.546875 -0.6875 L 0.59375 -0.6875 C 0.601562 -0.6875 0.609375 -0.679688 0.609375 -0.671875 L 0.609375 -0.015625 C 0.609375 -0.00390625 0.601562 0 0.59375 0 L 0.546875 0 C 0.535156 0 0.53125 -0.00390625 0.53125 -0.015625 Z M 0.53125 -0.015625 "/></g></g></g><g fill="#e7f0ff" fill-opacity="1"><g transform="translate(53.490128, 19.909377)"><g><path d="M 0.125 -0.6875 L 0.1875 -0.6875 C 0.1875 -0.6875 0.1875 -0.679688 0.1875 -0.671875 L 0.1875 -0.078125 L 0.578125 -0.078125 C 0.585938 -0.078125 0.59375 -0.0703125 0.59375 -0.0625 L 0.59375 -0.015625 C 0.59375 -0.00390625 0.585938 0 0.578125 0 L 0.125 0 C 0.125 -0.0078125 0.125 -0.015625 0.125 -0.015625 L 0.125 -0.671875 C 0.125 -0.679688 0.125 -0.6875 0.125 -0.6875 Z M 0.125 -0.6875 "/></g></g></g><g fill="#e7f0ff" fill-opacity="1"><g transform="translate(54.187133, 19.909377)"><g><path d="M 0.09375 -0.484375 C 0.09375 -0.492188 0.09375 -0.5 0.09375 -0.5 C 0.09375 -0.507812 0.09375 -0.515625 0.09375 -0.515625 L 0.09375 -0.671875 C 0.09375 -0.679688 0.0976562 -0.6875 0.109375 -0.6875 L 0.15625 -0.6875 C 0.15625 -0.6875 0.15625 -0.679688 0.15625 -0.671875 C 0.164062 -0.671875 0.171875 -0.671875 0.171875 -0.671875 L 0.171875 -0.546875 C 0.171875 -0.535156 0.171875 -0.53125 0.171875 -0.53125 C 0.171875 -0.53125 0.171875 -0.523438 0.171875 -0.515625 L 0.34375 -0.359375 L 0.515625 -0.515625 C 0.523438 -0.523438 0.53125 -0.53125 0.53125 -0.53125 C 0.53125 -0.53125 0.53125 -0.535156 0.53125 -0.546875 L 0.53125 -0.671875 C 0.53125 -0.679688 0.535156 -0.6875 0.546875 -0.6875 L 0.59375 -0.6875 C 0.59375 -0.6875 0.59375 -0.679688 0.59375 -0.671875 C 0.601562 -0.671875 0.609375 -0.671875 0.609375 -0.671875 L 0.609375 -0.515625 C 0.609375 -0.515625 0.601562 -0.507812 0.59375 -0.5 C 0.59375 -0.5 0.59375 -0.492188 0.59375 -0.484375 L 0.390625 -0.28125 L 0.390625 -0.015625 C 0.390625 -0.015625 0.382812 -0.0078125 0.375 0 L 0.328125 0 C 0.316406 0 0.3125 -0.00390625 0.3125 -0.015625 L 0.3125 -0.28125 Z M 0.09375 -0.484375 "/></g></g></g><g fill="#e7f0ff" fill-opacity="1"><g transform="translate(54.883139, 19.909377)"><g/></g></g><g fill="#e7f0ff" fill-opacity="1"><g transform="translate(55.579145, 19.909377)"><g><path d="M 0.53125 -0.015625 L 0.53125 -0.3125 L 0.171875 -0.3125 L 0.171875 -0.015625 C 0.171875 -0.00390625 0.164062 0 0.15625 0 L 0.109375 0 C 0.0976562 0 0.09375 -0.00390625 0.09375 -0.015625 L 0.09375 -0.671875 C 0.09375 -0.679688 0.0976562 -0.6875 0.109375 -0.6875 L 0.15625 -0.6875 C 0.164062 -0.6875 0.171875 -0.679688 0.171875 -0.671875 L 0.171875 -0.375 L 0.53125 -0.375 L 0.53125 -0.671875 C 0.53125 -0.679688 0.535156 -0.6875 0.546875 -0.6875 L 0.59375 -0.6875 C 0.601562 -0.6875 0.609375 -0.679688 0.609375 -0.671875 L 0.609375 -0.015625 C 0.609375 -0.00390625 0.601562 0 0.59375 0 L 0.546875 0 C 0.535156 0 0.53125 -0.00390625 0.53125 -0.015625 Z M 0.53125 -0.015625 "/></g></g></g><g fill="#e7f0ff" fill-opacity="1"><g transform="translate(56.275151, 19.909377)"><g><path d="M 0.4375 -0.6875 C 0.445312 -0.6875 0.453125 -0.679688 0.453125 -0.671875 C 0.453125 -0.671875 0.457031 -0.671875 0.46875 -0.671875 L 0.59375 -0.328125 C 0.601562 -0.316406 0.609375 -0.304688 0.609375 -0.296875 L 0.609375 -0.015625 C 0.609375 -0.00390625 0.601562 0 0.59375 0 L 0.546875 0 C 0.535156 0 0.53125 -0.00390625 0.53125 -0.015625 L 0.53125 -0.203125 L 0.171875 -0.203125 L 0.171875 -0.015625 C 0.171875 -0.00390625 0.164062 0 0.15625 0 L 0.109375 0 C 0.0976562 0 0.09375 -0.00390625 0.09375 -0.015625 L 0.09375 -0.296875 C 0.09375 -0.304688 0.09375 -0.316406 0.09375 -0.328125 L 0.234375 -0.671875 C 0.242188 -0.679688 0.25 -0.6875 0.25 -0.6875 Z M 0.53125 -0.28125 L 0.53125 -0.296875 L 0.40625 -0.609375 L 0.296875 -0.609375 L 0.171875 -0.296875 L 0.171875 -0.28125 Z M 0.53125 -0.28125 "/></g></g></g><g fill="#e7f0ff" fill-opacity="1"><g transform="translate(56.972157, 19.909377)"><g><path d="M 0.234375 -0.015625 L 0.09375 -0.359375 C 0.09375 -0.367188 0.09375 -0.378906 0.09375 -0.390625 L 0.09375 -0.671875 C 0.09375 -0.679688 0.0976562 -0.6875 0.109375 -0.6875 L 0.15625 -0.6875 C 0.164062 -0.6875 0.171875 -0.679688 0.171875 -0.671875 L 0.171875 -0.40625 C 0.171875 -0.394531 0.171875 -0.382812 0.171875 -0.375 L 0.296875 -0.078125 L 0.40625 -0.078125 L 0.53125 -0.375 C 0.53125 -0.382812 0.53125 -0.394531 0.53125 -0.40625 L 0.53125 -0.671875 C 0.53125 -0.679688 0.535156 -0.6875 0.546875 -0.6875 L 0.59375 -0.6875 C 0.601562 -0.6875 0.609375 -0.679688 0.609375 -0.671875 L 0.609375 -0.390625 C 0.609375 -0.378906 0.609375 -0.367188 0.609375 -0.359375 C 0.609375 -0.359375 0.601562 -0.359375 0.59375 -0.359375 L 0.46875 -0.015625 C 0.457031 -0.015625 0.453125 -0.0078125 0.453125 0 C 0.453125 0 0.445312 0 0.4375 0 L 0.25 0 C 0.25 0 0.242188 0 0.234375 0 C 0.234375 -0.0078125 0.234375 -0.015625 0.234375 -0.015625 Z M 0.234375 -0.015625 "/></g></g></g><g fill="#e7f0ff" fill-opacity="1"><g transform="translate(57.668162, 19.909377)"><g><path d="M 0.109375 -0.015625 L 0.109375 -0.671875 C 0.109375 -0.679688 0.113281 -0.6875 0.125 -0.6875 L 0.59375 -0.6875 C 0.59375 -0.6875 0.59375 -0.679688 0.59375 -0.671875 L 0.59375 -0.625 C 0.59375 -0.613281 0.59375 -0.609375 0.59375 -0.609375 L 0.1875 -0.609375 L 0.1875 -0.375 L 0.53125 -0.375 C 0.539062 -0.375 0.546875 -0.367188 0.546875 -0.359375 L 0.546875 -0.3125 C 0.546875 -0.3125 0.539062 -0.3125 0.53125 -0.3125 L 0.1875 -0.3125 L 0.1875 -0.078125 L 0.59375 -0.078125 C 0.59375 -0.078125 0.59375 -0.0703125 0.59375 -0.0625 L 0.59375 -0.015625 C 0.59375 -0.00390625 0.59375 0 0.59375 0 L 0.125 0 C 0.113281 0 0.109375 -0.00390625 0.109375 -0.015625 Z M 0.109375 -0.015625 "/></g></g></g><g fill="#e7f0ff" fill-opacity="1"><g transform="translate(8.367502, 52.818052)"><g><path d="M 0.546875 -0.671875 C 0.554688 -0.679688 0.5625 -0.6875 0.5625 -0.6875 L 0.609375 -0.6875 C 0.617188 -0.6875 0.625 -0.679688 0.625 -0.671875 L 0.578125 -0.015625 C 0.578125 -0.015625 0.570312 -0.0078125 0.5625 0 L 0.5 0 C 0.488281 0 0.484375 -0.00390625 0.484375 -0.015625 L 0.34375 -0.234375 L 0.21875 -0.015625 C 0.21875 -0.00390625 0.210938 0 0.203125 0 L 0.140625 0 C 0.128906 0 0.125 0 0.125 0 C 0.125 -0.0078125 0.125 -0.015625 0.125 -0.015625 L 0.0625 -0.671875 C 0.0703125 -0.679688 0.078125 -0.6875 0.078125 -0.6875 L 0.125 -0.6875 C 0.132812 -0.6875 0.140625 -0.679688 0.140625 -0.671875 L 0.1875 -0.09375 L 0.3125 -0.3125 C 0.3125 -0.320312 0.316406 -0.328125 0.328125 -0.328125 L 0.375 -0.328125 C 0.382812 -0.328125 0.390625 -0.320312 0.390625 -0.3125 L 0.515625 -0.09375 Z M 0.546875 -0.671875 "/></g></g></g><g fill="#e7f0ff" fill-opacity="1"><g transform="translate(9.064507, 52.818052)"><g><path d="M 0.53125 -0.015625 L 0.53125 -0.3125 L 0.171875 -0.3125 L 0.171875 -0.015625 C 0.171875 -0.00390625 0.164062 0 0.15625 0 L 0.109375 0 C 0.0976562 0 0.09375 -0.00390625 0.09375 -0.015625 L 0.09375 -0.671875 C 0.09375 -0.679688 0.0976562 -0.6875 0.109375 -0.6875 L 0.15625 -0.6875 C 0.164062 -0.6875 0.171875 -0.679688 0.171875 -0.671875 L 0.171875 -0.375 L 0.53125 -0.375 L 0.53125 -0.671875 C 0.53125 -0.679688 0.535156 -0.6875 0.546875 -0.6875 L 0.59375 -0.6875 C 0.601562 -0.6875 0.609375 -0.679688 0.609375 -0.671875 L 0.609375 -0.015625 C 0.609375 -0.00390625 0.601562 0 0.59375 0 L 0.546875 0 C 0.535156 0 0.53125 -0.00390625 0.53125 -0.015625 Z M 0.53125 -0.015625 "/></g></g></g><g fill="#e7f0ff" fill-opacity="1"><g transform="translate(9.760513, 52.818052)"><g><path d="M 0.4375 -0.6875 C 0.445312 -0.6875 0.453125 -0.679688 0.453125 -0.671875 C 0.453125 -0.671875 0.457031 -0.671875 0.46875 -0.671875 L 0.59375 -0.328125 C 0.601562 -0.316406 0.609375 -0.304688 0.609375 -0.296875 L 0.609375 -0.015625 C 0.609375 -0.00390625 0.601562 0 0.59375 0 L 0.546875 0 C 0.535156 0 0.53125 -0.00390625 0.53125 -0.015625 L 0.53125 -0.203125 L 0.171875 -0.203125 L 0.171875 -0.015625 C 0.171875 -0.00390625 0.164062 0 0.15625 0 L 0.109375 0 C 0.0976562 0 0.09375 -0.00390625 0.09375 -0.015625 L 0.09375 -0.296875 C 0.09375 -0.304688 0.09375 -0.316406 0.09375 -0.328125 L 0.234375 -0.671875 C 0.242188 -0.679688 0.25 -0.6875 0.25 -0.6875 Z M 0.53125 -0.28125 L 0.53125 -0.296875 L 0.40625 -0.609375 L 0.296875 -0.609375 L 0.171875 -0.296875 L 0.171875 -0.28125 Z M 0.53125 -0.28125 "/></g></g></g><g fill="#e7f0ff" fill-opacity="1"><g transform="translate(10.457519, 52.818052)"><g><path d="M 0.3125 -0.015625 L 0.3125 -0.609375 L 0.109375 -0.609375 C 0.0976562 -0.609375 0.09375 -0.613281 0.09375 -0.625 L 0.09375 -0.671875 C 0.09375 -0.679688 0.0976562 -0.6875 0.109375 -0.6875 L 0.59375 -0.6875 C 0.601562 -0.6875 0.609375 -0.679688 0.609375 -0.671875 L 0.609375 -0.625 C 0.609375 -0.613281 0.601562 -0.609375 0.59375 -0.609375 L 0.390625 -0.609375 L 0.390625 -0.015625 C 0.390625 -0.015625 0.382812 -0.0078125 0.375 0 L 0.328125 0 C 0.316406 0 0.3125 -0.00390625 0.3125 -0.015625 Z M 0.3125 -0.015625 "/></g></g></g><g fill="#e7f0ff" fill-opacity="1"><g transform="translate(11.154524, 52.818052)"><g/></g></g><g fill="#e7f0ff" fill-opacity="1"><g transform="translate(11.85053, 52.818052)"><g><path d="M 0.3125 -0.015625 L 0.3125 -0.609375 L 0.109375 -0.609375 C 0.0976562 -0.609375 0.09375 -0.613281 0.09375 -0.625 L 0.09375 -0.671875 C 0.09375 -0.679688 0.0976562 -0.6875 0.109375 -0.6875 L 0.59375 -0.6875 C 0.601562 -0.6875 0.609375 -0.679688 0.609375 -0.671875 L 0.609375 -0.625 C 0.609375 -0.613281 0.601562 -0.609375 0.59375 -0.609375 L 0.390625 -0.609375 L 0.390625 -0.015625 C 0.390625 -0.015625 0.382812 -0.0078125 0.375 0 L 0.328125 0 C 0.316406 0 0.3125 -0.00390625 0.3125 -0.015625 Z M 0.3125 -0.015625 "/></g></g></g><g fill="#e7f0ff" fill-opacity="1"><g transform="translate(12.547535, 52.818052)"><g><path d="M 0.53125 -0.015625 L 0.53125 -0.3125 L 0.171875 -0.3125 L 0.171875 -0.015625 C 0.171875 -0.00390625 0.164062 0 0.15625 0 L 0.109375 0 C 0.0976562 0 0.09375 -0.00390625 0.09375 -0.015625 L 0.09375 -0.671875 C 0.09375 -0.679688 0.0976562 -0.6875 0.109375 -0.6875 L 0.15625 -0.6875 C 0.164062 -0.6875 0.171875 -0.679688 0.171875 -0.671875 L 0.171875 -0.375 L 0.53125 -0.375 L 0.53125 -0.671875 C 0.53125 -0.679688 0.535156 -0.6875 0.546875 -0.6875 L 0.59375 -0.6875 C 0.601562 -0.6875 0.609375 -0.679688 0.609375 -0.671875 L 0.609375 -0.015625 C 0.609375 -0.00390625 0.601562 0 0.59375 0 L 0.546875 0 C 0.535156 0 0.53125 -0.00390625 0.53125 -0.015625 Z M 0.53125 -0.015625 "/></g></g></g><g fill="#e7f0ff" fill-opacity="1"><g transform="translate(13.243541, 52.818052)"><g><path d="M 0.109375 -0.015625 L 0.109375 -0.671875 C 0.109375 -0.679688 0.113281 -0.6875 0.125 -0.6875 L 0.59375 -0.6875 C 0.59375 -0.6875 0.59375 -0.679688 0.59375 -0.671875 L 0.59375 -0.625 C 0.59375 -0.613281 0.59375 -0.609375 0.59375 -0.609375 L 0.1875 -0.609375 L 0.1875 -0.375 L 0.53125 -0.375 C 0.539062 -0.375 0.546875 -0.367188 0.546875 -0.359375 L 0.546875 -0.3125 C 0.546875 -0.3125 0.539062 -0.3125 0.53125 -0.3125 L 0.1875 -0.3125 L 0.1875 -0.078125 L 0.59375 -0.078125 C 0.59375 -0.078125 0.59375 -0.0703125 0.59375 -0.0625 L 0.59375 -0.015625 C 0.59375 -0.00390625 0.59375 0 0.59375 0 L 0.125 0 C 0.113281 0 0.109375 -0.00390625 0.109375 -0.015625 Z M 0.109375 -0.015625 "/></g></g></g><g fill="#e7f0ff" fill-opacity="1"><g transform="translate(13.939547, 52.818052)"><g><path d="M 0.09375 -0.484375 C 0.09375 -0.492188 0.09375 -0.5 0.09375 -0.5 C 0.09375 -0.507812 0.09375 -0.515625 0.09375 -0.515625 L 0.09375 -0.671875 C 0.09375 -0.679688 0.0976562 -0.6875 0.109375 -0.6875 L 0.15625 -0.6875 C 0.15625 -0.6875 0.15625 -0.679688 0.15625 -0.671875 C 0.164062 -0.671875 0.171875 -0.671875 0.171875 -0.671875 L 0.171875 -0.546875 C 0.171875 -0.535156 0.171875 -0.53125 0.171875 -0.53125 C 0.171875 -0.53125 0.171875 -0.523438 0.171875 -0.515625 L 0.34375 -0.359375 L 0.515625 -0.515625 C 0.523438 -0.523438 0.53125 -0.53125 0.53125 -0.53125 C 0.53125 -0.53125 0.53125 -0.535156 0.53125 -0.546875 L 0.53125 -0.671875 C 0.53125 -0.679688 0.535156 -0.6875 0.546875 -0.6875 L 0.59375 -0.6875 C 0.59375 -0.6875 0.59375 -0.679688 0.59375 -0.671875 C 0.601562 -0.671875 0.609375 -0.671875 0.609375 -0.671875 L 0.609375 -0.515625 C 0.609375 -0.515625 0.601562 -0.507812 0.59375 -0.5 C 0.59375 -0.5 0.59375 -0.492188 0.59375 -0.484375 L 0.390625 -0.28125 L 0.390625 -0.015625 C 0.390625 -0.015625 0.382812 -0.0078125 0.375 0 L 0.328125 0 C 0.316406 0 0.3125 -0.00390625 0.3125 -0.015625 L 0.3125 -0.28125 Z M 0.09375 -0.484375 "/></g></g></g><g fill="#e7f0ff" fill-opacity="1"><g transform="translate(27.158735, 52.818052)"><g><path d="M 0.109375 -0.015625 L 0.109375 -0.671875 C 0.109375 -0.679688 0.113281 -0.6875 0.125 -0.6875 L 0.59375 -0.6875 C 0.59375 -0.6875 0.59375 -0.679688 0.59375 -0.671875 L 0.59375 -0.625 C 0.59375 -0.613281 0.59375 -0.609375 0.59375 -0.609375 L 0.1875 -0.609375 L 0.1875 -0.375 L 0.53125 -0.375 C 0.539062 -0.375 0.546875 -0.367188 0.546875 -0.359375 L 0.546875 -0.3125 C 0.546875 -0.3125 0.539062 -0.3125 0.53125 -0.3125 L 0.1875 -0.3125 L 0.1875 -0.078125 L 0.59375 -0.078125 C 0.59375 -0.078125 0.59375 -0.0703125 0.59375 -0.0625 L 0.59375 -0.015625 C 0.59375 -0.00390625 0.59375 0 0.59375 0 L 0.125 0 C 0.113281 0 0.109375 -0.00390625 0.109375 -0.015625 Z M 0.109375 -0.015625 "/></g></g></g><g fill="#e7f0ff" fill-opacity="1"><g transform="translate(27.854741, 52.818052)"><g><path d="M 0.53125 -0.015625 L 0.53125 -0.296875 L 0.171875 -0.59375 L 0.171875 -0.015625 C 0.171875 -0.00390625 0.164062 0 0.15625 0 L 0.109375 0 C 0.0976562 0 0.09375 0 0.09375 0 C 0.09375 -0.0078125 0.09375 -0.015625 0.09375 -0.015625 L 0.09375 -0.671875 C 0.09375 -0.679688 0.0976562 -0.6875 0.109375 -0.6875 L 0.171875 -0.6875 C 0.179688 -0.6875 0.191406 -0.679688 0.203125 -0.671875 L 0.53125 -0.40625 L 0.53125 -0.671875 C 0.53125 -0.679688 0.535156 -0.6875 0.546875 -0.6875 L 0.59375 -0.6875 C 0.601562 -0.6875 0.609375 -0.679688 0.609375 -0.671875 L 0.609375 -0.015625 C 0.609375 -0.00390625 0.601562 0 0.59375 0 L 0.546875 0 C 0.535156 0 0.53125 -0.00390625 0.53125 -0.015625 Z M 0.53125 -0.015625 "/></g></g></g><g fill="#e7f0ff" fill-opacity="1"><g transform="translate(28.551746, 52.818052)"><g><path d="M 0.09375 -0.015625 L 0.09375 -0.671875 C 0.09375 -0.679688 0.0976562 -0.6875 0.109375 -0.6875 L 0.453125 -0.6875 C 0.472656 -0.6875 0.492188 -0.679688 0.515625 -0.671875 C 0.535156 -0.660156 0.550781 -0.648438 0.5625 -0.640625 C 0.570312 -0.628906 0.582031 -0.613281 0.59375 -0.59375 C 0.601562 -0.570312 0.609375 -0.554688 0.609375 -0.546875 L 0.609375 -0.140625 C 0.609375 -0.117188 0.601562 -0.0976562 0.59375 -0.078125 C 0.582031 -0.0664062 0.570312 -0.0507812 0.5625 -0.03125 C 0.550781 -0.0195312 0.535156 -0.0078125 0.515625 0 C 0.492188 0 0.472656 0 0.453125 0 L 0.109375 0 C 0.0976562 0 0.09375 0 0.09375 0 C 0.09375 -0.0078125 0.09375 -0.015625 0.09375 -0.015625 Z M 0.171875 -0.078125 L 0.453125 -0.078125 C 0.472656 -0.078125 0.488281 -0.0820312 0.5 -0.09375 C 0.519531 -0.101562 0.53125 -0.117188 0.53125 -0.140625 L 0.53125 -0.546875 C 0.53125 -0.554688 0.519531 -0.566406 0.5 -0.578125 C 0.488281 -0.597656 0.472656 -0.609375 0.453125 -0.609375 L 0.171875 -0.609375 Z M 0.171875 -0.078125 "/></g></g></g><g fill="#e7f0ff" fill-opacity="1"><g transform="translate(29.248752, 52.818052)"><g><path d="M 0.109375 -0.015625 L 0.109375 -0.671875 C 0.109375 -0.679688 0.113281 -0.6875 0.125 -0.6875 L 0.59375 -0.6875 C 0.59375 -0.6875 0.59375 -0.679688 0.59375 -0.671875 L 0.59375 -0.625 C 0.59375 -0.613281 0.59375 -0.609375 0.59375 -0.609375 L 0.1875 -0.609375 L 0.1875 -0.375 L 0.53125 -0.375 C 0.539062 -0.375 0.546875 -0.367188 0.546875 -0.359375 L 0.546875 -0.3125 C 0.546875 -0.3125 0.539062 -0.3125 0.53125 -0.3125 L 0.1875 -0.3125 L 0.1875 -0.078125 L 0.59375 -0.078125 C 0.59375 -0.078125 0.59375 -0.0703125 0.59375 -0.0625 L 0.59375 -0.015625 C 0.59375 -0.00390625 0.59375 0 0.59375 0 L 0.125 0 C 0.113281 0 0.109375 -0.00390625 0.109375 -0.015625 Z M 0.109375 -0.015625 "/></g></g></g><g fill="#e7f0ff" fill-opacity="1"><g transform="translate(29.944758, 52.818052)"><g><path d="M 0.4375 -0.6875 C 0.445312 -0.6875 0.453125 -0.679688 0.453125 -0.671875 C 0.453125 -0.671875 0.457031 -0.671875 0.46875 -0.671875 L 0.59375 -0.328125 C 0.601562 -0.316406 0.609375 -0.304688 0.609375 -0.296875 L 0.609375 -0.015625 C 0.609375 -0.00390625 0.601562 0 0.59375 0 L 0.546875 0 C 0.535156 0 0.53125 -0.00390625 0.53125 -0.015625 L 0.53125 -0.203125 L 0.171875 -0.203125 L 0.171875 -0.015625 C 0.171875 -0.00390625 0.164062 0 0.15625 0 L 0.109375 0 C 0.0976562 0 0.09375 -0.00390625 0.09375 -0.015625 L 0.09375 -0.296875 C 0.09375 -0.304688 0.09375 -0.316406 0.09375 -0.328125 L 0.234375 -0.671875 C 0.242188 -0.679688 0.25 -0.6875 0.25 -0.6875 Z M 0.53125 -0.28125 L 0.53125 -0.296875 L 0.40625 -0.609375 L 0.296875 -0.609375 L 0.171875 -0.296875 L 0.171875 -0.28125 Z M 0.53125 -0.28125 "/></g></g></g><g fill="#e7f0ff" fill-opacity="1"><g transform="translate(30.641763, 52.818052)"><g><path d="M 0.234375 -0.015625 L 0.09375 -0.359375 C 0.09375 -0.367188 0.09375 -0.378906 0.09375 -0.390625 L 0.09375 -0.671875 C 0.09375 -0.679688 0.0976562 -0.6875 0.109375 -0.6875 L 0.15625 -0.6875 C 0.164062 -0.6875 0.171875 -0.679688 0.171875 -0.671875 L 0.171875 -0.40625 C 0.171875 -0.394531 0.171875 -0.382812 0.171875 -0.375 L 0.296875 -0.078125 L 0.40625 -0.078125 L 0.53125 -0.375 C 0.53125 -0.382812 0.53125 -0.394531 0.53125 -0.40625 L 0.53125 -0.671875 C 0.53125 -0.679688 0.535156 -0.6875 0.546875 -0.6875 L 0.59375 -0.6875 C 0.601562 -0.6875 0.609375 -0.679688 0.609375 -0.671875 L 0.609375 -0.390625 C 0.609375 -0.378906 0.609375 -0.367188 0.609375 -0.359375 C 0.609375 -0.359375 0.601562 -0.359375 0.59375 -0.359375 L 0.46875 -0.015625 C 0.457031 -0.015625 0.453125 -0.0078125 0.453125 0 C 0.453125 0 0.445312 0 0.4375 0 L 0.25 0 C 0.25 0 0.242188 0 0.234375 0 C 0.234375 -0.0078125 0.234375 -0.015625 0.234375 -0.015625 Z M 0.234375 -0.015625 "/></g></g></g><g fill="#e7f0ff" fill-opacity="1"><g transform="translate(31.337769, 52.818052)"><g><path d="M 0.234375 0 C 0.210938 0 0.191406 0 0.171875 0 C 0.160156 -0.0078125 0.144531 -0.0195312 0.125 -0.03125 C 0.113281 -0.0507812 0.101562 -0.0664062 0.09375 -0.078125 C 0.09375 -0.0976562 0.09375 -0.117188 0.09375 -0.140625 L 0.09375 -0.546875 C 0.09375 -0.554688 0.09375 -0.570312 0.09375 -0.59375 C 0.101562 -0.613281 0.113281 -0.628906 0.125 -0.640625 C 0.144531 -0.648438 0.160156 -0.660156 0.171875 -0.671875 C 0.191406 -0.679688 0.210938 -0.6875 0.234375 -0.6875 L 0.453125 -0.6875 C 0.472656 -0.6875 0.492188 -0.679688 0.515625 -0.671875 C 0.535156 -0.660156 0.550781 -0.648438 0.5625 -0.640625 C 0.570312 -0.628906 0.582031 -0.613281 0.59375 -0.59375 C 0.601562 -0.570312 0.609375 -0.554688 0.609375 -0.546875 L 0.609375 -0.140625 C 0.609375 -0.117188 0.601562 -0.0976562 0.59375 -0.078125 C 0.582031 -0.0664062 0.570312 -0.0507812 0.5625 -0.03125 C 0.550781 -0.0195312 0.535156 -0.0078125 0.515625 0 C 0.492188 0 0.472656 0 0.453125 0 Z M 0.234375 -0.609375 C 0.210938 -0.609375 0.195312 -0.597656 0.1875 -0.578125 C 0.175781 -0.566406 0.171875 -0.554688 0.171875 -0.546875 L 0.171875 -0.140625 C 0.171875 -0.117188 0.175781 -0.101562 0.1875 -0.09375 C 0.195312 -0.0820312 0.210938 -0.078125 0.234375 -0.078125 L 0.453125 -0.078125 C 0.472656 -0.078125 0.488281 -0.0820312 0.5 -0.09375 C 0.519531 -0.101562 0.53125 -0.117188 0.53125 -0.140625 L 0.53125 -0.546875 C 0.53125 -0.554688 0.519531 -0.566406 0.5 -0.578125 C 0.488281 -0.597656 0.472656 -0.609375 0.453125 -0.609375 Z M 0.234375 -0.609375 "/></g></g></g><g fill="#e7f0ff" fill-opacity="1"><g transform="translate(32.034774, 52.818052)"><g><path d="M 0.09375 -0.140625 L 0.09375 -0.671875 C 0.09375 -0.679688 0.0976562 -0.6875 0.109375 -0.6875 L 0.15625 -0.6875 C 0.164062 -0.6875 0.171875 -0.679688 0.171875 -0.671875 L 0.171875 -0.140625 C 0.171875 -0.117188 0.175781 -0.101562 0.1875 -0.09375 C 0.195312 -0.0820312 0.210938 -0.078125 0.234375 -0.078125 L 0.453125 -0.078125 C 0.472656 -0.078125 0.488281 -0.0820312 0.5 -0.09375 C 0.519531 -0.101562 0.53125 -0.117188 0.53125 -0.140625 L 0.53125 -0.671875 C 0.53125 -0.679688 0.535156 -0.6875 0.546875 -0.6875 L 0.59375 -0.6875 C 0.601562 -0.6875 0.609375 -0.679688 0.609375 -0.671875 L 0.609375 -0.140625 C 0.609375 -0.117188 0.601562 -0.0976562 0.59375 -0.078125 C 0.582031 -0.0664062 0.570312 -0.0507812 0.5625 -0.03125 C 0.550781 -0.0195312 0.535156 -0.0078125 0.515625 0 C 0.492188 0 0.472656 0 0.453125 0 L 0.234375 0 C 0.210938 0 0.191406 0 0.171875 0 C 0.160156 -0.0078125 0.144531 -0.0195312 0.125 -0.03125 C 0.113281 -0.0507812 0.101562 -0.0664062 0.09375 -0.078125 C 0.09375 -0.0976562 0.09375 -0.117188 0.09375 -0.140625 Z M 0.09375 -0.140625 "/></g></g></g><g fill="#e7f0ff" fill-opacity="1"><g transform="translate(32.73178, 52.818052)"><g><path d="M 0.515625 -0.015625 L 0.375 -0.3125 L 0.171875 -0.3125 L 0.171875 -0.015625 C 0.171875 -0.00390625 0.164062 0 0.15625 0 L 0.109375 0 C 0.0976562 0 0.09375 -0.00390625 0.09375 -0.015625 L 0.09375 -0.671875 C 0.09375 -0.679688 0.0976562 -0.6875 0.109375 -0.6875 L 0.453125 -0.6875 C 0.472656 -0.6875 0.492188 -0.679688 0.515625 -0.671875 C 0.535156 -0.660156 0.550781 -0.648438 0.5625 -0.640625 C 0.570312 -0.628906 0.582031 -0.613281 0.59375 -0.59375 C 0.601562 -0.570312 0.609375 -0.554688 0.609375 -0.546875 L 0.609375 -0.453125 C 0.609375 -0.421875 0.597656 -0.390625 0.578125 -0.359375 C 0.554688 -0.335938 0.53125 -0.320312 0.5 -0.3125 L 0.46875 -0.296875 L 0.59375 -0.015625 C 0.59375 -0.015625 0.59375 -0.0078125 0.59375 0 L 0.53125 0 C 0.53125 0 0.523438 0 0.515625 0 C 0.515625 -0.0078125 0.515625 -0.015625 0.515625 -0.015625 Z M 0.171875 -0.375 L 0.453125 -0.375 C 0.472656 -0.375 0.488281 -0.378906 0.5 -0.390625 C 0.519531 -0.410156 0.53125 -0.429688 0.53125 -0.453125 L 0.53125 -0.546875 C 0.53125 -0.554688 0.519531 -0.566406 0.5 -0.578125 C 0.488281 -0.597656 0.472656 -0.609375 0.453125 -0.609375 L 0.171875 -0.609375 Z M 0.171875 -0.375 "/></g></g></g><g fill="#e7f0ff" fill-opacity="1"><g transform="translate(33.428785, 52.818052)"><g><path d="M 0.109375 -0.015625 L 0.109375 -0.671875 C 0.109375 -0.679688 0.113281 -0.6875 0.125 -0.6875 L 0.59375 -0.6875 C 0.59375 -0.6875 0.59375 -0.679688 0.59375 -0.671875 L 0.59375 -0.625 C 0.59375 -0.613281 0.59375 -0.609375 0.59375 -0.609375 L 0.1875 -0.609375 L 0.1875 -0.375 L 0.53125 -0.375 C 0.539062 -0.375 0.546875 -0.367188 0.546875 -0.359375 L 0.546875 -0.3125 C 0.546875 -0.3125 0.539062 -0.3125 0.53125 -0.3125 L 0.1875 -0.3125 L 0.1875 -0.078125 L 0.59375 -0.078125 C 0.59375 -0.078125 0.59375 -0.0703125 0.59375 -0.0625 L 0.59375 -0.015625 C 0.59375 -0.00390625 0.59375 0 0.59375 0 L 0.125 0 C 0.113281 0 0.109375 -0.00390625 0.109375 -0.015625 Z M 0.109375 -0.015625 "/></g></g></g><g fill="#e7f0ff" fill-opacity="1"><g transform="translate(34.124791, 52.818052)"><g><path d="M 0.09375 -0.015625 L 0.09375 -0.671875 C 0.09375 -0.679688 0.0976562 -0.6875 0.109375 -0.6875 L 0.453125 -0.6875 C 0.472656 -0.6875 0.492188 -0.679688 0.515625 -0.671875 C 0.535156 -0.660156 0.550781 -0.648438 0.5625 -0.640625 C 0.570312 -0.628906 0.582031 -0.613281 0.59375 -0.59375 C 0.601562 -0.570312 0.609375 -0.554688 0.609375 -0.546875 L 0.609375 -0.140625 C 0.609375 -0.117188 0.601562 -0.0976562 0.59375 -0.078125 C 0.582031 -0.0664062 0.570312 -0.0507812 0.5625 -0.03125 C 0.550781 -0.0195312 0.535156 -0.0078125 0.515625 0 C 0.492188 0 0.472656 0 0.453125 0 L 0.109375 0 C 0.0976562 0 0.09375 0 0.09375 0 C 0.09375 -0.0078125 0.09375 -0.015625 0.09375 -0.015625 Z M 0.171875 -0.078125 L 0.453125 -0.078125 C 0.472656 -0.078125 0.488281 -0.0820312 0.5 -0.09375 C 0.519531 -0.101562 0.53125 -0.117188 0.53125 -0.140625 L 0.53125 -0.546875 C 0.53125 -0.554688 0.519531 -0.566406 0.5 -0.578125 C 0.488281 -0.597656 0.472656 -0.609375 0.453125 -0.609375 L 0.171875 -0.609375 Z M 0.171875 -0.078125 "/></g></g></g><g fill="#e7f0ff" fill-opacity="1"><g transform="translate(34.821796, 52.818052)"><g/></g></g><g fill="#e7f0ff" fill-opacity="1"><g transform="translate(35.517802, 52.818052)"><g><path d="M 0.3125 -0.015625 L 0.3125 -0.609375 L 0.109375 -0.609375 C 0.0976562 -0.609375 0.09375 -0.613281 0.09375 -0.625 L 0.09375 -0.671875 C 0.09375 -0.679688 0.0976562 -0.6875 0.109375 -0.6875 L 0.59375 -0.6875 C 0.601562 -0.6875 0.609375 -0.679688 0.609375 -0.671875 L 0.609375 -0.625 C 0.609375 -0.613281 0.601562 -0.609375 0.59375 -0.609375 L 0.390625 -0.609375 L 0.390625 -0.015625 C 0.390625 -0.015625 0.382812 -0.0078125 0.375 0 L 0.328125 0 C 0.316406 0 0.3125 -0.00390625 0.3125 -0.015625 Z M 0.3125 -0.015625 "/></g></g></g><g fill="#e7f0ff" fill-opacity="1"><g transform="translate(36.214807, 52.818052)"><g><path d="M 0.234375 0 C 0.210938 0 0.191406 0 0.171875 0 C 0.160156 -0.0078125 0.144531 -0.0195312 0.125 -0.03125 C 0.113281 -0.0507812 0.101562 -0.0664062 0.09375 -0.078125 C 0.09375 -0.0976562 0.09375 -0.117188 0.09375 -0.140625 L 0.09375 -0.546875 C 0.09375 -0.554688 0.09375 -0.570312 0.09375 -0.59375 C 0.101562 -0.613281 0.113281 -0.628906 0.125 -0.640625 C 0.144531 -0.648438 0.160156 -0.660156 0.171875 -0.671875 C 0.191406 -0.679688 0.210938 -0.6875 0.234375 -0.6875 L 0.453125 -0.6875 C 0.472656 -0.6875 0.492188 -0.679688 0.515625 -0.671875 C 0.535156 -0.660156 0.550781 -0.648438 0.5625 -0.640625 C 0.570312 -0.628906 0.582031 -0.613281 0.59375 -0.59375 C 0.601562 -0.570312 0.609375 -0.554688 0.609375 -0.546875 L 0.609375 -0.140625 C 0.609375 -0.117188 0.601562 -0.0976562 0.59375 -0.078125 C 0.582031 -0.0664062 0.570312 -0.0507812 0.5625 -0.03125 C 0.550781 -0.0195312 0.535156 -0.0078125 0.515625 0 C 0.492188 0 0.472656 0 0.453125 0 Z M 0.234375 -0.609375 C 0.210938 -0.609375 0.195312 -0.597656 0.1875 -0.578125 C 0.175781 -0.566406 0.171875 -0.554688 0.171875 -0.546875 L 0.171875 -0.140625 C 0.171875 -0.117188 0.175781 -0.101562 0.1875 -0.09375 C 0.195312 -0.0820312 0.210938 -0.078125 0.234375 -0.078125 L 0.453125 -0.078125 C 0.472656 -0.078125 0.488281 -0.0820312 0.5 -0.09375 C 0.519531 -0.101562 0.53125 -0.117188 0.53125 -0.140625 L 0.53125 -0.546875 C 0.53125 -0.554688 0.519531 -0.566406 0.5 -0.578125 C 0.488281 -0.597656 0.472656 -0.609375 0.453125 -0.609375 Z M 0.234375 -0.609375 "/></g></g></g><g fill="#e7f0ff" fill-opacity="1"><g transform="translate(36.911813, 52.818052)"><g><path d="M 0.546875 -0.671875 C 0.554688 -0.679688 0.5625 -0.6875 0.5625 -0.6875 L 0.609375 -0.6875 C 0.617188 -0.6875 0.625 -0.679688 0.625 -0.671875 L 0.578125 -0.015625 C 0.578125 -0.015625 0.570312 -0.0078125 0.5625 0 L 0.5 0 C 0.488281 0 0.484375 -0.00390625 0.484375 -0.015625 L 0.34375 -0.234375 L 0.21875 -0.015625 C 0.21875 -0.00390625 0.210938 0 0.203125 0 L 0.140625 0 C 0.128906 0 0.125 0 0.125 0 C 0.125 -0.0078125 0.125 -0.015625 0.125 -0.015625 L 0.0625 -0.671875 C 0.0703125 -0.679688 0.078125 -0.6875 0.078125 -0.6875 L 0.125 -0.6875 C 0.132812 -0.6875 0.140625 -0.679688 0.140625 -0.671875 L 0.1875 -0.09375 L 0.3125 -0.3125 C 0.3125 -0.320312 0.316406 -0.328125 0.328125 -0.328125 L 0.375 -0.328125 C 0.382812 -0.328125 0.390625 -0.320312 0.390625 -0.3125 L 0.515625 -0.09375 Z M 0.546875 -0.671875 "/></g></g></g><g fill="#e7f0ff" fill-opacity="1"><g transform="translate(37.608818, 52.818052)"><g><path d="M 0.4375 -0.6875 C 0.445312 -0.6875 0.453125 -0.679688 0.453125 -0.671875 C 0.453125 -0.671875 0.457031 -0.671875 0.46875 -0.671875 L 0.59375 -0.328125 C 0.601562 -0.316406 0.609375 -0.304688 0.609375 -0.296875 L 0.609375 -0.015625 C 0.609375 -0.00390625 0.601562 0 0.59375 0 L 0.546875 0 C 0.535156 0 0.53125 -0.00390625 0.53125 -0.015625 L 0.53125 -0.203125 L 0.171875 -0.203125 L 0.171875 -0.015625 C 0.171875 -0.00390625 0.164062 0 0.15625 0 L 0.109375 0 C 0.0976562 0 0.09375 -0.00390625 0.09375 -0.015625 L 0.09375 -0.296875 C 0.09375 -0.304688 0.09375 -0.316406 0.09375 -0.328125 L 0.234375 -0.671875 C 0.242188 -0.679688 0.25 -0.6875 0.25 -0.6875 Z M 0.53125 -0.28125 L 0.53125 -0.296875 L 0.40625 -0.609375 L 0.296875 -0.609375 L 0.171875 -0.296875 L 0.171875 -0.28125 Z M 0.53125 -0.28125 "/></g></g></g><g fill="#e7f0ff" fill-opacity="1"><g transform="translate(38.305823, 52.818052)"><g><path d="M 0.515625 -0.015625 L 0.375 -0.3125 L 0.171875 -0.3125 L 0.171875 -0.015625 C 0.171875 -0.00390625 0.164062 0 0.15625 0 L 0.109375 0 C 0.0976562 0 0.09375 -0.00390625 0.09375 -0.015625 L 0.09375 -0.671875 C 0.09375 -0.679688 0.0976562 -0.6875 0.109375 -0.6875 L 0.453125 -0.6875 C 0.472656 -0.6875 0.492188 -0.679688 0.515625 -0.671875 C 0.535156 -0.660156 0.550781 -0.648438 0.5625 -0.640625 C 0.570312 -0.628906 0.582031 -0.613281 0.59375 -0.59375 C 0.601562 -0.570312 0.609375 -0.554688 0.609375 -0.546875 L 0.609375 -0.453125 C 0.609375 -0.421875 0.597656 -0.390625 0.578125 -0.359375 C 0.554688 -0.335938 0.53125 -0.320312 0.5 -0.3125 L 0.46875 -0.296875 L 0.59375 -0.015625 C 0.59375 -0.015625 0.59375 -0.0078125 0.59375 0 L 0.53125 0 C 0.53125 0 0.523438 0 0.515625 0 C 0.515625 -0.0078125 0.515625 -0.015625 0.515625 -0.015625 Z M 0.171875 -0.375 L 0.453125 -0.375 C 0.472656 -0.375 0.488281 -0.378906 0.5 -0.390625 C 0.519531 -0.410156 0.53125 -0.429688 0.53125 -0.453125 L 0.53125 -0.546875 C 0.53125 -0.554688 0.519531 -0.566406 0.5 -0.578125 C 0.488281 -0.597656 0.472656 -0.609375 0.453125 -0.609375 L 0.171875 -0.609375 Z M 0.171875 -0.375 "/></g></g></g><g fill="#e7f0ff" fill-opacity="1"><g transform="translate(39.002829, 52.818052)"><g><path d="M 0.09375 -0.015625 L 0.09375 -0.671875 C 0.09375 -0.679688 0.0976562 -0.6875 0.109375 -0.6875 L 0.453125 -0.6875 C 0.472656 -0.6875 0.492188 -0.679688 0.515625 -0.671875 C 0.535156 -0.660156 0.550781 -0.648438 0.5625 -0.640625 C 0.570312 -0.628906 0.582031 -0.613281 0.59375 -0.59375 C 0.601562 -0.570312 0.609375 -0.554688 0.609375 -0.546875 L 0.609375 -0.140625 C 0.609375 -0.117188 0.601562 -0.0976562 0.59375 -0.078125 C 0.582031 -0.0664062 0.570312 -0.0507812 0.5625 -0.03125 C 0.550781 -0.0195312 0.535156 -0.0078125 0.515625 0 C 0.492188 0 0.472656 0 0.453125 0 L 0.109375 0 C 0.0976562 0 0.09375 0 0.09375 0 C 0.09375 -0.0078125 0.09375 -0.015625 0.09375 -0.015625 Z M 0.171875 -0.078125 L 0.453125 -0.078125 C 0.472656 -0.078125 0.488281 -0.0820312 0.5 -0.09375 C 0.519531 -0.101562 0.53125 -0.117188 0.53125 -0.140625 L 0.53125 -0.546875 C 0.53125 -0.554688 0.519531 -0.566406 0.5 -0.578125 C 0.488281 -0.597656 0.472656 -0.609375 0.453125 -0.609375 L 0.171875 -0.609375 Z M 0.171875 -0.078125 "/></g></g></g><g fill="#e7f0ff" fill-opacity="1"><g transform="translate(39.699834, 52.818052)"><g><path d="M 0.09375 -0.140625 L 0.09375 -0.1875 C 0.09375 -0.195312 0.09375 -0.203125 0.09375 -0.203125 C 0.09375 -0.203125 0.0976562 -0.203125 0.109375 -0.203125 L 0.15625 -0.203125 C 0.164062 -0.203125 0.171875 -0.195312 0.171875 -0.1875 L 0.171875 -0.140625 C 0.171875 -0.117188 0.175781 -0.101562 0.1875 -0.09375 C 0.195312 -0.0820312 0.210938 -0.078125 0.234375 -0.078125 L 0.453125 -0.078125 C 0.472656 -0.078125 0.488281 -0.0820312 0.5 -0.09375 C 0.519531 -0.101562 0.53125 -0.117188 0.53125 -0.140625 L 0.53125 -0.234375 C 0.53125 -0.253906 0.519531 -0.269531 0.5 -0.28125 C 0.488281 -0.300781 0.472656 -0.3125 0.453125 -0.3125 L 0.234375 -0.3125 C 0.210938 -0.3125 0.191406 -0.3125 0.171875 -0.3125 C 0.160156 -0.320312 0.144531 -0.332031 0.125 -0.34375 C 0.113281 -0.351562 0.101562 -0.367188 0.09375 -0.390625 C 0.09375 -0.410156 0.09375 -0.429688 0.09375 -0.453125 L 0.09375 -0.546875 C 0.09375 -0.554688 0.09375 -0.570312 0.09375 -0.59375 C 0.101562 -0.613281 0.113281 -0.628906 0.125 -0.640625 C 0.144531 -0.648438 0.160156 -0.660156 0.171875 -0.671875 C 0.191406 -0.679688 0.210938 -0.6875 0.234375 -0.6875 L 0.453125 -0.6875 C 0.472656 -0.6875 0.492188 -0.679688 0.515625 -0.671875 C 0.535156 -0.660156 0.550781 -0.648438 0.5625 -0.640625 C 0.570312 -0.628906 0.582031 -0.613281 0.59375 -0.59375 C 0.601562 -0.570312 0.609375 -0.554688 0.609375 -0.546875 L 0.609375 -0.5 C 0.609375 -0.488281 0.601562 -0.484375 0.59375 -0.484375 L 0.546875 -0.484375 C 0.535156 -0.484375 0.53125 -0.488281 0.53125 -0.5 L 0.53125 -0.546875 C 0.53125 -0.554688 0.519531 -0.566406 0.5 -0.578125 C 0.488281 -0.597656 0.472656 -0.609375 0.453125 -0.609375 L 0.234375 -0.609375 C 0.210938 -0.609375 0.195312 -0.597656 0.1875 -0.578125 C 0.175781 -0.566406 0.171875 -0.554688 0.171875 -0.546875 L 0.171875 -0.453125 C 0.171875 -0.429688 0.175781 -0.410156 0.1875 -0.390625 C 0.195312 -0.378906 0.210938 -0.375 0.234375 -0.375 L 0.453125 -0.375 C 0.472656 -0.375 0.492188 -0.367188 0.515625 -0.359375 C 0.535156 -0.359375 0.550781 -0.347656 0.5625 -0.328125 C 0.570312 -0.316406 0.582031 -0.300781 0.59375 -0.28125 C 0.601562 -0.269531 0.609375 -0.253906 0.609375 -0.234375 L 0.609375 -0.140625 C 0.609375 -0.117188 0.601562 -0.0976562 0.59375 -0.078125 C 0.582031 -0.0664062 0.570312 -0.0507812 0.5625 -0.03125 C 0.550781 -0.0195312 0.535156 -0.0078125 0.515625 0 C 0.492188 0 0.472656 0 0.453125 0 L 0.234375 0 C 0.210938 0 0.191406 0 0.171875 0 C 0.160156 -0.0078125 0.144531 -0.0195312 0.125 -0.03125 C 0.113281 -0.0507812 0.101562 -0.0664062 0.09375 -0.078125 C 0.09375 -0.0976562 0.09375 -0.117188 0.09375 -0.140625 Z M 0.09375 -0.140625 "/></g></g></g><g fill="#e7f0ff" fill-opacity="1"><g transform="translate(52.851452, 52.818052)"><g><path d="M 0.53125 -0.015625 L 0.53125 -0.296875 L 0.171875 -0.59375 L 0.171875 -0.015625 C 0.171875 -0.00390625 0.164062 0 0.15625 0 L 0.109375 0 C 0.0976562 0 0.09375 0 0.09375 0 C 0.09375 -0.0078125 0.09375 -0.015625 0.09375 -0.015625 L 0.09375 -0.671875 C 0.09375 -0.679688 0.0976562 -0.6875 0.109375 -0.6875 L 0.171875 -0.6875 C 0.179688 -0.6875 0.191406 -0.679688 0.203125 -0.671875 L 0.53125 -0.40625 L 0.53125 -0.671875 C 0.53125 -0.679688 0.535156 -0.6875 0.546875 -0.6875 L 0.59375 -0.6875 C 0.601562 -0.6875 0.609375 -0.679688 0.609375 -0.671875 L 0.609375 -0.015625 C 0.609375 -0.00390625 0.601562 0 0.59375 0 L 0.546875 0 C 0.535156 0 0.53125 -0.00390625 0.53125 -0.015625 Z M 0.53125 -0.015625 "/></g></g></g><g fill="#e7f0ff" fill-opacity="1"><g transform="translate(53.548457, 52.818052)"><g><path d="M 0.4375 -0.6875 C 0.445312 -0.6875 0.453125 -0.679688 0.453125 -0.671875 C 0.453125 -0.671875 0.457031 -0.671875 0.46875 -0.671875 L 0.59375 -0.328125 C 0.601562 -0.316406 0.609375 -0.304688 0.609375 -0.296875 L 0.609375 -0.015625 C 0.609375 -0.00390625 0.601562 0 0.59375 0 L 0.546875 0 C 0.535156 0 0.53125 -0.00390625 0.53125 -0.015625 L 0.53125 -0.203125 L 0.171875 -0.203125 L 0.171875 -0.015625 C 0.171875 -0.00390625 0.164062 0 0.15625 0 L 0.109375 0 C 0.0976562 0 0.09375 -0.00390625 0.09375 -0.015625 L 0.09375 -0.296875 C 0.09375 -0.304688 0.09375 -0.316406 0.09375 -0.328125 L 0.234375 -0.671875 C 0.242188 -0.679688 0.25 -0.6875 0.25 -0.6875 Z M 0.53125 -0.28125 L 0.53125 -0.296875 L 0.40625 -0.609375 L 0.296875 -0.609375 L 0.171875 -0.296875 L 0.171875 -0.28125 Z M 0.53125 -0.28125 "/></g></g></g><g fill="#e7f0ff" fill-opacity="1"><g transform="translate(54.245463, 52.818052)"><g><path d="M 0.09375 -0.234375 C 0.101562 -0.242188 0.109375 -0.25 0.109375 -0.25 L 0.15625 -0.25 C 0.15625 -0.25 0.15625 -0.242188 0.15625 -0.234375 C 0.164062 -0.234375 0.171875 -0.234375 0.171875 -0.234375 L 0.171875 -0.140625 C 0.171875 -0.117188 0.175781 -0.101562 0.1875 -0.09375 C 0.207031 -0.0820312 0.222656 -0.078125 0.234375 -0.078125 L 0.453125 -0.078125 C 0.472656 -0.078125 0.488281 -0.0820312 0.5 -0.09375 C 0.519531 -0.101562 0.53125 -0.117188 0.53125 -0.140625 L 0.53125 -0.609375 L 0.109375 -0.609375 C 0.0976562 -0.609375 0.09375 -0.613281 0.09375 -0.625 L 0.09375 -0.671875 C 0.09375 -0.679688 0.0976562 -0.6875 0.109375 -0.6875 L 0.59375 -0.6875 C 0.59375 -0.6875 0.59375 -0.679688 0.59375 -0.671875 L 0.59375 -0.140625 C 0.59375 -0.117188 0.585938 -0.0976562 0.578125 -0.078125 C 0.578125 -0.0664062 0.566406 -0.0507812 0.546875 -0.03125 C 0.535156 -0.0195312 0.519531 -0.0078125 0.5 0 C 0.488281 0 0.472656 0 0.453125 0 L 0.234375 0 C 0.222656 0 0.207031 0 0.1875 0 C 0.164062 -0.0078125 0.148438 -0.0195312 0.140625 -0.03125 C 0.128906 -0.0507812 0.117188 -0.0664062 0.109375 -0.078125 C 0.0976562 -0.0976562 0.09375 -0.117188 0.09375 -0.140625 Z M 0.09375 -0.234375 "/></g></g></g><g fill="#e7f0ff" fill-opacity="1"><g transform="translate(54.941469, 52.818052)"><g><path d="M 0.515625 -0.671875 C 0.523438 -0.679688 0.53125 -0.6875 0.53125 -0.6875 L 0.59375 -0.6875 C 0.601562 -0.6875 0.609375 -0.679688 0.609375 -0.671875 L 0.609375 -0.015625 C 0.609375 -0.00390625 0.601562 0 0.59375 0 L 0.546875 0 C 0.535156 0 0.53125 -0.00390625 0.53125 -0.015625 L 0.53125 -0.59375 L 0.390625 -0.359375 C 0.378906 -0.347656 0.375 -0.34375 0.375 -0.34375 C 0.375 -0.34375 0.367188 -0.34375 0.359375 -0.34375 L 0.328125 -0.34375 C 0.328125 -0.34375 0.320312 -0.34375 0.3125 -0.34375 C 0.3125 -0.34375 0.3125 -0.347656 0.3125 -0.359375 L 0.171875 -0.59375 L 0.171875 -0.015625 C 0.171875 -0.00390625 0.164062 0 0.15625 0 L 0.109375 0 C 0.0976562 0 0.09375 -0.00390625 0.09375 -0.015625 L 0.09375 -0.671875 C 0.09375 -0.679688 0.0976562 -0.6875 0.109375 -0.6875 L 0.171875 -0.6875 C 0.171875 -0.6875 0.171875 -0.679688 0.171875 -0.671875 C 0.179688 -0.671875 0.1875 -0.671875 0.1875 -0.671875 L 0.34375 -0.4375 Z M 0.515625 -0.671875 "/></g></g></g><g fill="#e7f0ff" fill-opacity="1"><g transform="translate(55.638474, 52.818052)"><g/></g></g><g fill="#e7f0ff" fill-opacity="1"><g transform="translate(56.33448, 52.818052)"><g><path d="M 0.453125 -0.6875 C 0.472656 -0.6875 0.492188 -0.679688 0.515625 -0.671875 C 0.535156 -0.660156 0.550781 -0.648438 0.5625 -0.640625 C 0.570312 -0.628906 0.582031 -0.613281 0.59375 -0.59375 C 0.601562 -0.570312 0.609375 -0.554688 0.609375 -0.546875 L 0.609375 -0.453125 C 0.609375 -0.421875 0.597656 -0.390625 0.578125 -0.359375 L 0.5625 -0.34375 L 0.578125 -0.328125 C 0.597656 -0.296875 0.609375 -0.265625 0.609375 -0.234375 L 0.609375 -0.140625 C 0.609375 -0.117188 0.601562 -0.0976562 0.59375 -0.078125 C 0.582031 -0.0664062 0.570312 -0.0507812 0.5625 -0.03125 C 0.550781 -0.0195312 0.535156 -0.0078125 0.515625 0 C 0.492188 0 0.472656 0 0.453125 0 L 0.234375 0 C 0.210938 0 0.191406 0 0.171875 0 C 0.160156 -0.0078125 0.148438 -0.0195312 0.140625 -0.03125 C 0.128906 -0.0507812 0.117188 -0.0664062 0.109375 -0.078125 C 0.0976562 -0.0976562 0.09375 -0.117188 0.09375 -0.140625 L 0.09375 -0.1875 C 0.09375 -0.195312 0.09375 -0.203125 0.09375 -0.203125 C 0.09375 -0.203125 0.0976562 -0.203125 0.109375 -0.203125 L 0.15625 -0.203125 C 0.164062 -0.203125 0.171875 -0.195312 0.171875 -0.1875 L 0.171875 -0.140625 C 0.171875 -0.117188 0.175781 -0.101562 0.1875 -0.09375 C 0.195312 -0.0820312 0.210938 -0.078125 0.234375 -0.078125 L 0.453125 -0.078125 C 0.472656 -0.078125 0.488281 -0.0820312 0.5 -0.09375 C 0.519531 -0.101562 0.53125 -0.117188 0.53125 -0.140625 L 0.53125 -0.234375 C 0.53125 -0.253906 0.519531 -0.269531 0.5 -0.28125 C 0.488281 -0.300781 0.472656 -0.3125 0.453125 -0.3125 L 0.234375 -0.3125 L 0.234375 -0.359375 C 0.234375 -0.367188 0.234375 -0.375 0.234375 -0.375 L 0.453125 -0.375 C 0.472656 -0.375 0.488281 -0.378906 0.5 -0.390625 C 0.519531 -0.410156 0.53125 -0.429688 0.53125 -0.453125 L 0.53125 -0.546875 C 0.53125 -0.554688 0.519531 -0.566406 0.5 -0.578125 C 0.488281 -0.597656 0.472656 -0.609375 0.453125 -0.609375 L 0.234375 -0.609375 C 0.210938 -0.609375 0.195312 -0.597656 0.1875 -0.578125 C 0.175781 -0.566406 0.171875 -0.554688 0.171875 -0.546875 L 0.171875 -0.5 C 0.171875 -0.488281 0.164062 -0.484375 0.15625 -0.484375 L 0.109375 -0.484375 C 0.0976562 -0.484375 0.09375 -0.488281 0.09375 -0.5 L 0.09375 -0.546875 C 0.09375 -0.566406 0.0976562 -0.582031 0.109375 -0.59375 C 0.117188 -0.613281 0.128906 -0.628906 0.140625 -0.640625 C 0.148438 -0.660156 0.160156 -0.671875 0.171875 -0.671875 C 0.191406 -0.679688 0.210938 -0.6875 0.234375 -0.6875 Z M 0.453125 -0.6875 "/></g></g></g><g fill="#e7f0ff" fill-opacity="1"><g transform="translate(57.031485, 52.818052)"><g><path d="M 0.234375 -0.3125 C 0.210938 -0.3125 0.191406 -0.3125 0.171875 -0.3125 C 0.160156 -0.320312 0.144531 -0.332031 0.125 -0.34375 C 0.113281 -0.351562 0.101562 -0.367188 0.09375 -0.390625 C 0.09375 -0.410156 0.09375 -0.429688 0.09375 -0.453125 L 0.09375 -0.546875 C 0.09375 -0.554688 0.09375 -0.570312 0.09375 -0.59375 C 0.101562 -0.613281 0.113281 -0.628906 0.125 -0.640625 C 0.144531 -0.648438 0.160156 -0.660156 0.171875 -0.671875 C 0.191406 -0.679688 0.210938 -0.6875 0.234375 -0.6875 L 0.453125 -0.6875 C 0.472656 -0.6875 0.492188 -0.679688 0.515625 -0.671875 C 0.535156 -0.660156 0.550781 -0.648438 0.5625 -0.640625 C 0.570312 -0.628906 0.582031 -0.613281 0.59375 -0.59375 C 0.601562 -0.570312 0.609375 -0.554688 0.609375 -0.546875 L 0.609375 -0.140625 C 0.609375 -0.117188 0.601562 -0.0976562 0.59375 -0.078125 C 0.582031 -0.0664062 0.570312 -0.0507812 0.5625 -0.03125 C 0.550781 -0.0195312 0.535156 -0.0078125 0.515625 0 C 0.492188 0 0.472656 0 0.453125 0 L 0.234375 0 C 0.210938 0 0.191406 0 0.171875 0 C 0.160156 -0.0078125 0.148438 -0.0195312 0.140625 -0.03125 C 0.128906 -0.0507812 0.117188 -0.0664062 0.109375 -0.078125 C 0.0976562 -0.0976562 0.09375 -0.117188 0.09375 -0.140625 L 0.09375 -0.1875 C 0.09375 -0.195312 0.09375 -0.203125 0.09375 -0.203125 C 0.09375 -0.203125 0.0976562 -0.203125 0.109375 -0.203125 L 0.15625 -0.203125 C 0.164062 -0.203125 0.171875 -0.195312 0.171875 -0.1875 L 0.171875 -0.140625 C 0.171875 -0.117188 0.175781 -0.101562 0.1875 -0.09375 C 0.195312 -0.0820312 0.210938 -0.078125 0.234375 -0.078125 L 0.453125 -0.078125 C 0.472656 -0.078125 0.488281 -0.0820312 0.5 -0.09375 C 0.519531 -0.101562 0.53125 -0.117188 0.53125 -0.140625 L 0.53125 -0.3125 Z M 0.171875 -0.453125 C 0.171875 -0.429688 0.175781 -0.410156 0.1875 -0.390625 C 0.195312 -0.378906 0.210938 -0.375 0.234375 -0.375 L 0.53125 -0.375 L 0.53125 -0.546875 C 0.53125 -0.554688 0.519531 -0.566406 0.5 -0.578125 C 0.488281 -0.597656 0.472656 -0.609375 0.453125 -0.609375 L 0.234375 -0.609375 C 0.210938 -0.609375 0.195312 -0.597656 0.1875 -0.578125 C 0.175781 -0.566406 0.171875 -0.554688 0.171875 -0.546875 Z M 0.171875 -0.453125 "/></g></g></g></svg>