<svg xmlns="http://www.w3.org/2000/svg" xmlns:xlink="http://www.w3.org/1999/xlink" width="100" zoomAndPan="magnify" viewBox="0 0 75 74.999997" height="100" preserveAspectRatio="xMidYMid meet" version="1.0"><defs><g/></defs><path stroke-linecap="butt" transform="matrix(0, -0.75, 0.75, 0, 59.25556, 53.369563)" fill="none" stroke-linejoin="miter" d="M -0.00204148 4.497796 L 32.524003 4.497796 " stroke="#176b87" stroke-width="9" stroke-opacity="1" stroke-miterlimit="4"/><path stroke-linecap="butt" transform="matrix(0.75, 0, 0, 0.75, 10.898283, 46.623545)" fill="none" stroke-linejoin="miter" d="M 0.000206627 4.501941 L 68.859587 4.501941 " stroke="#176b87" stroke-width="9" stroke-opacity="1" stroke-miterlimit="4"/><path stroke-linecap="butt" transform="matrix(0, -0.75, 0.75, 0, 7.519306, 53.369563)" fill="none" stroke-linejoin="miter" d="M -0.00204148 4.500301 L 32.524003 4.500301 " stroke="#176b87" stroke-width="9" stroke-opacity="1" stroke-miterlimit="4"/><path stroke-linecap="butt" transform="matrix(0.75, 0, 0, 0.75, 7.500001, 56.910971)" fill="none" stroke-linejoin="miter" d="M -0.00000118333 4.498914 L 46.463544 4.498914 " stroke="#176b87" stroke-width="9" stroke-opacity="1" stroke-miterlimit="4"/><path stroke-linecap="butt" transform="matrix(0.75, -0.000000000000000837, 0.000000000000000837, 0.75, 45.982733, 56.910971)" fill="none" stroke-linejoin="miter" d="M 0.00218941 4.498914 L 26.700108 4.498914 " stroke="#176b87" stroke-width="9" stroke-opacity="1" stroke-miterlimit="4"/><path stroke-linecap="butt" transform="matrix(0, -0.75, 0.75, 0, 20.445205, 41.113392)" fill="none" stroke-linejoin="miter" d="M 0.000148257 4.500144 L 44.823069 4.500144 " stroke="#176b87" stroke-width="9" stroke-opacity="1" stroke-miterlimit="4"/><path stroke-linecap="butt" transform="matrix(0, -0.75, 0.75, 0, 45.697193, 41.113392)" fill="none" stroke-linejoin="miter" d="M 0.000148257 4.497493 L 44.823069 4.497493 " stroke="#176b87" stroke-width="9" stroke-opacity="1" stroke-miterlimit="4"/><path stroke-linecap="butt" transform="matrix(0.75, -0.000000000000000093, 0.000000000000000093, 0.75, 14.489495, 13.714865)" fill="none" stroke-linejoin="miter" d="M -0.00161817 4.499972 L 68.691096 4.499972 " stroke="#176b87" stroke-width="9" stroke-opacity="1" stroke-miterlimit="4"/><path stroke-linecap="butt" transform="matrix(0, -0.75, 0.75, 0, 59.253875, 32.329893)" fill="none" stroke-linejoin="miter" d="M 0.0023568 4.500042 L 20.325275 4.500042 " stroke="#176b87" stroke-width="9" stroke-opacity="1" stroke-miterlimit="4"/><g fill="#e7f0ff" fill-opacity="1"><g transform="translate(16.0014, 17.989864)"><g><path d="M 0.4375 -0.6875 C 0.445312 -0.6875 0.453125 -0.679688 0.453125 -0.671875 C 0.453125 -0.671875 0.457031 -0.671875 0.46875 -0.671875 L 0.59375 -0.328125 C 0.601562 -0.316406 0.609375 -0.304688 0.609375 -0.296875 L 0.609375 -0.015625 C 0.609375 -0.00390625 0.601562 0 0.59375 0 L 0.546875 0 C 0.535156 0 0.53125 -0.00390625 0.53125 -0.015625 L 0.53125 -0.203125 L 0.171875 -0.203125 L 0.171875 -0.015625 C 0.171875 -0.00390625 0.164062 0 0.15625 0 L 0.109375 0 C 0.0976562 0 0.09375 -0.00390625 0.09375 -0.015625 L 0.09375 -0.296875 C 0.09375 -0.304688 0.09375 -0.316406 0.09375 -0.328125 L 0.234375 -0.671875 C 0.242188 -0.679688 0.25 -0.6875 0.25 -0.6875 Z M 0.53125 -0.28125 L 0.53125 -0.296875 L 0.40625 -0.609375 L 0.296875 -0.609375 L 0.171875 -0.296875 L 0.171875 -0.28125 Z M 0.53125 -0.28125 "/></g></g></g><g fill="#e7f0ff" fill-opacity="1"><g transform="translate(16.698406, 17.989864)"><g><path d="M 0.53125 -0.015625 L 0.53125 -0.296875 L 0.171875 -0.59375 L 0.171875 -0.015625 C 0.171875 -0.00390625 0.164062 0 0.15625 0 L 0.109375 0 C 0.0976562 0 0.09375 0 0.09375 0 C 0.09375 -0.0078125 0.09375 -0.015625 0.09375 -0.015625 L 0.09375 -0.671875 C 0.09375 -0.679688 0.0976562 -0.6875 0.109375 -0.6875 L 0.171875 -0.6875 C 0.179688 -0.6875 0.191406 -0.679688 0.203125 -0.671875 L 0.53125 -0.40625 L 0.53125 -0.671875 C 0.53125 -0.679688 0.535156 -0.6875 0.546875 -0.6875 L 0.59375 -0.6875 C 0.601562 -0.6875 0.609375 -0.679688 0.609375 -0.671875 L 0.609375 -0.015625 C 0.609375 -0.00390625 0.601562 0 0.59375 0 L 0.546875 0 C 0.535156 0 0.53125 -0.00390625 0.53125 -0.015625 Z M 0.53125 -0.015625 "/></g></g></g><g fill="#e7f0ff" fill-opacity="1"><g transform="translate(17.395411, 17.989864)"><g><path d="M 0.09375 -0.015625 L 0.09375 -0.671875 C 0.09375 -0.679688 0.0976562 -0.6875 0.109375 -0.6875 L 0.453125 -0.6875 C 0.472656 -0.6875 0.492188 -0.679688 0.515625 -0.671875 C 0.535156 -0.660156 0.550781 -0.648438 0.5625 -0.640625 C 0.570312 -0.628906 0.582031 -0.613281 0.59375 -0.59375 C 0.601562 -0.570312 0.609375 -0.554688 0.609375 -0.546875 L 0.609375 -0.140625 C 0.609375 -0.117188 0.601562 -0.0976562 0.59375 -0.078125 C 0.582031 -0.0664062 0.570312 -0.0507812 0.5625 -0.03125 C 0.550781 -0.0195312 0.535156 -0.0078125 0.515625 0 C 0.492188 0 0.472656 0 0.453125 0 L 0.109375 0 C 0.0976562 0 0.09375 0 0.09375 0 C 0.09375 -0.0078125 0.09375 -0.015625 0.09375 -0.015625 Z M 0.171875 -0.078125 L 0.453125 -0.078125 C 0.472656 -0.078125 0.488281 -0.0820312 0.5 -0.09375 C 0.519531 -0.101562 0.53125 -0.117188 0.53125 -0.140625 L 0.53125 -0.546875 C 0.53125 -0.554688 0.519531 -0.566406 0.5 -0.578125 C 0.488281 -0.597656 0.472656 -0.609375 0.453125 -0.609375 L 0.171875 -0.609375 Z M 0.171875 -0.078125 "/></g></g></g><g fill="#e7f0ff" fill-opacity="1"><g transform="translate(18.092416, 17.989864)"><g/></g></g><g fill="#e7f0ff" fill-opacity="1"><g transform="translate(18.788422, 17.989864)"><g><path d="M 0.3125 -0.015625 L 0.3125 -0.609375 L 0.109375 -0.609375 C 0.0976562 -0.609375 0.09375 -0.613281 0.09375 -0.625 L 0.09375 -0.671875 C 0.09375 -0.679688 0.0976562 -0.6875 0.109375 -0.6875 L 0.59375 -0.6875 C 0.601562 -0.6875 0.609375 -0.679688 0.609375 -0.671875 L 0.609375 -0.625 C 0.609375 -0.613281 0.601562 -0.609375 0.59375 -0.609375 L 0.390625 -0.609375 L 0.390625 -0.015625 C 0.390625 -0.015625 0.382812 -0.0078125 0.375 0 L 0.328125 0 C 0.316406 0 0.3125 -0.00390625 0.3125 -0.015625 Z M 0.3125 -0.015625 "/></g></g></g><g fill="#e7f0ff" fill-opacity="1"><g transform="translate(19.485427, 17.989864)"><g><path d="M 0.53125 -0.015625 L 0.53125 -0.3125 L 0.171875 -0.3125 L 0.171875 -0.015625 C 0.171875 -0.00390625 0.164062 0 0.15625 0 L 0.109375 0 C 0.0976562 0 0.09375 -0.00390625 0.09375 -0.015625 L 0.09375 -0.671875 C 0.09375 -0.679688 0.0976562 -0.6875 0.109375 -0.6875 L 0.15625 -0.6875 C 0.164062 -0.6875 0.171875 -0.679688 0.171875 -0.671875 L 0.171875 -0.375 L 0.53125 -0.375 L 0.53125 -0.671875 C 0.53125 -0.679688 0.535156 -0.6875 0.546875 -0.6875 L 0.59375 -0.6875 C 0.601562 -0.6875 0.609375 -0.679688 0.609375 -0.671875 L 0.609375 -0.015625 C 0.609375 -0.00390625 0.601562 0 0.59375 0 L 0.546875 0 C 0.535156 0 0.53125 -0.00390625 0.53125 -0.015625 Z M 0.53125 -0.015625 "/></g></g></g><g fill="#e7f0ff" fill-opacity="1"><g transform="translate(20.181433, 17.989864)"><g><path d="M 0.4375 -0.6875 C 0.445312 -0.6875 0.453125 -0.679688 0.453125 -0.671875 C 0.453125 -0.671875 0.457031 -0.671875 0.46875 -0.671875 L 0.59375 -0.328125 C 0.601562 -0.316406 0.609375 -0.304688 0.609375 -0.296875 L 0.609375 -0.015625 C 0.609375 -0.00390625 0.601562 0 0.59375 0 L 0.546875 0 C 0.535156 0 0.53125 -0.00390625 0.53125 -0.015625 L 0.53125 -0.203125 L 0.171875 -0.203125 L 0.171875 -0.015625 C 0.171875 -0.00390625 0.164062 0 0.15625 0 L 0.109375 0 C 0.0976562 0 0.09375 -0.00390625 0.09375 -0.015625 L 0.09375 -0.296875 C 0.09375 -0.304688 0.09375 -0.316406 0.09375 -0.328125 L 0.234375 -0.671875 C 0.242188 -0.679688 0.25 -0.6875 0.25 -0.6875 Z M 0.53125 -0.28125 L 0.53125 -0.296875 L 0.40625 -0.609375 L 0.296875 -0.609375 L 0.171875 -0.296875 L 0.171875 -0.28125 Z M 0.53125 -0.28125 "/></g></g></g><g fill="#e7f0ff" fill-opacity="1"><g transform="translate(20.878439, 17.989864)"><g><path d="M 0.3125 -0.015625 L 0.3125 -0.609375 L 0.109375 -0.609375 C 0.0976562 -0.609375 0.09375 -0.613281 0.09375 -0.625 L 0.09375 -0.671875 C 0.09375 -0.679688 0.0976562 -0.6875 0.109375 -0.6875 L 0.59375 -0.6875 C 0.601562 -0.6875 0.609375 -0.679688 0.609375 -0.671875 L 0.609375 -0.625 C 0.609375 -0.613281 0.601562 -0.609375 0.59375 -0.609375 L 0.390625 -0.609375 L 0.390625 -0.015625 C 0.390625 -0.015625 0.382812 -0.0078125 0.375 0 L 0.328125 0 C 0.316406 0 0.3125 -0.00390625 0.3125 -0.015625 Z M 0.3125 -0.015625 "/></g></g></g><g fill="#e7f0ff" fill-opacity="1"><g transform="translate(21.575622, 17.989864)"><g/></g></g><g fill="#e7f0ff" fill-opacity="1"><g transform="translate(32.628699, 17.989864)"><g><path d="M 0.109375 -0.015625 L 0.109375 -0.671875 C 0.109375 -0.679688 0.113281 -0.6875 0.125 -0.6875 L 0.59375 -0.6875 C 0.59375 -0.6875 0.59375 -0.679688 0.59375 -0.671875 L 0.59375 -0.625 C 0.59375 -0.613281 0.59375 -0.609375 0.59375 -0.609375 L 0.1875 -0.609375 L 0.1875 -0.375 L 0.53125 -0.375 C 0.539062 -0.375 0.546875 -0.367188 0.546875 -0.359375 L 0.546875 -0.3125 C 0.546875 -0.3125 0.539062 -0.3125 0.53125 -0.3125 L 0.1875 -0.3125 L 0.1875 -0.078125 L 0.59375 -0.078125 C 0.59375 -0.078125 0.59375 -0.0703125 0.59375 -0.0625 L 0.59375 -0.015625 C 0.59375 -0.00390625 0.59375 0 0.59375 0 L 0.125 0 C 0.113281 0 0.109375 -0.00390625 0.109375 -0.015625 Z M 0.109375 -0.015625 "/></g></g></g><g fill="#e7f0ff" fill-opacity="1"><g transform="translate(33.324705, 17.989864)"><g><path d="M 0.4375 -0.6875 C 0.445312 -0.6875 0.453125 -0.679688 0.453125 -0.671875 C 0.453125 -0.671875 0.457031 -0.671875 0.46875 -0.671875 L 0.59375 -0.328125 C 0.601562 -0.316406 0.609375 -0.304688 0.609375 -0.296875 L 0.609375 -0.015625 C 0.609375 -0.00390625 0.601562 0 0.59375 0 L 0.546875 0 C 0.535156 0 0.53125 -0.00390625 0.53125 -0.015625 L 0.53125 -0.203125 L 0.171875 -0.203125 L 0.171875 -0.015625 C 0.171875 -0.00390625 0.164062 0 0.15625 0 L 0.109375 0 C 0.0976562 0 0.09375 -0.00390625 0.09375 -0.015625 L 0.09375 -0.296875 C 0.09375 -0.304688 0.09375 -0.316406 0.09375 -0.328125 L 0.234375 -0.671875 C 0.242188 -0.679688 0.25 -0.6875 0.25 -0.6875 Z M 0.53125 -0.28125 L 0.53125 -0.296875 L 0.40625 -0.609375 L 0.296875 -0.609375 L 0.171875 -0.296875 L 0.171875 -0.28125 Z M 0.53125 -0.28125 "/></g></g></g><g fill="#e7f0ff" fill-opacity="1"><g transform="translate(34.021711, 17.989864)"><g><path d="M 0.609375 -0.5 C 0.609375 -0.488281 0.601562 -0.484375 0.59375 -0.484375 L 0.546875 -0.484375 C 0.535156 -0.484375 0.53125 -0.488281 0.53125 -0.5 L 0.53125 -0.546875 C 0.53125 -0.554688 0.519531 -0.566406 0.5 -0.578125 C 0.488281 -0.597656 0.472656 -0.609375 0.453125 -0.609375 L 0.234375 -0.609375 C 0.210938 -0.609375 0.195312 -0.597656 0.1875 -0.578125 C 0.175781 -0.566406 0.171875 -0.554688 0.171875 -0.546875 L 0.171875 -0.140625 C 0.171875 -0.117188 0.175781 -0.101562 0.1875 -0.09375 C 0.195312 -0.0820312 0.210938 -0.078125 0.234375 -0.078125 L 0.453125 -0.078125 C 0.472656 -0.078125 0.488281 -0.0820312 0.5 -0.09375 C 0.519531 -0.101562 0.53125 -0.117188 0.53125 -0.140625 L 0.53125 -0.1875 C 0.53125 -0.195312 0.53125 -0.203125 0.53125 -0.203125 C 0.53125 -0.203125 0.535156 -0.203125 0.546875 -0.203125 L 0.59375 -0.203125 C 0.601562 -0.203125 0.609375 -0.195312 0.609375 -0.1875 L 0.609375 -0.140625 C 0.609375 -0.117188 0.601562 -0.0976562 0.59375 -0.078125 C 0.582031 -0.0664062 0.570312 -0.0507812 0.5625 -0.03125 C 0.550781 -0.0195312 0.535156 -0.0078125 0.515625 0 C 0.492188 0 0.472656 0 0.453125 0 L 0.234375 0 C 0.210938 0 0.191406 0 0.171875 0 C 0.160156 -0.0078125 0.144531 -0.0195312 0.125 -0.03125 C 0.113281 -0.0507812 0.101562 -0.0664062 0.09375 -0.078125 C 0.09375 -0.0976562 0.09375 -0.117188 0.09375 -0.140625 L 0.09375 -0.546875 C 0.09375 -0.554688 0.09375 -0.570312 0.09375 -0.59375 C 0.101562 -0.613281 0.113281 -0.628906 0.125 -0.640625 C 0.144531 -0.648438 0.160156 -0.660156 0.171875 -0.671875 C 0.191406 -0.679688 0.210938 -0.6875 0.234375 -0.6875 L 0.453125 -0.6875 C 0.472656 -0.6875 0.492188 -0.679688 0.515625 -0.671875 C 0.535156 -0.660156 0.550781 -0.648438 0.5625 -0.640625 C 0.570312 -0.628906 0.582031 -0.613281 0.59375 -0.59375 C 0.601562 -0.582031 0.609375 -0.566406 0.609375 -0.546875 Z M 0.609375 -0.5 "/></g></g></g><g fill="#e7f0ff" fill-opacity="1"><g transform="translate(34.718716, 17.989864)"><g><path d="M 0.53125 -0.015625 L 0.53125 -0.3125 L 0.171875 -0.3125 L 0.171875 -0.015625 C 0.171875 -0.00390625 0.164062 0 0.15625 0 L 0.109375 0 C 0.0976562 0 0.09375 -0.00390625 0.09375 -0.015625 L 0.09375 -0.671875 C 0.09375 -0.679688 0.0976562 -0.6875 0.109375 -0.6875 L 0.15625 -0.6875 C 0.164062 -0.6875 0.171875 -0.679688 0.171875 -0.671875 L 0.171875 -0.375 L 0.53125 -0.375 L 0.53125 -0.671875 C 0.53125 -0.679688 0.535156 -0.6875 0.546875 -0.6875 L 0.59375 -0.6875 C 0.601562 -0.6875 0.609375 -0.679688 0.609375 -0.671875 L 0.609375 -0.015625 C 0.609375 -0.00390625 0.601562 0 0.59375 0 L 0.546875 0 C 0.535156 0 0.53125 -0.00390625 0.53125 -0.015625 Z M 0.53125 -0.015625 "/></g></g></g><g fill="#e7f0ff" fill-opacity="1"><g transform="translate(35.414722, 17.989864)"><g/></g></g><g fill="#e7f0ff" fill-opacity="1"><g transform="translate(36.110728, 17.989864)"><g><path d="M 0.09375 -0.015625 L 0.09375 -0.671875 C 0.09375 -0.679688 0.0976562 -0.6875 0.109375 -0.6875 L 0.453125 -0.6875 C 0.472656 -0.6875 0.492188 -0.679688 0.515625 -0.671875 C 0.535156 -0.660156 0.550781 -0.648438 0.5625 -0.640625 C 0.570312 -0.628906 0.582031 -0.613281 0.59375 -0.59375 C 0.601562 -0.570312 0.609375 -0.554688 0.609375 -0.546875 L 0.609375 -0.453125 C 0.609375 -0.429688 0.601562 -0.410156 0.59375 -0.390625 C 0.582031 -0.367188 0.570312 -0.351562 0.5625 -0.34375 C 0.550781 -0.332031 0.535156 -0.320312 0.515625 -0.3125 C 0.492188 -0.3125 0.472656 -0.3125 0.453125 -0.3125 L 0.171875 -0.3125 L 0.171875 -0.015625 C 0.171875 -0.00390625 0.164062 0 0.15625 0 L 0.109375 0 C 0.0976562 0 0.09375 0 0.09375 0 C 0.09375 -0.0078125 0.09375 -0.015625 0.09375 -0.015625 Z M 0.171875 -0.375 L 0.453125 -0.375 C 0.472656 -0.375 0.488281 -0.378906 0.5 -0.390625 C 0.519531 -0.410156 0.53125 -0.429688 0.53125 -0.453125 L 0.53125 -0.546875 C 0.53125 -0.554688 0.519531 -0.566406 0.5 -0.578125 C 0.488281 -0.597656 0.472656 -0.609375 0.453125 -0.609375 L 0.171875 -0.609375 Z M 0.171875 -0.375 "/></g></g></g><g fill="#e7f0ff" fill-opacity="1"><g transform="translate(36.807733, 17.989864)"><g><path d="M 0.109375 -0.015625 L 0.109375 -0.671875 C 0.109375 -0.679688 0.113281 -0.6875 0.125 -0.6875 L 0.59375 -0.6875 C 0.59375 -0.6875 0.59375 -0.679688 0.59375 -0.671875 L 0.59375 -0.625 C 0.59375 -0.613281 0.59375 -0.609375 0.59375 -0.609375 L 0.1875 -0.609375 L 0.1875 -0.375 L 0.53125 -0.375 C 0.539062 -0.375 0.546875 -0.367188 0.546875 -0.359375 L 0.546875 -0.3125 C 0.546875 -0.3125 0.539062 -0.3125 0.53125 -0.3125 L 0.1875 -0.3125 L 0.1875 -0.078125 L 0.59375 -0.078125 C 0.59375 -0.078125 0.59375 -0.0703125 0.59375 -0.0625 L 0.59375 -0.015625 C 0.59375 -0.00390625 0.59375 0 0.59375 0 L 0.125 0 C 0.113281 0 0.109375 -0.00390625 0.109375 -0.015625 Z M 0.109375 -0.015625 "/></g></g></g><g fill="#e7f0ff" fill-opacity="1"><g transform="translate(37.503739, 17.989864)"><g><path d="M 0.515625 -0.015625 L 0.375 -0.3125 L 0.171875 -0.3125 L 0.171875 -0.015625 C 0.171875 -0.00390625 0.164062 0 0.15625 0 L 0.109375 0 C 0.0976562 0 0.09375 -0.00390625 0.09375 -0.015625 L 0.09375 -0.671875 C 0.09375 -0.679688 0.0976562 -0.6875 0.109375 -0.6875 L 0.453125 -0.6875 C 0.472656 -0.6875 0.492188 -0.679688 0.515625 -0.671875 C 0.535156 -0.660156 0.550781 -0.648438 0.5625 -0.640625 C 0.570312 -0.628906 0.582031 -0.613281 0.59375 -0.59375 C 0.601562 -0.570312 0.609375 -0.554688 0.609375 -0.546875 L 0.609375 -0.453125 C 0.609375 -0.421875 0.597656 -0.390625 0.578125 -0.359375 C 0.554688 -0.335938 0.53125 -0.320312 0.5 -0.3125 L 0.46875 -0.296875 L 0.59375 -0.015625 C 0.59375 -0.015625 0.59375 -0.0078125 0.59375 0 L 0.53125 0 C 0.53125 0 0.523438 0 0.515625 0 C 0.515625 -0.0078125 0.515625 -0.015625 0.515625 -0.015625 Z M 0.171875 -0.375 L 0.453125 -0.375 C 0.472656 -0.375 0.488281 -0.378906 0.5 -0.390625 C 0.519531 -0.410156 0.53125 -0.429688 0.53125 -0.453125 L 0.53125 -0.546875 C 0.53125 -0.554688 0.519531 -0.566406 0.5 -0.578125 C 0.488281 -0.597656 0.472656 -0.609375 0.453125 -0.609375 L 0.171875 -0.609375 Z M 0.171875 -0.375 "/></g></g></g><g fill="#e7f0ff" fill-opacity="1"><g transform="translate(38.200744, 17.989864)"><g><path d="M 0.09375 -0.140625 L 0.09375 -0.1875 C 0.09375 -0.195312 0.09375 -0.203125 0.09375 -0.203125 C 0.09375 -0.203125 0.0976562 -0.203125 0.109375 -0.203125 L 0.15625 -0.203125 C 0.164062 -0.203125 0.171875 -0.195312 0.171875 -0.1875 L 0.171875 -0.140625 C 0.171875 -0.117188 0.175781 -0.101562 0.1875 -0.09375 C 0.195312 -0.0820312 0.210938 -0.078125 0.234375 -0.078125 L 0.453125 -0.078125 C 0.472656 -0.078125 0.488281 -0.0820312 0.5 -0.09375 C 0.519531 -0.101562 0.53125 -0.117188 0.53125 -0.140625 L 0.53125 -0.234375 C 0.53125 -0.253906 0.519531 -0.269531 0.5 -0.28125 C 0.488281 -0.300781 0.472656 -0.3125 0.453125 -0.3125 L 0.234375 -0.3125 C 0.210938 -0.3125 0.191406 -0.3125 0.171875 -0.3125 C 0.160156 -0.320312 0.144531 -0.332031 0.125 -0.34375 C 0.113281 -0.351562 0.101562 -0.367188 0.09375 -0.390625 C 0.09375 -0.410156 0.09375 -0.429688 0.09375 -0.453125 L 0.09375 -0.546875 C 0.09375 -0.554688 0.09375 -0.570312 0.09375 -0.59375 C 0.101562 -0.613281 0.113281 -0.628906 0.125 -0.640625 C 0.144531 -0.648438 0.160156 -0.660156 0.171875 -0.671875 C 0.191406 -0.679688 0.210938 -0.6875 0.234375 -0.6875 L 0.453125 -0.6875 C 0.472656 -0.6875 0.492188 -0.679688 0.515625 -0.671875 C 0.535156 -0.660156 0.550781 -0.648438 0.5625 -0.640625 C 0.570312 -0.628906 0.582031 -0.613281 0.59375 -0.59375 C 0.601562 -0.570312 0.609375 -0.554688 0.609375 -0.546875 L 0.609375 -0.5 C 0.609375 -0.488281 0.601562 -0.484375 0.59375 -0.484375 L 0.546875 -0.484375 C 0.535156 -0.484375 0.53125 -0.488281 0.53125 -0.5 L 0.53125 -0.546875 C 0.53125 -0.554688 0.519531 -0.566406 0.5 -0.578125 C 0.488281 -0.597656 0.472656 -0.609375 0.453125 -0.609375 L 0.234375 -0.609375 C 0.210938 -0.609375 0.195312 -0.597656 0.1875 -0.578125 C 0.175781 -0.566406 0.171875 -0.554688 0.171875 -0.546875 L 0.171875 -0.453125 C 0.171875 -0.429688 0.175781 -0.410156 0.1875 -0.390625 C 0.195312 -0.378906 0.210938 -0.375 0.234375 -0.375 L 0.453125 -0.375 C 0.472656 -0.375 0.492188 -0.367188 0.515625 -0.359375 C 0.535156 -0.359375 0.550781 -0.347656 0.5625 -0.328125 C 0.570312 -0.316406 0.582031 -0.300781 0.59375 -0.28125 C 0.601562 -0.269531 0.609375 -0.253906 0.609375 -0.234375 L 0.609375 -0.140625 C 0.609375 -0.117188 0.601562 -0.0976562 0.59375 -0.078125 C 0.582031 -0.0664062 0.570312 -0.0507812 0.5625 -0.03125 C 0.550781 -0.0195312 0.535156 -0.0078125 0.515625 0 C 0.492188 0 0.472656 0 0.453125 0 L 0.234375 0 C 0.210938 0 0.191406 0 0.171875 0 C 0.160156 -0.0078125 0.144531 -0.0195312 0.125 -0.03125 C 0.113281 -0.0507812 0.101562 -0.0664062 0.09375 -0.078125 C 0.09375 -0.0976562 0.09375 -0.117188 0.09375 -0.140625 Z M 0.09375 -0.140625 "/></g></g></g><g fill="#e7f0ff" fill-opacity="1"><g transform="translate(38.89775, 17.989864)"><g><path d="M 0.234375 0 C 0.210938 0 0.191406 0 0.171875 0 C 0.160156 -0.0078125 0.144531 -0.0195312 0.125 -0.03125 C 0.113281 -0.0507812 0.101562 -0.0664062 0.09375 -0.078125 C 0.09375 -0.0976562 0.09375 -0.117188 0.09375 -0.140625 L 0.09375 -0.546875 C 0.09375 -0.554688 0.09375 -0.570312 0.09375 -0.59375 C 0.101562 -0.613281 0.113281 -0.628906 0.125 -0.640625 C 0.144531 -0.648438 0.160156 -0.660156 0.171875 -0.671875 C 0.191406 -0.679688 0.210938 -0.6875 0.234375 -0.6875 L 0.453125 -0.6875 C 0.472656 -0.6875 0.492188 -0.679688 0.515625 -0.671875 C 0.535156 -0.660156 0.550781 -0.648438 0.5625 -0.640625 C 0.570312 -0.628906 0.582031 -0.613281 0.59375 -0.59375 C 0.601562 -0.570312 0.609375 -0.554688 0.609375 -0.546875 L 0.609375 -0.140625 C 0.609375 -0.117188 0.601562 -0.0976562 0.59375 -0.078125 C 0.582031 -0.0664062 0.570312 -0.0507812 0.5625 -0.03125 C 0.550781 -0.0195312 0.535156 -0.0078125 0.515625 0 C 0.492188 0 0.472656 0 0.453125 0 Z M 0.234375 -0.609375 C 0.210938 -0.609375 0.195312 -0.597656 0.1875 -0.578125 C 0.175781 -0.566406 0.171875 -0.554688 0.171875 -0.546875 L 0.171875 -0.140625 C 0.171875 -0.117188 0.175781 -0.101562 0.1875 -0.09375 C 0.195312 -0.0820312 0.210938 -0.078125 0.234375 -0.078125 L 0.453125 -0.078125 C 0.472656 -0.078125 0.488281 -0.0820312 0.5 -0.09375 C 0.519531 -0.101562 0.53125 -0.117188 0.53125 -0.140625 L 0.53125 -0.546875 C 0.53125 -0.554688 0.519531 -0.566406 0.5 -0.578125 C 0.488281 -0.597656 0.472656 -0.609375 0.453125 -0.609375 Z M 0.234375 -0.609375 "/></g></g></g><g fill="#e7f0ff" fill-opacity="1"><g transform="translate(39.594755, 17.989864)"><g><path d="M 0.53125 -0.015625 L 0.53125 -0.296875 L 0.171875 -0.59375 L 0.171875 -0.015625 C 0.171875 -0.00390625 0.164062 0 0.15625 0 L 0.109375 0 C 0.0976562 0 0.09375 0 0.09375 0 C 0.09375 -0.0078125 0.09375 -0.015625 0.09375 -0.015625 L 0.09375 -0.671875 C 0.09375 -0.679688 0.0976562 -0.6875 0.109375 -0.6875 L 0.171875 -0.6875 C 0.179688 -0.6875 0.191406 -0.679688 0.203125 -0.671875 L 0.53125 -0.40625 L 0.53125 -0.671875 C 0.53125 -0.679688 0.535156 -0.6875 0.546875 -0.6875 L 0.59375 -0.6875 C 0.601562 -0.6875 0.609375 -0.679688 0.609375 -0.671875 L 0.609375 -0.015625 C 0.609375 -0.00390625 0.601562 0 0.59375 0 L 0.546875 0 C 0.535156 0 0.53125 -0.00390625 0.53125 -0.015625 Z M 0.53125 -0.015625 "/></g></g></g><g fill="#e7f0ff" fill-opacity="1"><g transform="translate(51.092248, 17.989864)"><g><path d="M 0.546875 -0.671875 C 0.554688 -0.679688 0.5625 -0.6875 0.5625 -0.6875 L 0.609375 -0.6875 C 0.617188 -0.6875 0.625 -0.679688 0.625 -0.671875 L 0.578125 -0.015625 C 0.578125 -0.015625 0.570312 -0.0078125 0.5625 0 L 0.5 0 C 0.488281 0 0.484375 -0.00390625 0.484375 -0.015625 L 0.34375 -0.234375 L 0.21875 -0.015625 C 0.21875 -0.00390625 0.210938 0 0.203125 0 L 0.140625 0 C 0.128906 0 0.125 0 0.125 0 C 0.125 -0.0078125 0.125 -0.015625 0.125 -0.015625 L 0.0625 -0.671875 C 0.0703125 -0.679688 0.078125 -0.6875 0.078125 -0.6875 L 0.125 -0.6875 C 0.132812 -0.6875 0.140625 -0.679688 0.140625 -0.671875 L 0.1875 -0.09375 L 0.3125 -0.3125 C 0.3125 -0.320312 0.316406 -0.328125 0.328125 -0.328125 L 0.375 -0.328125 C 0.382812 -0.328125 0.390625 -0.320312 0.390625 -0.3125 L 0.515625 -0.09375 Z M 0.546875 -0.671875 "/></g></g></g><g fill="#e7f0ff" fill-opacity="1"><g transform="translate(51.789253, 17.989864)"><g><path d="M 0.109375 -0.015625 L 0.109375 -0.0625 C 0.109375 -0.0703125 0.113281 -0.078125 0.125 -0.078125 L 0.3125 -0.078125 L 0.3125 -0.609375 L 0.125 -0.609375 C 0.113281 -0.609375 0.109375 -0.613281 0.109375 -0.625 L 0.109375 -0.671875 C 0.109375 -0.679688 0.113281 -0.6875 0.125 -0.6875 L 0.578125 -0.6875 C 0.585938 -0.6875 0.59375 -0.679688 0.59375 -0.671875 L 0.59375 -0.625 C 0.59375 -0.613281 0.585938 -0.609375 0.578125 -0.609375 L 0.390625 -0.609375 L 0.390625 -0.078125 L 0.578125 -0.078125 C 0.578125 -0.078125 0.578125 -0.0703125 0.578125 -0.0625 C 0.585938 -0.0625 0.59375 -0.0625 0.59375 -0.0625 L 0.59375 -0.015625 C 0.59375 -0.00390625 0.585938 0 0.578125 0 L 0.125 0 C 0.113281 0 0.109375 -0.00390625 0.109375 -0.015625 Z M 0.109375 -0.015625 "/></g></g></g><g fill="#e7f0ff" fill-opacity="1"><g transform="translate(52.486258, 17.989864)"><g><path d="M 0.125 -0.6875 L 0.1875 -0.6875 C 0.1875 -0.6875 0.1875 -0.679688 0.1875 -0.671875 L 0.1875 -0.078125 L 0.578125 -0.078125 C 0.585938 -0.078125 0.59375 -0.0703125 0.59375 -0.0625 L 0.59375 -0.015625 C 0.59375 -0.00390625 0.585938 0 0.578125 0 L 0.125 0 C 0.125 -0.0078125 0.125 -0.015625 0.125 -0.015625 L 0.125 -0.671875 C 0.125 -0.679688 0.125 -0.6875 0.125 -0.6875 Z M 0.125 -0.6875 "/></g></g></g><g fill="#e7f0ff" fill-opacity="1"><g transform="translate(53.183264, 17.989864)"><g><path d="M 0.125 -0.6875 L 0.1875 -0.6875 C 0.1875 -0.6875 0.1875 -0.679688 0.1875 -0.671875 L 0.1875 -0.078125 L 0.578125 -0.078125 C 0.585938 -0.078125 0.59375 -0.0703125 0.59375 -0.0625 L 0.59375 -0.015625 C 0.59375 -0.00390625 0.585938 0 0.578125 0 L 0.125 0 C 0.125 -0.0078125 0.125 -0.015625 0.125 -0.015625 L 0.125 -0.671875 C 0.125 -0.679688 0.125 -0.6875 0.125 -0.6875 Z M 0.125 -0.6875 "/></g></g></g><g fill="#e7f0ff" fill-opacity="1"><g transform="translate(53.880269, 17.989864)"><g/></g></g><g fill="#e7f0ff" fill-opacity="1"><g transform="translate(54.576275, 17.989864)"><g><path d="M 0.234375 0 C 0.210938 0 0.191406 0 0.171875 0 C 0.160156 -0.0078125 0.144531 -0.0195312 0.125 -0.03125 C 0.113281 -0.0507812 0.101562 -0.0664062 0.09375 -0.078125 C 0.09375 -0.0976562 0.09375 -0.117188 0.09375 -0.140625 L 0.09375 -0.546875 C 0.09375 -0.554688 0.09375 -0.570312 0.09375 -0.59375 C 0.101562 -0.613281 0.113281 -0.628906 0.125 -0.640625 C 0.144531 -0.648438 0.160156 -0.660156 0.171875 -0.671875 C 0.191406 -0.679688 0.210938 -0.6875 0.234375 -0.6875 L 0.453125 -0.6875 C 0.472656 -0.6875 0.492188 -0.679688 0.515625 -0.671875 C 0.535156 -0.660156 0.550781 -0.648438 0.5625 -0.640625 C 0.570312 -0.628906 0.582031 -0.613281 0.59375 -0.59375 C 0.601562 -0.570312 0.609375 -0.554688 0.609375 -0.546875 L 0.609375 -0.140625 C 0.609375 -0.117188 0.601562 -0.0976562 0.59375 -0.078125 C 0.582031 -0.0664062 0.570312 -0.0507812 0.5625 -0.03125 C 0.550781 -0.0195312 0.535156 -0.0078125 0.515625 0 C 0.492188 0 0.472656 0 0.453125 0 Z M 0.234375 -0.609375 C 0.210938 -0.609375 0.195312 -0.597656 0.1875 -0.578125 C 0.175781 -0.566406 0.171875 -0.554688 0.171875 -0.546875 L 0.171875 -0.140625 C 0.171875 -0.117188 0.175781 -0.101562 0.1875 -0.09375 C 0.195312 -0.0820312 0.210938 -0.078125 0.234375 -0.078125 L 0.453125 -0.078125 C 0.472656 -0.078125 0.488281 -0.0820312 0.5 -0.09375 C 0.519531 -0.101562 0.53125 -0.117188 0.53125 -0.140625 L 0.53125 -0.546875 C 0.53125 -0.554688 0.519531 -0.566406 0.5 -0.578125 C 0.488281 -0.597656 0.472656 -0.609375 0.453125 -0.609375 Z M 0.234375 -0.609375 "/></g></g></g><g fill="#e7f0ff" fill-opacity="1"><g transform="translate(55.27328, 17.989864)"><g><path d="M 0.53125 -0.015625 L 0.53125 -0.296875 L 0.171875 -0.59375 L 0.171875 -0.015625 C 0.171875 -0.00390625 0.164062 0 0.15625 0 L 0.109375 0 C 0.0976562 0 0.09375 0 0.09375 0 C 0.09375 -0.0078125 0.09375 -0.015625 0.09375 -0.015625 L 0.09375 -0.671875 C 0.09375 -0.679688 0.0976562 -0.6875 0.109375 -0.6875 L 0.171875 -0.6875 C 0.179688 -0.6875 0.191406 -0.679688 0.203125 -0.671875 L 0.53125 -0.40625 L 0.53125 -0.671875 C 0.53125 -0.679688 0.535156 -0.6875 0.546875 -0.6875 L 0.59375 -0.6875 C 0.601562 -0.6875 0.609375 -0.679688 0.609375 -0.671875 L 0.609375 -0.015625 C 0.609375 -0.00390625 0.601562 0 0.59375 0 L 0.546875 0 C 0.535156 0 0.53125 -0.00390625 0.53125 -0.015625 Z M 0.53125 -0.015625 "/></g></g></g><g fill="#e7f0ff" fill-opacity="1"><g transform="translate(55.970286, 17.989864)"><g><path d="M 0.125 -0.6875 L 0.1875 -0.6875 C 0.1875 -0.6875 0.1875 -0.679688 0.1875 -0.671875 L 0.1875 -0.078125 L 0.578125 -0.078125 C 0.585938 -0.078125 0.59375 -0.0703125 0.59375 -0.0625 L 0.59375 -0.015625 C 0.59375 -0.00390625 0.585938 0 0.578125 0 L 0.125 0 C 0.125 -0.0078125 0.125 -0.015625 0.125 -0.015625 L 0.125 -0.671875 C 0.125 -0.679688 0.125 -0.6875 0.125 -0.6875 Z M 0.125 -0.6875 "/></g></g></g><g fill="#e7f0ff" fill-opacity="1"><g transform="translate(56.667291, 17.989864)"><g><path d="M 0.09375 -0.484375 C 0.09375 -0.492188 0.09375 -0.5 0.09375 -0.5 C 0.09375 -0.507812 0.09375 -0.515625 0.09375 -0.515625 L 0.09375 -0.671875 C 0.09375 -0.679688 0.0976562 -0.6875 0.109375 -0.6875 L 0.15625 -0.6875 C 0.15625 -0.6875 0.15625 -0.679688 0.15625 -0.671875 C 0.164062 -0.671875 0.171875 -0.671875 0.171875 -0.671875 L 0.171875 -0.546875 C 0.171875 -0.535156 0.171875 -0.53125 0.171875 -0.53125 C 0.171875 -0.53125 0.171875 -0.523438 0.171875 -0.515625 L 0.34375 -0.359375 L 0.515625 -0.515625 C 0.523438 -0.523438 0.53125 -0.53125 0.53125 -0.53125 C 0.53125 -0.53125 0.53125 -0.535156 0.53125 -0.546875 L 0.53125 -0.671875 C 0.53125 -0.679688 0.535156 -0.6875 0.546875 -0.6875 L 0.59375 -0.6875 C 0.59375 -0.6875 0.59375 -0.679688 0.59375 -0.671875 C 0.601562 -0.671875 0.609375 -0.671875 0.609375 -0.671875 L 0.609375 -0.515625 C 0.609375 -0.515625 0.601562 -0.507812 0.59375 -0.5 C 0.59375 -0.5 0.59375 -0.492188 0.59375 -0.484375 L 0.390625 -0.28125 L 0.390625 -0.015625 C 0.390625 -0.015625 0.382812 -0.0078125 0.375 0 L 0.328125 0 C 0.316406 0 0.3125 -0.00390625 0.3125 -0.015625 L 0.3125 -0.28125 Z M 0.09375 -0.484375 "/></g></g></g><g fill="#e7f0ff" fill-opacity="1"><g transform="translate(57.363297, 17.989864)"><g/></g></g><g fill="#e7f0ff" fill-opacity="1"><g transform="translate(58.059303, 17.989864)"><g><path d="M 0.53125 -0.015625 L 0.53125 -0.3125 L 0.171875 -0.3125 L 0.171875 -0.015625 C 0.171875 -0.00390625 0.164062 0 0.15625 0 L 0.109375 0 C 0.0976562 0 0.09375 -0.00390625 0.09375 -0.015625 L 0.09375 -0.671875 C 0.09375 -0.679688 0.0976562 -0.6875 0.109375 -0.6875 L 0.15625 -0.6875 C 0.164062 -0.6875 0.171875 -0.679688 0.171875 -0.671875 L 0.171875 -0.375 L 0.53125 -0.375 L 0.53125 -0.671875 C 0.53125 -0.679688 0.535156 -0.6875 0.546875 -0.6875 L 0.59375 -0.6875 C 0.601562 -0.6875 0.609375 -0.679688 0.609375 -0.671875 L 0.609375 -0.015625 C 0.609375 -0.00390625 0.601562 0 0.59375 0 L 0.546875 0 C 0.535156 0 0.53125 -0.00390625 0.53125 -0.015625 Z M 0.53125 -0.015625 "/></g></g></g><g fill="#e7f0ff" fill-opacity="1"><g transform="translate(58.755309, 17.989864)"><g><path d="M 0.4375 -0.6875 C 0.445312 -0.6875 0.453125 -0.679688 0.453125 -0.671875 C 0.453125 -0.671875 0.457031 -0.671875 0.46875 -0.671875 L 0.59375 -0.328125 C 0.601562 -0.316406 0.609375 -0.304688 0.609375 -0.296875 L 0.609375 -0.015625 C 0.609375 -0.00390625 0.601562 0 0.59375 0 L 0.546875 0 C 0.535156 0 0.53125 -0.00390625 0.53125 -0.015625 L 0.53125 -0.203125 L 0.171875 -0.203125 L 0.171875 -0.015625 C 0.171875 -0.00390625 0.164062 0 0.15625 0 L 0.109375 0 C 0.0976562 0 0.09375 -0.00390625 0.09375 -0.015625 L 0.09375 -0.296875 C 0.09375 -0.304688 0.09375 -0.316406 0.09375 -0.328125 L 0.234375 -0.671875 C 0.242188 -0.679688 0.25 -0.6875 0.25 -0.6875 Z M 0.53125 -0.28125 L 0.53125 -0.296875 L 0.40625 -0.609375 L 0.296875 -0.609375 L 0.171875 -0.296875 L 0.171875 -0.28125 Z M 0.53125 -0.28125 "/></g></g></g><g fill="#e7f0ff" fill-opacity="1"><g transform="translate(59.452314, 17.989864)"><g><path d="M 0.234375 -0.015625 L 0.09375 -0.359375 C 0.09375 -0.367188 0.09375 -0.378906 0.09375 -0.390625 L 0.09375 -0.671875 C 0.09375 -0.679688 0.0976562 -0.6875 0.109375 -0.6875 L 0.15625 -0.6875 C 0.164062 -0.6875 0.171875 -0.679688 0.171875 -0.671875 L 0.171875 -0.40625 C 0.171875 -0.394531 0.171875 -0.382812 0.171875 -0.375 L 0.296875 -0.078125 L 0.40625 -0.078125 L 0.53125 -0.375 C 0.53125 -0.382812 0.53125 -0.394531 0.53125 -0.40625 L 0.53125 -0.671875 C 0.53125 -0.679688 0.535156 -0.6875 0.546875 -0.6875 L 0.59375 -0.6875 C 0.601562 -0.6875 0.609375 -0.679688 0.609375 -0.671875 L 0.609375 -0.390625 C 0.609375 -0.378906 0.609375 -0.367188 0.609375 -0.359375 C 0.609375 -0.359375 0.601562 -0.359375 0.59375 -0.359375 L 0.46875 -0.015625 C 0.457031 -0.015625 0.453125 -0.0078125 0.453125 0 C 0.453125 0 0.445312 0 0.4375 0 L 0.25 0 C 0.25 0 0.242188 0 0.234375 0 C 0.234375 -0.0078125 0.234375 -0.015625 0.234375 -0.015625 Z M 0.234375 -0.015625 "/></g></g></g><g fill="#e7f0ff" fill-opacity="1"><g transform="translate(60.14832, 17.989864)"><g><path d="M 0.109375 -0.015625 L 0.109375 -0.671875 C 0.109375 -0.679688 0.113281 -0.6875 0.125 -0.6875 L 0.59375 -0.6875 C 0.59375 -0.6875 0.59375 -0.679688 0.59375 -0.671875 L 0.59375 -0.625 C 0.59375 -0.613281 0.59375 -0.609375 0.59375 -0.609375 L 0.1875 -0.609375 L 0.1875 -0.375 L 0.53125 -0.375 C 0.539062 -0.375 0.546875 -0.367188 0.546875 -0.359375 L 0.546875 -0.3125 C 0.546875 -0.3125 0.539062 -0.3125 0.53125 -0.3125 L 0.1875 -0.3125 L 0.1875 -0.078125 L 0.59375 -0.078125 C 0.59375 -0.078125 0.59375 -0.0703125 0.59375 -0.0625 L 0.59375 -0.015625 C 0.59375 -0.00390625 0.59375 0 0.59375 0 L 0.125 0 C 0.113281 0 0.109375 -0.00390625 0.109375 -0.015625 Z M 0.109375 -0.015625 "/></g></g></g><g fill="#e7f0ff" fill-opacity="1"><g transform="translate(10.847659, 50.898542)"><g><path d="M 0.546875 -0.671875 C 0.554688 -0.679688 0.5625 -0.6875 0.5625 -0.6875 L 0.609375 -0.6875 C 0.617188 -0.6875 0.625 -0.679688 0.625 -0.671875 L 0.578125 -0.015625 C 0.578125 -0.015625 0.570312 -0.0078125 0.5625 0 L 0.5 0 C 0.488281 0 0.484375 -0.00390625 0.484375 -0.015625 L 0.34375 -0.234375 L 0.21875 -0.015625 C 0.21875 -0.00390625 0.210938 0 0.203125 0 L 0.140625 0 C 0.128906 0 0.125 0 0.125 0 C 0.125 -0.0078125 0.125 -0.015625 0.125 -0.015625 L 0.0625 -0.671875 C 0.0703125 -0.679688 0.078125 -0.6875 0.078125 -0.6875 L 0.125 -0.6875 C 0.132812 -0.6875 0.140625 -0.679688 0.140625 -0.671875 L 0.1875 -0.09375 L 0.3125 -0.3125 C 0.3125 -0.320312 0.316406 -0.328125 0.328125 -0.328125 L 0.375 -0.328125 C 0.382812 -0.328125 0.390625 -0.320312 0.390625 -0.3125 L 0.515625 -0.09375 Z M 0.546875 -0.671875 "/></g></g></g><g fill="#e7f0ff" fill-opacity="1"><g transform="translate(11.544664, 50.898542)"><g><path d="M 0.53125 -0.015625 L 0.53125 -0.3125 L 0.171875 -0.3125 L 0.171875 -0.015625 C 0.171875 -0.00390625 0.164062 0 0.15625 0 L 0.109375 0 C 0.0976562 0 0.09375 -0.00390625 0.09375 -0.015625 L 0.09375 -0.671875 C 0.09375 -0.679688 0.0976562 -0.6875 0.109375 -0.6875 L 0.15625 -0.6875 C 0.164062 -0.6875 0.171875 -0.679688 0.171875 -0.671875 L 0.171875 -0.375 L 0.53125 -0.375 L 0.53125 -0.671875 C 0.53125 -0.679688 0.535156 -0.6875 0.546875 -0.6875 L 0.59375 -0.6875 C 0.601562 -0.6875 0.609375 -0.679688 0.609375 -0.671875 L 0.609375 -0.015625 C 0.609375 -0.00390625 0.601562 0 0.59375 0 L 0.546875 0 C 0.535156 0 0.53125 -0.00390625 0.53125 -0.015625 Z M 0.53125 -0.015625 "/></g></g></g><g fill="#e7f0ff" fill-opacity="1"><g transform="translate(12.24067, 50.898542)"><g><path d="M 0.4375 -0.6875 C 0.445312 -0.6875 0.453125 -0.679688 0.453125 -0.671875 C 0.453125 -0.671875 0.457031 -0.671875 0.46875 -0.671875 L 0.59375 -0.328125 C 0.601562 -0.316406 0.609375 -0.304688 0.609375 -0.296875 L 0.609375 -0.015625 C 0.609375 -0.00390625 0.601562 0 0.59375 0 L 0.546875 0 C 0.535156 0 0.53125 -0.00390625 0.53125 -0.015625 L 0.53125 -0.203125 L 0.171875 -0.203125 L 0.171875 -0.015625 C 0.171875 -0.00390625 0.164062 0 0.15625 0 L 0.109375 0 C 0.0976562 0 0.09375 -0.00390625 0.09375 -0.015625 L 0.09375 -0.296875 C 0.09375 -0.304688 0.09375 -0.316406 0.09375 -0.328125 L 0.234375 -0.671875 C 0.242188 -0.679688 0.25 -0.6875 0.25 -0.6875 Z M 0.53125 -0.28125 L 0.53125 -0.296875 L 0.40625 -0.609375 L 0.296875 -0.609375 L 0.171875 -0.296875 L 0.171875 -0.28125 Z M 0.53125 -0.28125 "/></g></g></g><g fill="#e7f0ff" fill-opacity="1"><g transform="translate(12.937676, 50.898542)"><g><path d="M 0.3125 -0.015625 L 0.3125 -0.609375 L 0.109375 -0.609375 C 0.0976562 -0.609375 0.09375 -0.613281 0.09375 -0.625 L 0.09375 -0.671875 C 0.09375 -0.679688 0.0976562 -0.6875 0.109375 -0.6875 L 0.59375 -0.6875 C 0.601562 -0.6875 0.609375 -0.679688 0.609375 -0.671875 L 0.609375 -0.625 C 0.609375 -0.613281 0.601562 -0.609375 0.59375 -0.609375 L 0.390625 -0.609375 L 0.390625 -0.015625 C 0.390625 -0.015625 0.382812 -0.0078125 0.375 0 L 0.328125 0 C 0.316406 0 0.3125 -0.00390625 0.3125 -0.015625 Z M 0.3125 -0.015625 "/></g></g></g><g fill="#e7f0ff" fill-opacity="1"><g transform="translate(13.634681, 50.898542)"><g/></g></g><g fill="#e7f0ff" fill-opacity="1"><g transform="translate(14.330687, 50.898542)"><g><path d="M 0.3125 -0.015625 L 0.3125 -0.609375 L 0.109375 -0.609375 C 0.0976562 -0.609375 0.09375 -0.613281 0.09375 -0.625 L 0.09375 -0.671875 C 0.09375 -0.679688 0.0976562 -0.6875 0.109375 -0.6875 L 0.59375 -0.6875 C 0.601562 -0.6875 0.609375 -0.679688 0.609375 -0.671875 L 0.609375 -0.625 C 0.609375 -0.613281 0.601562 -0.609375 0.59375 -0.609375 L 0.390625 -0.609375 L 0.390625 -0.015625 C 0.390625 -0.015625 0.382812 -0.0078125 0.375 0 L 0.328125 0 C 0.316406 0 0.3125 -0.00390625 0.3125 -0.015625 Z M 0.3125 -0.015625 "/></g></g></g><g fill="#e7f0ff" fill-opacity="1"><g transform="translate(15.027692, 50.898542)"><g><path d="M 0.53125 -0.015625 L 0.53125 -0.3125 L 0.171875 -0.3125 L 0.171875 -0.015625 C 0.171875 -0.00390625 0.164062 0 0.15625 0 L 0.109375 0 C 0.0976562 0 0.09375 -0.00390625 0.09375 -0.015625 L 0.09375 -0.671875 C 0.09375 -0.679688 0.0976562 -0.6875 0.109375 -0.6875 L 0.15625 -0.6875 C 0.164062 -0.6875 0.171875 -0.679688 0.171875 -0.671875 L 0.171875 -0.375 L 0.53125 -0.375 L 0.53125 -0.671875 C 0.53125 -0.679688 0.535156 -0.6875 0.546875 -0.6875 L 0.59375 -0.6875 C 0.601562 -0.6875 0.609375 -0.679688 0.609375 -0.671875 L 0.609375 -0.015625 C 0.609375 -0.00390625 0.601562 0 0.59375 0 L 0.546875 0 C 0.535156 0 0.53125 -0.00390625 0.53125 -0.015625 Z M 0.53125 -0.015625 "/></g></g></g><g fill="#e7f0ff" fill-opacity="1"><g transform="translate(15.723698, 50.898542)"><g><path d="M 0.109375 -0.015625 L 0.109375 -0.671875 C 0.109375 -0.679688 0.113281 -0.6875 0.125 -0.6875 L 0.59375 -0.6875 C 0.59375 -0.6875 0.59375 -0.679688 0.59375 -0.671875 L 0.59375 -0.625 C 0.59375 -0.613281 0.59375 -0.609375 0.59375 -0.609375 L 0.1875 -0.609375 L 0.1875 -0.375 L 0.53125 -0.375 C 0.539062 -0.375 0.546875 -0.367188 0.546875 -0.359375 L 0.546875 -0.3125 C 0.546875 -0.3125 0.539062 -0.3125 0.53125 -0.3125 L 0.1875 -0.3125 L 0.1875 -0.078125 L 0.59375 -0.078125 C 0.59375 -0.078125 0.59375 -0.0703125 0.59375 -0.0625 L 0.59375 -0.015625 C 0.59375 -0.00390625 0.59375 0 0.59375 0 L 0.125 0 C 0.113281 0 0.109375 -0.00390625 0.109375 -0.015625 Z M 0.109375 -0.015625 "/></g></g></g><g fill="#e7f0ff" fill-opacity="1"><g transform="translate(16.419704, 50.898542)"><g><path d="M 0.09375 -0.484375 C 0.09375 -0.492188 0.09375 -0.5 0.09375 -0.5 C 0.09375 -0.507812 0.09375 -0.515625 0.09375 -0.515625 L 0.09375 -0.671875 C 0.09375 -0.679688 0.0976562 -0.6875 0.109375 -0.6875 L 0.15625 -0.6875 C 0.15625 -0.6875 0.15625 -0.679688 0.15625 -0.671875 C 0.164062 -0.671875 0.171875 -0.671875 0.171875 -0.671875 L 0.171875 -0.546875 C 0.171875 -0.535156 0.171875 -0.53125 0.171875 -0.53125 C 0.171875 -0.53125 0.171875 -0.523438 0.171875 -0.515625 L 0.34375 -0.359375 L 0.515625 -0.515625 C 0.523438 -0.523438 0.53125 -0.53125 0.53125 -0.53125 C 0.53125 -0.53125 0.53125 -0.535156 0.53125 -0.546875 L 0.53125 -0.671875 C 0.53125 -0.679688 0.535156 -0.6875 0.546875 -0.6875 L 0.59375 -0.6875 C 0.59375 -0.6875 0.59375 -0.679688 0.59375 -0.671875 C 0.601562 -0.671875 0.609375 -0.671875 0.609375 -0.671875 L 0.609375 -0.515625 C 0.609375 -0.515625 0.601562 -0.507812 0.59375 -0.5 C 0.59375 -0.5 0.59375 -0.492188 0.59375 -0.484375 L 0.390625 -0.28125 L 0.390625 -0.015625 C 0.390625 -0.015625 0.382812 -0.0078125 0.375 0 L 0.328125 0 C 0.316406 0 0.3125 -0.00390625 0.3125 -0.015625 L 0.3125 -0.28125 Z M 0.09375 -0.484375 "/></g></g></g><g fill="#e7f0ff" fill-opacity="1"><g transform="translate(29.638893, 50.898542)"><g><path d="M 0.109375 -0.015625 L 0.109375 -0.671875 C 0.109375 -0.679688 0.113281 -0.6875 0.125 -0.6875 L 0.59375 -0.6875 C 0.59375 -0.6875 0.59375 -0.679688 0.59375 -0.671875 L 0.59375 -0.625 C 0.59375 -0.613281 0.59375 -0.609375 0.59375 -0.609375 L 0.1875 -0.609375 L 0.1875 -0.375 L 0.53125 -0.375 C 0.539062 -0.375 0.546875 -0.367188 0.546875 -0.359375 L 0.546875 -0.3125 C 0.546875 -0.3125 0.539062 -0.3125 0.53125 -0.3125 L 0.1875 -0.3125 L 0.1875 -0.078125 L 0.59375 -0.078125 C 0.59375 -0.078125 0.59375 -0.0703125 0.59375 -0.0625 L 0.59375 -0.015625 C 0.59375 -0.00390625 0.59375 0 0.59375 0 L 0.125 0 C 0.113281 0 0.109375 -0.00390625 0.109375 -0.015625 Z M 0.109375 -0.015625 "/></g></g></g><g fill="#e7f0ff" fill-opacity="1"><g transform="translate(30.334899, 50.898542)"><g><path d="M 0.53125 -0.015625 L 0.53125 -0.296875 L 0.171875 -0.59375 L 0.171875 -0.015625 C 0.171875 -0.00390625 0.164062 0 0.15625 0 L 0.109375 0 C 0.0976562 0 0.09375 0 0.09375 0 C 0.09375 -0.0078125 0.09375 -0.015625 0.09375 -0.015625 L 0.09375 -0.671875 C 0.09375 -0.679688 0.0976562 -0.6875 0.109375 -0.6875 L 0.171875 -0.6875 C 0.179688 -0.6875 0.191406 -0.679688 0.203125 -0.671875 L 0.53125 -0.40625 L 0.53125 -0.671875 C 0.53125 -0.679688 0.535156 -0.6875 0.546875 -0.6875 L 0.59375 -0.6875 C 0.601562 -0.6875 0.609375 -0.679688 0.609375 -0.671875 L 0.609375 -0.015625 C 0.609375 -0.00390625 0.601562 0 0.59375 0 L 0.546875 0 C 0.535156 0 0.53125 -0.00390625 0.53125 -0.015625 Z M 0.53125 -0.015625 "/></g></g></g><g fill="#e7f0ff" fill-opacity="1"><g transform="translate(31.031904, 50.898542)"><g><path d="M 0.09375 -0.015625 L 0.09375 -0.671875 C 0.09375 -0.679688 0.0976562 -0.6875 0.109375 -0.6875 L 0.453125 -0.6875 C 0.472656 -0.6875 0.492188 -0.679688 0.515625 -0.671875 C 0.535156 -0.660156 0.550781 -0.648438 0.5625 -0.640625 C 0.570312 -0.628906 0.582031 -0.613281 0.59375 -0.59375 C 0.601562 -0.570312 0.609375 -0.554688 0.609375 -0.546875 L 0.609375 -0.140625 C 0.609375 -0.117188 0.601562 -0.0976562 0.59375 -0.078125 C 0.582031 -0.0664062 0.570312 -0.0507812 0.5625 -0.03125 C 0.550781 -0.0195312 0.535156 -0.0078125 0.515625 0 C 0.492188 0 0.472656 0 0.453125 0 L 0.109375 0 C 0.0976562 0 0.09375 0 0.09375 0 C 0.09375 -0.0078125 0.09375 -0.015625 0.09375 -0.015625 Z M 0.171875 -0.078125 L 0.453125 -0.078125 C 0.472656 -0.078125 0.488281 -0.0820312 0.5 -0.09375 C 0.519531 -0.101562 0.53125 -0.117188 0.53125 -0.140625 L 0.53125 -0.546875 C 0.53125 -0.554688 0.519531 -0.566406 0.5 -0.578125 C 0.488281 -0.597656 0.472656 -0.609375 0.453125 -0.609375 L 0.171875 -0.609375 Z M 0.171875 -0.078125 "/></g></g></g><g fill="#e7f0ff" fill-opacity="1"><g transform="translate(31.72891, 50.898542)"><g><path d="M 0.109375 -0.015625 L 0.109375 -0.671875 C 0.109375 -0.679688 0.113281 -0.6875 0.125 -0.6875 L 0.59375 -0.6875 C 0.59375 -0.6875 0.59375 -0.679688 0.59375 -0.671875 L 0.59375 -0.625 C 0.59375 -0.613281 0.59375 -0.609375 0.59375 -0.609375 L 0.1875 -0.609375 L 0.1875 -0.375 L 0.53125 -0.375 C 0.539062 -0.375 0.546875 -0.367188 0.546875 -0.359375 L 0.546875 -0.3125 C 0.546875 -0.3125 0.539062 -0.3125 0.53125 -0.3125 L 0.1875 -0.3125 L 0.1875 -0.078125 L 0.59375 -0.078125 C 0.59375 -0.078125 0.59375 -0.0703125 0.59375 -0.0625 L 0.59375 -0.015625 C 0.59375 -0.00390625 0.59375 0 0.59375 0 L 0.125 0 C 0.113281 0 0.109375 -0.00390625 0.109375 -0.015625 Z M 0.109375 -0.015625 "/></g></g></g><g fill="#e7f0ff" fill-opacity="1"><g transform="translate(32.424915, 50.898542)"><g><path d="M 0.4375 -0.6875 C 0.445312 -0.6875 0.453125 -0.679688 0.453125 -0.671875 C 0.453125 -0.671875 0.457031 -0.671875 0.46875 -0.671875 L 0.59375 -0.328125 C 0.601562 -0.316406 0.609375 -0.304688 0.609375 -0.296875 L 0.609375 -0.015625 C 0.609375 -0.00390625 0.601562 0 0.59375 0 L 0.546875 0 C 0.535156 0 0.53125 -0.00390625 0.53125 -0.015625 L 0.53125 -0.203125 L 0.171875 -0.203125 L 0.171875 -0.015625 C 0.171875 -0.00390625 0.164062 0 0.15625 0 L 0.109375 0 C 0.0976562 0 0.09375 -0.00390625 0.09375 -0.015625 L 0.09375 -0.296875 C 0.09375 -0.304688 0.09375 -0.316406 0.09375 -0.328125 L 0.234375 -0.671875 C 0.242188 -0.679688 0.25 -0.6875 0.25 -0.6875 Z M 0.53125 -0.28125 L 0.53125 -0.296875 L 0.40625 -0.609375 L 0.296875 -0.609375 L 0.171875 -0.296875 L 0.171875 -0.28125 Z M 0.53125 -0.28125 "/></g></g></g><g fill="#e7f0ff" fill-opacity="1"><g transform="translate(33.121921, 50.898542)"><g><path d="M 0.234375 -0.015625 L 0.09375 -0.359375 C 0.09375 -0.367188 0.09375 -0.378906 0.09375 -0.390625 L 0.09375 -0.671875 C 0.09375 -0.679688 0.0976562 -0.6875 0.109375 -0.6875 L 0.15625 -0.6875 C 0.164062 -0.6875 0.171875 -0.679688 0.171875 -0.671875 L 0.171875 -0.40625 C 0.171875 -0.394531 0.171875 -0.382812 0.171875 -0.375 L 0.296875 -0.078125 L 0.40625 -0.078125 L 0.53125 -0.375 C 0.53125 -0.382812 0.53125 -0.394531 0.53125 -0.40625 L 0.53125 -0.671875 C 0.53125 -0.679688 0.535156 -0.6875 0.546875 -0.6875 L 0.59375 -0.6875 C 0.601562 -0.6875 0.609375 -0.679688 0.609375 -0.671875 L 0.609375 -0.390625 C 0.609375 -0.378906 0.609375 -0.367188 0.609375 -0.359375 C 0.609375 -0.359375 0.601562 -0.359375 0.59375 -0.359375 L 0.46875 -0.015625 C 0.457031 -0.015625 0.453125 -0.0078125 0.453125 0 C 0.453125 0 0.445312 0 0.4375 0 L 0.25 0 C 0.25 0 0.242188 0 0.234375 0 C 0.234375 -0.0078125 0.234375 -0.015625 0.234375 -0.015625 Z M 0.234375 -0.015625 "/></g></g></g><g fill="#e7f0ff" fill-opacity="1"><g transform="translate(33.817927, 50.898542)"><g><path d="M 0.234375 0 C 0.210938 0 0.191406 0 0.171875 0 C 0.160156 -0.0078125 0.144531 -0.0195312 0.125 -0.03125 C 0.113281 -0.0507812 0.101562 -0.0664062 0.09375 -0.078125 C 0.09375 -0.0976562 0.09375 -0.117188 0.09375 -0.140625 L 0.09375 -0.546875 C 0.09375 -0.554688 0.09375 -0.570312 0.09375 -0.59375 C 0.101562 -0.613281 0.113281 -0.628906 0.125 -0.640625 C 0.144531 -0.648438 0.160156 -0.660156 0.171875 -0.671875 C 0.191406 -0.679688 0.210938 -0.6875 0.234375 -0.6875 L 0.453125 -0.6875 C 0.472656 -0.6875 0.492188 -0.679688 0.515625 -0.671875 C 0.535156 -0.660156 0.550781 -0.648438 0.5625 -0.640625 C 0.570312 -0.628906 0.582031 -0.613281 0.59375 -0.59375 C 0.601562 -0.570312 0.609375 -0.554688 0.609375 -0.546875 L 0.609375 -0.140625 C 0.609375 -0.117188 0.601562 -0.0976562 0.59375 -0.078125 C 0.582031 -0.0664062 0.570312 -0.0507812 0.5625 -0.03125 C 0.550781 -0.0195312 0.535156 -0.0078125 0.515625 0 C 0.492188 0 0.472656 0 0.453125 0 Z M 0.234375 -0.609375 C 0.210938 -0.609375 0.195312 -0.597656 0.1875 -0.578125 C 0.175781 -0.566406 0.171875 -0.554688 0.171875 -0.546875 L 0.171875 -0.140625 C 0.171875 -0.117188 0.175781 -0.101562 0.1875 -0.09375 C 0.195312 -0.0820312 0.210938 -0.078125 0.234375 -0.078125 L 0.453125 -0.078125 C 0.472656 -0.078125 0.488281 -0.0820312 0.5 -0.09375 C 0.519531 -0.101562 0.53125 -0.117188 0.53125 -0.140625 L 0.53125 -0.546875 C 0.53125 -0.554688 0.519531 -0.566406 0.5 -0.578125 C 0.488281 -0.597656 0.472656 -0.609375 0.453125 -0.609375 Z M 0.234375 -0.609375 "/></g></g></g><g fill="#e7f0ff" fill-opacity="1"><g transform="translate(34.514932, 50.898542)"><g><path d="M 0.09375 -0.140625 L 0.09375 -0.671875 C 0.09375 -0.679688 0.0976562 -0.6875 0.109375 -0.6875 L 0.15625 -0.6875 C 0.164062 -0.6875 0.171875 -0.679688 0.171875 -0.671875 L 0.171875 -0.140625 C 0.171875 -0.117188 0.175781 -0.101562 0.1875 -0.09375 C 0.195312 -0.0820312 0.210938 -0.078125 0.234375 -0.078125 L 0.453125 -0.078125 C 0.472656 -0.078125 0.488281 -0.0820312 0.5 -0.09375 C 0.519531 -0.101562 0.53125 -0.117188 0.53125 -0.140625 L 0.53125 -0.671875 C 0.53125 -0.679688 0.535156 -0.6875 0.546875 -0.6875 L 0.59375 -0.6875 C 0.601562 -0.6875 0.609375 -0.679688 0.609375 -0.671875 L 0.609375 -0.140625 C 0.609375 -0.117188 0.601562 -0.0976562 0.59375 -0.078125 C 0.582031 -0.0664062 0.570312 -0.0507812 0.5625 -0.03125 C 0.550781 -0.0195312 0.535156 -0.0078125 0.515625 0 C 0.492188 0 0.472656 0 0.453125 0 L 0.234375 0 C 0.210938 0 0.191406 0 0.171875 0 C 0.160156 -0.0078125 0.144531 -0.0195312 0.125 -0.03125 C 0.113281 -0.0507812 0.101562 -0.0664062 0.09375 -0.078125 C 0.09375 -0.0976562 0.09375 -0.117188 0.09375 -0.140625 Z M 0.09375 -0.140625 "/></g></g></g><g fill="#e7f0ff" fill-opacity="1"><g transform="translate(35.211937, 50.898542)"><g><path d="M 0.515625 -0.015625 L 0.375 -0.3125 L 0.171875 -0.3125 L 0.171875 -0.015625 C 0.171875 -0.00390625 0.164062 0 0.15625 0 L 0.109375 0 C 0.0976562 0 0.09375 -0.00390625 0.09375 -0.015625 L 0.09375 -0.671875 C 0.09375 -0.679688 0.0976562 -0.6875 0.109375 -0.6875 L 0.453125 -0.6875 C 0.472656 -0.6875 0.492188 -0.679688 0.515625 -0.671875 C 0.535156 -0.660156 0.550781 -0.648438 0.5625 -0.640625 C 0.570312 -0.628906 0.582031 -0.613281 0.59375 -0.59375 C 0.601562 -0.570312 0.609375 -0.554688 0.609375 -0.546875 L 0.609375 -0.453125 C 0.609375 -0.421875 0.597656 -0.390625 0.578125 -0.359375 C 0.554688 -0.335938 0.53125 -0.320312 0.5 -0.3125 L 0.46875 -0.296875 L 0.59375 -0.015625 C 0.59375 -0.015625 0.59375 -0.0078125 0.59375 0 L 0.53125 0 C 0.53125 0 0.523438 0 0.515625 0 C 0.515625 -0.0078125 0.515625 -0.015625 0.515625 -0.015625 Z M 0.171875 -0.375 L 0.453125 -0.375 C 0.472656 -0.375 0.488281 -0.378906 0.5 -0.390625 C 0.519531 -0.410156 0.53125 -0.429688 0.53125 -0.453125 L 0.53125 -0.546875 C 0.53125 -0.554688 0.519531 -0.566406 0.5 -0.578125 C 0.488281 -0.597656 0.472656 -0.609375 0.453125 -0.609375 L 0.171875 -0.609375 Z M 0.171875 -0.375 "/></g></g></g><g fill="#e7f0ff" fill-opacity="1"><g transform="translate(35.908943, 50.898542)"><g><path d="M 0.109375 -0.015625 L 0.109375 -0.671875 C 0.109375 -0.679688 0.113281 -0.6875 0.125 -0.6875 L 0.59375 -0.6875 C 0.59375 -0.6875 0.59375 -0.679688 0.59375 -0.671875 L 0.59375 -0.625 C 0.59375 -0.613281 0.59375 -0.609375 0.59375 -0.609375 L 0.1875 -0.609375 L 0.1875 -0.375 L 0.53125 -0.375 C 0.539062 -0.375 0.546875 -0.367188 0.546875 -0.359375 L 0.546875 -0.3125 C 0.546875 -0.3125 0.539062 -0.3125 0.53125 -0.3125 L 0.1875 -0.3125 L 0.1875 -0.078125 L 0.59375 -0.078125 C 0.59375 -0.078125 0.59375 -0.0703125 0.59375 -0.0625 L 0.59375 -0.015625 C 0.59375 -0.00390625 0.59375 0 0.59375 0 L 0.125 0 C 0.113281 0 0.109375 -0.00390625 0.109375 -0.015625 Z M 0.109375 -0.015625 "/></g></g></g><g fill="#e7f0ff" fill-opacity="1"><g transform="translate(36.604949, 50.898542)"><g><path d="M 0.09375 -0.015625 L 0.09375 -0.671875 C 0.09375 -0.679688 0.0976562 -0.6875 0.109375 -0.6875 L 0.453125 -0.6875 C 0.472656 -0.6875 0.492188 -0.679688 0.515625 -0.671875 C 0.535156 -0.660156 0.550781 -0.648438 0.5625 -0.640625 C 0.570312 -0.628906 0.582031 -0.613281 0.59375 -0.59375 C 0.601562 -0.570312 0.609375 -0.554688 0.609375 -0.546875 L 0.609375 -0.140625 C 0.609375 -0.117188 0.601562 -0.0976562 0.59375 -0.078125 C 0.582031 -0.0664062 0.570312 -0.0507812 0.5625 -0.03125 C 0.550781 -0.0195312 0.535156 -0.0078125 0.515625 0 C 0.492188 0 0.472656 0 0.453125 0 L 0.109375 0 C 0.0976562 0 0.09375 0 0.09375 0 C 0.09375 -0.0078125 0.09375 -0.015625 0.09375 -0.015625 Z M 0.171875 -0.078125 L 0.453125 -0.078125 C 0.472656 -0.078125 0.488281 -0.0820312 0.5 -0.09375 C 0.519531 -0.101562 0.53125 -0.117188 0.53125 -0.140625 L 0.53125 -0.546875 C 0.53125 -0.554688 0.519531 -0.566406 0.5 -0.578125 C 0.488281 -0.597656 0.472656 -0.609375 0.453125 -0.609375 L 0.171875 -0.609375 Z M 0.171875 -0.078125 "/></g></g></g><g fill="#e7f0ff" fill-opacity="1"><g transform="translate(37.301954, 50.898542)"><g/></g></g><g fill="#e7f0ff" fill-opacity="1"><g transform="translate(37.99796, 50.898542)"><g><path d="M 0.3125 -0.015625 L 0.3125 -0.609375 L 0.109375 -0.609375 C 0.0976562 -0.609375 0.09375 -0.613281 0.09375 -0.625 L 0.09375 -0.671875 C 0.09375 -0.679688 0.0976562 -0.6875 0.109375 -0.6875 L 0.59375 -0.6875 C 0.601562 -0.6875 0.609375 -0.679688 0.609375 -0.671875 L 0.609375 -0.625 C 0.609375 -0.613281 0.601562 -0.609375 0.59375 -0.609375 L 0.390625 -0.609375 L 0.390625 -0.015625 C 0.390625 -0.015625 0.382812 -0.0078125 0.375 0 L 0.328125 0 C 0.316406 0 0.3125 -0.00390625 0.3125 -0.015625 Z M 0.3125 -0.015625 "/></g></g></g><g fill="#e7f0ff" fill-opacity="1"><g transform="translate(38.694965, 50.898542)"><g><path d="M 0.234375 0 C 0.210938 0 0.191406 0 0.171875 0 C 0.160156 -0.0078125 0.144531 -0.0195312 0.125 -0.03125 C 0.113281 -0.0507812 0.101562 -0.0664062 0.09375 -0.078125 C 0.09375 -0.0976562 0.09375 -0.117188 0.09375 -0.140625 L 0.09375 -0.546875 C 0.09375 -0.554688 0.09375 -0.570312 0.09375 -0.59375 C 0.101562 -0.613281 0.113281 -0.628906 0.125 -0.640625 C 0.144531 -0.648438 0.160156 -0.660156 0.171875 -0.671875 C 0.191406 -0.679688 0.210938 -0.6875 0.234375 -0.6875 L 0.453125 -0.6875 C 0.472656 -0.6875 0.492188 -0.679688 0.515625 -0.671875 C 0.535156 -0.660156 0.550781 -0.648438 0.5625 -0.640625 C 0.570312 -0.628906 0.582031 -0.613281 0.59375 -0.59375 C 0.601562 -0.570312 0.609375 -0.554688 0.609375 -0.546875 L 0.609375 -0.140625 C 0.609375 -0.117188 0.601562 -0.0976562 0.59375 -0.078125 C 0.582031 -0.0664062 0.570312 -0.0507812 0.5625 -0.03125 C 0.550781 -0.0195312 0.535156 -0.0078125 0.515625 0 C 0.492188 0 0.472656 0 0.453125 0 Z M 0.234375 -0.609375 C 0.210938 -0.609375 0.195312 -0.597656 0.1875 -0.578125 C 0.175781 -0.566406 0.171875 -0.554688 0.171875 -0.546875 L 0.171875 -0.140625 C 0.171875 -0.117188 0.175781 -0.101562 0.1875 -0.09375 C 0.195312 -0.0820312 0.210938 -0.078125 0.234375 -0.078125 L 0.453125 -0.078125 C 0.472656 -0.078125 0.488281 -0.0820312 0.5 -0.09375 C 0.519531 -0.101562 0.53125 -0.117188 0.53125 -0.140625 L 0.53125 -0.546875 C 0.53125 -0.554688 0.519531 -0.566406 0.5 -0.578125 C 0.488281 -0.597656 0.472656 -0.609375 0.453125 -0.609375 Z M 0.234375 -0.609375 "/></g></g></g><g fill="#e7f0ff" fill-opacity="1"><g transform="translate(39.391971, 50.898542)"><g><path d="M 0.546875 -0.671875 C 0.554688 -0.679688 0.5625 -0.6875 0.5625 -0.6875 L 0.609375 -0.6875 C 0.617188 -0.6875 0.625 -0.679688 0.625 -0.671875 L 0.578125 -0.015625 C 0.578125 -0.015625 0.570312 -0.0078125 0.5625 0 L 0.5 0 C 0.488281 0 0.484375 -0.00390625 0.484375 -0.015625 L 0.34375 -0.234375 L 0.21875 -0.015625 C 0.21875 -0.00390625 0.210938 0 0.203125 0 L 0.140625 0 C 0.128906 0 0.125 0 0.125 0 C 0.125 -0.0078125 0.125 -0.015625 0.125 -0.015625 L 0.0625 -0.671875 C 0.0703125 -0.679688 0.078125 -0.6875 0.078125 -0.6875 L 0.125 -0.6875 C 0.132812 -0.6875 0.140625 -0.679688 0.140625 -0.671875 L 0.1875 -0.09375 L 0.3125 -0.3125 C 0.3125 -0.320312 0.316406 -0.328125 0.328125 -0.328125 L 0.375 -0.328125 C 0.382812 -0.328125 0.390625 -0.320312 0.390625 -0.3125 L 0.515625 -0.09375 Z M 0.546875 -0.671875 "/></g></g></g><g fill="#e7f0ff" fill-opacity="1"><g transform="translate(40.088976, 50.898542)"><g><path d="M 0.4375 -0.6875 C 0.445312 -0.6875 0.453125 -0.679688 0.453125 -0.671875 C 0.453125 -0.671875 0.457031 -0.671875 0.46875 -0.671875 L 0.59375 -0.328125 C 0.601562 -0.316406 0.609375 -0.304688 0.609375 -0.296875 L 0.609375 -0.015625 C 0.609375 -0.00390625 0.601562 0 0.59375 0 L 0.546875 0 C 0.535156 0 0.53125 -0.00390625 0.53125 -0.015625 L 0.53125 -0.203125 L 0.171875 -0.203125 L 0.171875 -0.015625 C 0.171875 -0.00390625 0.164062 0 0.15625 0 L 0.109375 0 C 0.0976562 0 0.09375 -0.00390625 0.09375 -0.015625 L 0.09375 -0.296875 C 0.09375 -0.304688 0.09375 -0.316406 0.09375 -0.328125 L 0.234375 -0.671875 C 0.242188 -0.679688 0.25 -0.6875 0.25 -0.6875 Z M 0.53125 -0.28125 L 0.53125 -0.296875 L 0.40625 -0.609375 L 0.296875 -0.609375 L 0.171875 -0.296875 L 0.171875 -0.28125 Z M 0.53125 -0.28125 "/></g></g></g><g fill="#e7f0ff" fill-opacity="1"><g transform="translate(40.785981, 50.898542)"><g><path d="M 0.515625 -0.015625 L 0.375 -0.3125 L 0.171875 -0.3125 L 0.171875 -0.015625 C 0.171875 -0.00390625 0.164062 0 0.15625 0 L 0.109375 0 C 0.0976562 0 0.09375 -0.00390625 0.09375 -0.015625 L 0.09375 -0.671875 C 0.09375 -0.679688 0.0976562 -0.6875 0.109375 -0.6875 L 0.453125 -0.6875 C 0.472656 -0.6875 0.492188 -0.679688 0.515625 -0.671875 C 0.535156 -0.660156 0.550781 -0.648438 0.5625 -0.640625 C 0.570312 -0.628906 0.582031 -0.613281 0.59375 -0.59375 C 0.601562 -0.570312 0.609375 -0.554688 0.609375 -0.546875 L 0.609375 -0.453125 C 0.609375 -0.421875 0.597656 -0.390625 0.578125 -0.359375 C 0.554688 -0.335938 0.53125 -0.320312 0.5 -0.3125 L 0.46875 -0.296875 L 0.59375 -0.015625 C 0.59375 -0.015625 0.59375 -0.0078125 0.59375 0 L 0.53125 0 C 0.53125 0 0.523438 0 0.515625 0 C 0.515625 -0.0078125 0.515625 -0.015625 0.515625 -0.015625 Z M 0.171875 -0.375 L 0.453125 -0.375 C 0.472656 -0.375 0.488281 -0.378906 0.5 -0.390625 C 0.519531 -0.410156 0.53125 -0.429688 0.53125 -0.453125 L 0.53125 -0.546875 C 0.53125 -0.554688 0.519531 -0.566406 0.5 -0.578125 C 0.488281 -0.597656 0.472656 -0.609375 0.453125 -0.609375 L 0.171875 -0.609375 Z M 0.171875 -0.375 "/></g></g></g><g fill="#e7f0ff" fill-opacity="1"><g transform="translate(41.482987, 50.898542)"><g><path d="M 0.09375 -0.015625 L 0.09375 -0.671875 C 0.09375 -0.679688 0.0976562 -0.6875 0.109375 -0.6875 L 0.453125 -0.6875 C 0.472656 -0.6875 0.492188 -0.679688 0.515625 -0.671875 C 0.535156 -0.660156 0.550781 -0.648438 0.5625 -0.640625 C 0.570312 -0.628906 0.582031 -0.613281 0.59375 -0.59375 C 0.601562 -0.570312 0.609375 -0.554688 0.609375 -0.546875 L 0.609375 -0.140625 C 0.609375 -0.117188 0.601562 -0.0976562 0.59375 -0.078125 C 0.582031 -0.0664062 0.570312 -0.0507812 0.5625 -0.03125 C 0.550781 -0.0195312 0.535156 -0.0078125 0.515625 0 C 0.492188 0 0.472656 0 0.453125 0 L 0.109375 0 C 0.0976562 0 0.09375 0 0.09375 0 C 0.09375 -0.0078125 0.09375 -0.015625 0.09375 -0.015625 Z M 0.171875 -0.078125 L 0.453125 -0.078125 C 0.472656 -0.078125 0.488281 -0.0820312 0.5 -0.09375 C 0.519531 -0.101562 0.53125 -0.117188 0.53125 -0.140625 L 0.53125 -0.546875 C 0.53125 -0.554688 0.519531 -0.566406 0.5 -0.578125 C 0.488281 -0.597656 0.472656 -0.609375 0.453125 -0.609375 L 0.171875 -0.609375 Z M 0.171875 -0.078125 "/></g></g></g><g fill="#e7f0ff" fill-opacity="1"><g transform="translate(42.179992, 50.898542)"><g><path d="M 0.09375 -0.140625 L 0.09375 -0.1875 C 0.09375 -0.195312 0.09375 -0.203125 0.09375 -0.203125 C 0.09375 -0.203125 0.0976562 -0.203125 0.109375 -0.203125 L 0.15625 -0.203125 C 0.164062 -0.203125 0.171875 -0.195312 0.171875 -0.1875 L 0.171875 -0.140625 C 0.171875 -0.117188 0.175781 -0.101562 0.1875 -0.09375 C 0.195312 -0.0820312 0.210938 -0.078125 0.234375 -0.078125 L 0.453125 -0.078125 C 0.472656 -0.078125 0.488281 -0.0820312 0.5 -0.09375 C 0.519531 -0.101562 0.53125 -0.117188 0.53125 -0.140625 L 0.53125 -0.234375 C 0.53125 -0.253906 0.519531 -0.269531 0.5 -0.28125 C 0.488281 -0.300781 0.472656 -0.3125 0.453125 -0.3125 L 0.234375 -0.3125 C 0.210938 -0.3125 0.191406 -0.3125 0.171875 -0.3125 C 0.160156 -0.320312 0.144531 -0.332031 0.125 -0.34375 C 0.113281 -0.351562 0.101562 -0.367188 0.09375 -0.390625 C 0.09375 -0.410156 0.09375 -0.429688 0.09375 -0.453125 L 0.09375 -0.546875 C 0.09375 -0.554688 0.09375 -0.570312 0.09375 -0.59375 C 0.101562 -0.613281 0.113281 -0.628906 0.125 -0.640625 C 0.144531 -0.648438 0.160156 -0.660156 0.171875 -0.671875 C 0.191406 -0.679688 0.210938 -0.6875 0.234375 -0.6875 L 0.453125 -0.6875 C 0.472656 -0.6875 0.492188 -0.679688 0.515625 -0.671875 C 0.535156 -0.660156 0.550781 -0.648438 0.5625 -0.640625 C 0.570312 -0.628906 0.582031 -0.613281 0.59375 -0.59375 C 0.601562 -0.570312 0.609375 -0.554688 0.609375 -0.546875 L 0.609375 -0.5 C 0.609375 -0.488281 0.601562 -0.484375 0.59375 -0.484375 L 0.546875 -0.484375 C 0.535156 -0.484375 0.53125 -0.488281 0.53125 -0.5 L 0.53125 -0.546875 C 0.53125 -0.554688 0.519531 -0.566406 0.5 -0.578125 C 0.488281 -0.597656 0.472656 -0.609375 0.453125 -0.609375 L 0.234375 -0.609375 C 0.210938 -0.609375 0.195312 -0.597656 0.1875 -0.578125 C 0.175781 -0.566406 0.171875 -0.554688 0.171875 -0.546875 L 0.171875 -0.453125 C 0.171875 -0.429688 0.175781 -0.410156 0.1875 -0.390625 C 0.195312 -0.378906 0.210938 -0.375 0.234375 -0.375 L 0.453125 -0.375 C 0.472656 -0.375 0.492188 -0.367188 0.515625 -0.359375 C 0.535156 -0.359375 0.550781 -0.347656 0.5625 -0.328125 C 0.570312 -0.316406 0.582031 -0.300781 0.59375 -0.28125 C 0.601562 -0.269531 0.609375 -0.253906 0.609375 -0.234375 L 0.609375 -0.140625 C 0.609375 -0.117188 0.601562 -0.0976562 0.59375 -0.078125 C 0.582031 -0.0664062 0.570312 -0.0507812 0.5625 -0.03125 C 0.550781 -0.0195312 0.535156 -0.0078125 0.515625 0 C 0.492188 0 0.472656 0 0.453125 0 L 0.234375 0 C 0.210938 0 0.191406 0 0.171875 0 C 0.160156 -0.0078125 0.144531 -0.0195312 0.125 -0.03125 C 0.113281 -0.0507812 0.101562 -0.0664062 0.09375 -0.078125 C 0.09375 -0.0976562 0.09375 -0.117188 0.09375 -0.140625 Z M 0.09375 -0.140625 "/></g></g></g><g fill="#e7f0ff" fill-opacity="1"><g transform="translate(55.331612, 50.898542)"><g><path d="M 0.53125 -0.015625 L 0.53125 -0.296875 L 0.171875 -0.59375 L 0.171875 -0.015625 C 0.171875 -0.00390625 0.164062 0 0.15625 0 L 0.109375 0 C 0.0976562 0 0.09375 0 0.09375 0 C 0.09375 -0.0078125 0.09375 -0.015625 0.09375 -0.015625 L 0.09375 -0.671875 C 0.09375 -0.679688 0.0976562 -0.6875 0.109375 -0.6875 L 0.171875 -0.6875 C 0.179688 -0.6875 0.191406 -0.679688 0.203125 -0.671875 L 0.53125 -0.40625 L 0.53125 -0.671875 C 0.53125 -0.679688 0.535156 -0.6875 0.546875 -0.6875 L 0.59375 -0.6875 C 0.601562 -0.6875 0.609375 -0.679688 0.609375 -0.671875 L 0.609375 -0.015625 C 0.609375 -0.00390625 0.601562 0 0.59375 0 L 0.546875 0 C 0.535156 0 0.53125 -0.00390625 0.53125 -0.015625 Z M 0.53125 -0.015625 "/></g></g></g><g fill="#e7f0ff" fill-opacity="1"><g transform="translate(56.028617, 50.898542)"><g><path d="M 0.4375 -0.6875 C 0.445312 -0.6875 0.453125 -0.679688 0.453125 -0.671875 C 0.453125 -0.671875 0.457031 -0.671875 0.46875 -0.671875 L 0.59375 -0.328125 C 0.601562 -0.316406 0.609375 -0.304688 0.609375 -0.296875 L 0.609375 -0.015625 C 0.609375 -0.00390625 0.601562 0 0.59375 0 L 0.546875 0 C 0.535156 0 0.53125 -0.00390625 0.53125 -0.015625 L 0.53125 -0.203125 L 0.171875 -0.203125 L 0.171875 -0.015625 C 0.171875 -0.00390625 0.164062 0 0.15625 0 L 0.109375 0 C 0.0976562 0 0.09375 -0.00390625 0.09375 -0.015625 L 0.09375 -0.296875 C 0.09375 -0.304688 0.09375 -0.316406 0.09375 -0.328125 L 0.234375 -0.671875 C 0.242188 -0.679688 0.25 -0.6875 0.25 -0.6875 Z M 0.53125 -0.28125 L 0.53125 -0.296875 L 0.40625 -0.609375 L 0.296875 -0.609375 L 0.171875 -0.296875 L 0.171875 -0.28125 Z M 0.53125 -0.28125 "/></g></g></g><g fill="#e7f0ff" fill-opacity="1"><g transform="translate(56.725623, 50.898542)"><g><path d="M 0.09375 -0.234375 C 0.101562 -0.242188 0.109375 -0.25 0.109375 -0.25 L 0.15625 -0.25 C 0.15625 -0.25 0.15625 -0.242188 0.15625 -0.234375 C 0.164062 -0.234375 0.171875 -0.234375 0.171875 -0.234375 L 0.171875 -0.140625 C 0.171875 -0.117188 0.175781 -0.101562 0.1875 -0.09375 C 0.207031 -0.0820312 0.222656 -0.078125 0.234375 -0.078125 L 0.453125 -0.078125 C 0.472656 -0.078125 0.488281 -0.0820312 0.5 -0.09375 C 0.519531 -0.101562 0.53125 -0.117188 0.53125 -0.140625 L 0.53125 -0.609375 L 0.109375 -0.609375 C 0.0976562 -0.609375 0.09375 -0.613281 0.09375 -0.625 L 0.09375 -0.671875 C 0.09375 -0.679688 0.0976562 -0.6875 0.109375 -0.6875 L 0.59375 -0.6875 C 0.59375 -0.6875 0.59375 -0.679688 0.59375 -0.671875 L 0.59375 -0.140625 C 0.59375 -0.117188 0.585938 -0.0976562 0.578125 -0.078125 C 0.578125 -0.0664062 0.566406 -0.0507812 0.546875 -0.03125 C 0.535156 -0.0195312 0.519531 -0.0078125 0.5 0 C 0.488281 0 0.472656 0 0.453125 0 L 0.234375 0 C 0.222656 0 0.207031 0 0.1875 0 C 0.164062 -0.0078125 0.148438 -0.0195312 0.140625 -0.03125 C 0.128906 -0.0507812 0.117188 -0.0664062 0.109375 -0.078125 C 0.0976562 -0.0976562 0.09375 -0.117188 0.09375 -0.140625 Z M 0.09375 -0.234375 "/></g></g></g><g fill="#e7f0ff" fill-opacity="1"><g transform="translate(57.421628, 50.898542)"><g><path d="M 0.515625 -0.671875 C 0.523438 -0.679688 0.53125 -0.6875 0.53125 -0.6875 L 0.59375 -0.6875 C 0.601562 -0.6875 0.609375 -0.679688 0.609375 -0.671875 L 0.609375 -0.015625 C 0.609375 -0.00390625 0.601562 0 0.59375 0 L 0.546875 0 C 0.535156 0 0.53125 -0.00390625 0.53125 -0.015625 L 0.53125 -0.59375 L 0.390625 -0.359375 C 0.378906 -0.347656 0.375 -0.34375 0.375 -0.34375 C 0.375 -0.34375 0.367188 -0.34375 0.359375 -0.34375 L 0.328125 -0.34375 C 0.328125 -0.34375 0.320312 -0.34375 0.3125 -0.34375 C 0.3125 -0.34375 0.3125 -0.347656 0.3125 -0.359375 L 0.171875 -0.59375 L 0.171875 -0.015625 C 0.171875 -0.00390625 0.164062 0 0.15625 0 L 0.109375 0 C 0.0976562 0 0.09375 -0.00390625 0.09375 -0.015625 L 0.09375 -0.671875 C 0.09375 -0.679688 0.0976562 -0.6875 0.109375 -0.6875 L 0.171875 -0.6875 C 0.171875 -0.6875 0.171875 -0.679688 0.171875 -0.671875 C 0.179688 -0.671875 0.1875 -0.671875 0.1875 -0.671875 L 0.34375 -0.4375 Z M 0.515625 -0.671875 "/></g></g></g><g fill="#e7f0ff" fill-opacity="1"><g transform="translate(58.118634, 50.898542)"><g/></g></g><g fill="#e7f0ff" fill-opacity="1"><g transform="translate(58.81464, 50.898542)"><g><path d="M 0.453125 -0.6875 C 0.472656 -0.6875 0.492188 -0.679688 0.515625 -0.671875 C 0.535156 -0.660156 0.550781 -0.648438 0.5625 -0.640625 C 0.570312 -0.628906 0.582031 -0.613281 0.59375 -0.59375 C 0.601562 -0.570312 0.609375 -0.554688 0.609375 -0.546875 L 0.609375 -0.453125 C 0.609375 -0.421875 0.597656 -0.390625 0.578125 -0.359375 L 0.5625 -0.34375 L 0.578125 -0.328125 C 0.597656 -0.296875 0.609375 -0.265625 0.609375 -0.234375 L 0.609375 -0.140625 C 0.609375 -0.117188 0.601562 -0.0976562 0.59375 -0.078125 C 0.582031 -0.0664062 0.570312 -0.0507812 0.5625 -0.03125 C 0.550781 -0.0195312 0.535156 -0.0078125 0.515625 0 C 0.492188 0 0.472656 0 0.453125 0 L 0.234375 0 C 0.210938 0 0.191406 0 0.171875 0 C 0.160156 -0.0078125 0.148438 -0.0195312 0.140625 -0.03125 C 0.128906 -0.0507812 0.117188 -0.0664062 0.109375 -0.078125 C 0.0976562 -0.0976562 0.09375 -0.117188 0.09375 -0.140625 L 0.09375 -0.1875 C 0.09375 -0.195312 0.09375 -0.203125 0.09375 -0.203125 C 0.09375 -0.203125 0.0976562 -0.203125 0.109375 -0.203125 L 0.15625 -0.203125 C 0.164062 -0.203125 0.171875 -0.195312 0.171875 -0.1875 L 0.171875 -0.140625 C 0.171875 -0.117188 0.175781 -0.101562 0.1875 -0.09375 C 0.195312 -0.0820312 0.210938 -0.078125 0.234375 -0.078125 L 0.453125 -0.078125 C 0.472656 -0.078125 0.488281 -0.0820312 0.5 -0.09375 C 0.519531 -0.101562 0.53125 -0.117188 0.53125 -0.140625 L 0.53125 -0.234375 C 0.53125 -0.253906 0.519531 -0.269531 0.5 -0.28125 C 0.488281 -0.300781 0.472656 -0.3125 0.453125 -0.3125 L 0.234375 -0.3125 L 0.234375 -0.359375 C 0.234375 -0.367188 0.234375 -0.375 0.234375 -0.375 L 0.453125 -0.375 C 0.472656 -0.375 0.488281 -0.378906 0.5 -0.390625 C 0.519531 -0.410156 0.53125 -0.429688 0.53125 -0.453125 L 0.53125 -0.546875 C 0.53125 -0.554688 0.519531 -0.566406 0.5 -0.578125 C 0.488281 -0.597656 0.472656 -0.609375 0.453125 -0.609375 L 0.234375 -0.609375 C 0.210938 -0.609375 0.195312 -0.597656 0.1875 -0.578125 C 0.175781 -0.566406 0.171875 -0.554688 0.171875 -0.546875 L 0.171875 -0.5 C 0.171875 -0.488281 0.164062 -0.484375 0.15625 -0.484375 L 0.109375 -0.484375 C 0.0976562 -0.484375 0.09375 -0.488281 0.09375 -0.5 L 0.09375 -0.546875 C 0.09375 -0.566406 0.0976562 -0.582031 0.109375 -0.59375 C 0.117188 -0.613281 0.128906 -0.628906 0.140625 -0.640625 C 0.148438 -0.660156 0.160156 -0.671875 0.171875 -0.671875 C 0.191406 -0.679688 0.210938 -0.6875 0.234375 -0.6875 Z M 0.453125 -0.6875 "/></g></g></g><g fill="#e7f0ff" fill-opacity="1"><g transform="translate(59.511645, 50.898542)"><g><path d="M 0.234375 -0.3125 C 0.210938 -0.3125 0.191406 -0.3125 0.171875 -0.3125 C 0.160156 -0.320312 0.144531 -0.332031 0.125 -0.34375 C 0.113281 -0.351562 0.101562 -0.367188 0.09375 -0.390625 C 0.09375 -0.410156 0.09375 -0.429688 0.09375 -0.453125 L 0.09375 -0.546875 C 0.09375 -0.554688 0.09375 -0.570312 0.09375 -0.59375 C 0.101562 -0.613281 0.113281 -0.628906 0.125 -0.640625 C 0.144531 -0.648438 0.160156 -0.660156 0.171875 -0.671875 C 0.191406 -0.679688 0.210938 -0.6875 0.234375 -0.6875 L 0.453125 -0.6875 C 0.472656 -0.6875 0.492188 -0.679688 0.515625 -0.671875 C 0.535156 -0.660156 0.550781 -0.648438 0.5625 -0.640625 C 0.570312 -0.628906 0.582031 -0.613281 0.59375 -0.59375 C 0.601562 -0.570312 0.609375 -0.554688 0.609375 -0.546875 L 0.609375 -0.140625 C 0.609375 -0.117188 0.601562 -0.0976562 0.59375 -0.078125 C 0.582031 -0.0664062 0.570312 -0.0507812 0.5625 -0.03125 C 0.550781 -0.0195312 0.535156 -0.0078125 0.515625 0 C 0.492188 0 0.472656 0 0.453125 0 L 0.234375 0 C 0.210938 0 0.191406 0 0.171875 0 C 0.160156 -0.0078125 0.148438 -0.0195312 0.140625 -0.03125 C 0.128906 -0.0507812 0.117188 -0.0664062 0.109375 -0.078125 C 0.0976562 -0.0976562 0.09375 -0.117188 0.09375 -0.140625 L 0.09375 -0.1875 C 0.09375 -0.195312 0.09375 -0.203125 0.09375 -0.203125 C 0.09375 -0.203125 0.0976562 -0.203125 0.109375 -0.203125 L 0.15625 -0.203125 C 0.164062 -0.203125 0.171875 -0.195312 0.171875 -0.1875 L 0.171875 -0.140625 C 0.171875 -0.117188 0.175781 -0.101562 0.1875 -0.09375 C 0.195312 -0.0820312 0.210938 -0.078125 0.234375 -0.078125 L 0.453125 -0.078125 C 0.472656 -0.078125 0.488281 -0.0820312 0.5 -0.09375 C 0.519531 -0.101562 0.53125 -0.117188 0.53125 -0.140625 L 0.53125 -0.3125 Z M 0.171875 -0.453125 C 0.171875 -0.429688 0.175781 -0.410156 0.1875 -0.390625 C 0.195312 -0.378906 0.210938 -0.375 0.234375 -0.375 L 0.53125 -0.375 L 0.53125 -0.546875 C 0.53125 -0.554688 0.519531 -0.566406 0.5 -0.578125 C 0.488281 -0.597656 0.472656 -0.609375 0.453125 -0.609375 L 0.234375 -0.609375 C 0.210938 -0.609375 0.195312 -0.597656 0.1875 -0.578125 C 0.175781 -0.566406 0.171875 -0.554688 0.171875 -0.546875 Z M 0.171875 -0.453125 "/></g></g></g></svg>